<svg width="65" height="66" viewBox="0 0 65 66" fill="none" xmlns="http://www.w3.org/2000/svg">
<path d="M1.08 60.1188V59.4588L2.5 59.2388L2.4 52.4188V47.3588L0.98 47.1388V46.4788H9.88L10.1 49.5588H9.66L8.74 47.3588H4.16V52.3988H7.9L8.14 50.8388H8.8V54.8388H8.14L7.86 53.2788H4.14L4.06 59.2388H8.96L10 57.0388L10.54 57.2588L10.12 60.1188H1.08ZM12.2909 60.1188V59.4588L13.7109 59.2388L13.6109 52.4188V47.3588L12.1909 47.1388V46.4788H16.7909V47.1388L15.3709 47.3588V52.4188L15.3509 52.8988L21.4109 47.3588L19.9909 47.1388V46.4788H24.3909V47.1388L22.9709 47.3588L17.2709 52.6388L24.1909 59.2388L25.6109 59.4588V60.1188H20.4109V59.4588L21.8309 59.2388L16.0309 53.7388L15.3309 54.3588L15.2709 59.2388L16.6909 59.4588V60.1188H12.2909ZM26.3144 60.1188V59.4588L27.7344 59.2388L27.6344 52.4188V47.3588L26.2144 47.1388V46.4788H30.8144V47.1388L29.3944 47.3588V52.4188L29.3744 52.8988L35.4344 47.3588L34.0144 47.1388V46.4788H38.4144V47.1388L36.9944 47.3588L31.2944 52.6388L38.2144 59.2388L39.6344 59.4588V60.1188H34.4344V59.4588L35.8544 59.2388L30.0544 53.7388L29.3544 54.3588L29.2944 59.2388L30.7144 59.4588V60.1188H26.3144ZM38.9178 60.1188V59.4588L40.3378 59.2388L45.3778 46.3188H45.5978L50.8978 59.2388L52.3178 59.4588V60.1188H47.7178V59.4588L49.1378 59.2388L47.4378 55.0588H42.9578L41.3178 59.2388L42.7378 59.4588V60.1188H38.9178ZM43.2978 54.1788H47.0778L45.1578 49.4588L43.2978 54.1788ZM51.5155 60.1188V59.4588L52.9355 59.2388L57.9755 46.3188H58.1955L63.4955 59.2388L64.9155 59.4588V60.1188H60.3155V59.4588L61.7355 59.2388L60.0355 55.0588H55.5555L53.9155 59.2388L55.3355 59.4588V60.1188H51.5155ZM55.8955 54.1788H59.6755L57.7555 49.4588L55.8955 54.1788Z" fill="black"/>
<rect x="12.4304" y="1.05331" width="0.845632" height="7.61079" fill="white" stroke="black" stroke-width="0.845632"/>
<rect x="43.719" y="1.05319" width="0.845632" height="7.61079" fill="white" stroke="black" stroke-width="0.845632"/>
<rect x="43.719" y="1.05319" width="0.845643" height="30.4427" transform="rotate(90 43.719 1.05319)" fill="white" stroke="black" stroke-width="0.845643"/>
<rect x="26.8058" y="7.81838" width="0.845642" height="14.3757" transform="rotate(90 26.8058 7.81838)" fill="white" stroke="black" stroke-width="0.845642"/>
<rect x="43.719" y="7.81838" width="0.845642" height="6.76505" transform="rotate(90 43.719 7.81838)" fill="white" stroke="black" stroke-width="0.845642"/>
<path d="M30.976 8.24122C30.976 9.28476 30.1301 10.1307 29.0866 10.1307C28.0431 10.1307 27.1971 9.28476 27.1971 8.24122C27.1971 7.19768 28.0431 6.35174 29.0866 6.35174C30.1301 6.35174 30.976 7.19768 30.976 8.24122Z" fill="black" stroke="black"/>
<path d="M37.3564 8.24068C37.3564 9.28392 36.5107 10.1296 35.4675 10.1296C34.4243 10.1296 33.5786 9.28392 33.5786 8.24068C33.5786 7.19744 34.4243 6.35174 35.4675 6.35174C36.5107 6.35174 37.3564 7.19744 37.3564 8.24068Z" fill="black" stroke="black"/>
<path d="M30.3906 35.7689L12.8533 13.6107H44.6725V20.6467H27.1352L34.3812 29.0479H44.6725V35.7689H30.3906Z" stroke="black" stroke-width="1.3"/>
</svg>
