<svg width="43" height="43" viewBox="0 0 43 43" fill="none" xmlns="http://www.w3.org/2000/svg">
<rect x="0.642578" y="0.911133" width="41.7678" height="41.7678" fill="#4E9E52"/>
<rect x="0.642578" y="0.489258" width="41.7678" height="41.7678" fill="#4E9E52"/>
<path d="M25.0158 19.4223C25.0857 19.3302 25.1201 19.2144 25.1122 19.0975C25.1044 18.9806 25.0548 18.8709 24.9732 18.7897C24.8917 18.7085 24.7838 18.6615 24.6707 18.658C24.5576 18.6544 24.4472 18.6945 24.361 18.7705L16.1758 25.9799L11.8534 24.2493C11.6654 24.1748 11.502 24.046 11.3826 23.8781C11.2632 23.7103 11.1928 23.5105 11.1799 23.3025C11.167 23.0945 11.212 22.887 11.3096 22.7047C11.4072 22.5224 11.5534 22.373 11.7306 22.2742L29.6751 11.8674C29.8161 11.7887 29.9751 11.7512 30.1351 11.7588C30.2951 11.7664 30.4502 11.8188 30.5837 11.9105C30.7171 12.0022 30.8241 12.1297 30.893 12.2793C30.962 12.429 30.9904 12.5953 30.9753 12.7604L29.4012 29.7477C29.3854 29.9219 29.3306 30.0899 29.2411 30.2383C29.1515 30.3868 29.0298 30.5115 28.8855 30.6027C28.7412 30.6938 28.5784 30.7488 28.4099 30.7634C28.2415 30.7779 28.0721 30.7515 27.9153 30.6863L22.6547 28.5776L19.3523 31.7814C19.2304 31.8993 19.0778 31.9776 18.9134 32.0067C18.749 32.0357 18.5799 32.0143 18.4272 31.9449C18.2744 31.8755 18.1447 31.7613 18.0539 31.6164C17.9632 31.4715 17.9155 31.3023 17.9167 31.1296V28.6134L25.0158 19.4223Z" fill="white"/>
<path d="M25.0158 19.0004C25.0857 18.9083 25.1201 18.7925 25.1122 18.6756C25.1044 18.5587 25.0548 18.449 24.9732 18.3678C24.8917 18.2866 24.7838 18.2397 24.6707 18.2361C24.5576 18.2326 24.4472 18.2726 24.361 18.3486L16.1758 25.5581L11.8534 23.8274C11.6654 23.7529 11.502 23.6241 11.3826 23.4563C11.2632 23.2884 11.1928 23.0886 11.1799 22.8806C11.167 22.6726 11.212 22.4652 11.3096 22.2829C11.4072 22.1006 11.5534 21.9511 11.7306 21.8523L29.6751 11.4455C29.8161 11.3668 29.9751 11.3293 30.1351 11.3369C30.2951 11.3445 30.4502 11.3969 30.5837 11.4886C30.7171 11.5803 30.8241 11.7078 30.893 11.8575C30.962 12.0072 30.9904 12.1734 30.9753 12.3385L29.4012 29.3258C29.3854 29.5 29.3306 29.668 29.2411 29.8164C29.1515 29.9649 29.0298 30.0896 28.8855 30.1808C28.7412 30.2719 28.5784 30.327 28.4099 30.3415C28.2415 30.356 28.0721 30.3296 27.9153 30.2644L22.6547 28.1557L19.3523 31.3596C19.2304 31.4774 19.0778 31.5558 18.9134 31.5848C18.749 31.6139 18.5799 31.5924 18.4272 31.523C18.2744 31.4537 18.1447 31.3395 18.0539 31.1946C17.9632 31.0496 17.9155 30.8804 17.9167 30.7077V28.1916L25.0158 19.0004Z" fill="white"/>
</svg>
