<svg width="21" height="20" viewBox="0 0 21 20" fill="none" xmlns="http://www.w3.org/2000/svg">
<g clip-path="url(#clip0_325_339)">
<path d="M3.15106 0.015625C1.68228 0.015625 0.486427 1.21125 0.485352 2.68118C0.485352 4.15111 1.68121 5.34697 3.15106 5.34697C4.62038 5.34697 5.81562 4.15111 5.81562 2.68118C5.81562 1.2114 4.6203 0.015625 3.15106 0.015625Z" fill="white"/>
<path d="M5.1517 6.41797H1.1501C0.959757 6.41797 0.805359 6.57229 0.805359 6.76279V19.6427C0.805359 19.8332 0.959757 19.9875 1.1501 19.9875H5.15163C5.34205 19.9875 5.49645 19.8331 5.49645 19.6427V6.76279C5.49652 6.57221 5.34213 6.41797 5.1517 6.41797Z" fill="white"/>
<path d="M15.3816 6.2666C13.9172 6.2666 12.6303 6.71251 11.8451 7.43964V6.76306C11.8451 6.57256 11.6907 6.41823 11.5002 6.41823H7.66172C7.47129 6.41823 7.31689 6.57256 7.31689 6.76306V19.643C7.31689 19.8334 7.47129 19.9877 7.66172 19.9877H11.6595C11.8499 19.9877 12.0043 19.8334 12.0043 19.643V13.2707C12.0043 11.4423 12.3406 10.3091 14.0189 10.3091C15.6724 10.3111 15.7962 11.5263 15.7962 13.3799V19.643C15.7962 19.8334 15.9506 19.9877 16.1411 19.9877H20.1407C20.331 19.9877 20.4854 19.8334 20.4854 19.643V12.5778C20.4854 9.63939 19.9053 6.2666 15.3816 6.2666Z" fill="white"/>
</g>
<defs>
<clipPath id="clip0_325_339">
<rect width="20" height="20" fill="white" transform="translate(0.485352 0.00146484)"/>
</clipPath>
</defs>
</svg>
