<svg width="21" height="19" viewBox="0 0 21 19" fill="none" xmlns="http://www.w3.org/2000/svg">
<path d="M10.4681 0.248568C10.3423 0.254382 10.2211 0.297399 10.1202 0.372068L0.880243 7.23607C0.802309 7.2946 0.739203 7.3703 0.695919 7.45717C0.652636 7.54404 0.630364 7.6397 0.630868 7.73657V17.9286C0.630884 18.0941 0.697265 18.2528 0.815409 18.3698C0.933553 18.4868 1.09379 18.5526 1.26087 18.5526H19.7409C19.9079 18.5526 20.0682 18.4868 20.1863 18.3698C20.3045 18.2528 20.3709 18.0941 20.3709 17.9286V7.73657C20.3714 7.6397 20.3491 7.54404 20.3058 7.45717C20.2625 7.3703 20.1994 7.2946 20.1215 7.23607L10.8815 0.372068C10.7627 0.283949 10.6163 0.240212 10.4681 0.248568ZM10.5009 1.65257L18.6777 7.73007L10.5009 13.6191L2.32399 7.73007L10.5009 1.65257ZM1.89087 8.95857L6.58306 12.3386L1.89087 16.5116V8.95857ZM19.1109 8.95857V16.5116L14.4187 12.3386L19.1109 8.95857ZM7.62649 13.0861L10.1334 14.8931C10.2405 14.9692 10.369 15.0102 10.5009 15.0102C10.6327 15.0102 10.7613 14.9692 10.8684 14.8931L13.3752 13.0861L18.1134 17.3046H2.88837L7.62649 13.0861Z" fill="white"/>
</svg>
