<svg width="32" height="41" viewBox="0 0 32 41" fill="none" xmlns="http://www.w3.org/2000/svg">
<path d="M20.8084 11.473C20.8084 10.5222 20.5264 9.59272 19.9982 8.80213C19.4699 8.01154 18.7191 7.39535 17.8406 7.03148C16.9622 6.66761 15.9955 6.57241 15.063 6.7579C14.1304 6.9434 13.2738 7.40127 12.6014 8.07361C11.9291 8.74595 11.4712 9.60257 11.2857 10.5351C11.1002 11.4677 11.1954 12.4343 11.5593 13.3128C11.9232 14.1912 12.5394 14.9421 13.33 15.4703C14.1205 15.9986 15.05 16.2805 16.0009 16.2805C17.2755 16.2791 18.4974 15.7722 19.3987 14.8709C20.3 13.9696 20.807 12.7476 20.8084 11.473ZM12.4734 11.473C12.4734 10.7754 12.6802 10.0934 13.0679 9.51326C13.4555 8.93316 14.0064 8.48103 14.6509 8.21405C15.2955 7.94706 16.0048 7.8772 16.689 8.01331C17.3733 8.14942 18.0019 8.48538 18.4952 8.97871C18.9885 9.47204 19.3245 10.1006 19.4606 10.7848C19.5967 11.4691 19.5268 12.1784 19.2598 12.8229C18.9929 13.4675 18.5407 14.0184 17.9606 14.406C17.3805 14.7936 16.6985 15.0005 16.0009 15.0005C15.0656 14.9995 14.169 14.6275 13.5077 13.9662C12.8464 13.3049 12.4744 12.4083 12.4734 11.473Z" fill="white"/>
<path d="M15.5702 26.0124C15.6879 26.1191 15.8411 26.1782 16 26.1782C16.1589 26.1782 16.3121 26.1191 16.4298 26.0124C16.7787 25.6961 24.975 18.1911 24.975 11.473C24.9736 9.09362 24.0274 6.81218 22.3444 5.13022C20.6614 3.44825 18.3794 2.50342 16.0001 2.50342C13.6207 2.50342 11.3387 3.44825 9.65574 5.13022C7.97277 6.81218 7.02657 9.09362 7.02515 11.473C7.02515 18.1911 15.2213 25.6961 15.5702 26.0124ZM16 3.77814C18.0401 3.78041 19.996 4.59184 21.4386 6.0344C22.8812 7.47697 23.6927 9.43287 23.695 11.473C23.695 16.7922 17.6784 23.0214 15.9998 24.6555C14.3208 23.0222 8.30515 16.7974 8.30515 11.473C8.30745 9.43289 9.1189 7.47701 10.5615 6.03445C12.004 4.59188 13.9599 3.78044 16 3.77814Z" fill="white"/>
<path d="M22.3977 21.8893L22.0452 23.1199C24.633 23.8608 26.2405 25.0329 26.2405 26.1782C26.2405 27.9944 22.0352 30.0182 16.0005 30.0182C9.96594 30.0182 5.76047 27.9944 5.76047 26.1782C5.76047 25.0327 7.36813 23.8608 9.95594 23.1199L9.60344 21.8893C6.34781 22.8216 4.48047 24.3849 4.48047 26.1782C4.48047 29.0971 9.43297 31.2982 16.0005 31.2982C22.568 31.2982 27.5205 29.0971 27.5205 26.1782C27.5205 24.3849 25.6533 22.8216 22.3977 21.8893Z" fill="white"/>
</svg>
