<svg width="21" height="22" viewBox="0 0 21 22" fill="none" xmlns="http://www.w3.org/2000/svg">
<path d="M15.9592 21.1965C15.3092 21.1965 14.3992 21.0665 13.3592 20.6765C11.6692 20.1565 10.3692 19.3765 8.93919 18.4665C7.37919 17.4265 5.81919 15.8665 5.81919 15.8665L5.42919 15.4765H5.29919C5.03919 15.2165 3.73919 13.7865 2.69919 12.3565C1.78919 10.7965 1.13919 9.49646 0.619191 7.80646C-0.0308083 5.98646 0.0991913 4.68646 0.229191 4.03646C0.359191 3.51646 0.749192 2.99646 1.13919 2.60646L2.69919 1.04646C3.34919 0.396462 4.64919 0.00646225 5.81919 1.17646L8.41919 3.77646C8.93919 4.29646 9.45919 5.59646 8.41919 6.76646L6.85919 8.32646C6.98919 8.58646 7.24919 9.10646 7.50919 9.49646C7.76919 9.88646 8.54919 10.9265 9.06919 11.4465C9.19919 11.5765 9.32919 11.7065 9.58919 11.9665L9.84919 12.0965C10.3692 12.6165 11.4092 13.3965 11.7992 13.6565C12.1892 13.9165 12.5792 14.1765 12.9692 14.3065L14.5292 12.7465C15.8292 11.7065 16.9992 12.2265 17.6492 12.7465L20.2492 15.3465C21.4192 16.5165 20.8992 17.8165 20.3792 18.4665L18.8192 20.0265C18.4292 20.4165 17.9092 20.8065 17.2592 20.9365C16.8692 21.0665 16.4792 21.1965 15.9592 21.1965ZM6.72919 14.9565C6.72919 14.9565 8.28919 16.3865 9.71919 17.4265C11.1492 18.3365 12.3192 18.9865 13.8792 19.5065C15.4392 20.0265 16.4792 19.8965 16.8692 19.7665C17.2592 19.6365 17.6492 19.3765 17.7792 19.1165L19.3392 17.5565C19.4692 17.4265 19.8592 16.9065 19.2092 16.2565L16.6092 13.6565C16.4792 13.5265 15.9592 13.1365 15.3092 13.6565L13.6192 15.3465C13.3592 15.6065 12.9692 15.7365 12.4492 15.6065C12.1892 15.4765 11.4092 15.2165 10.8892 14.8265C10.3692 14.4365 9.45919 13.6565 8.80919 13.1365L8.67919 13.0065C8.28919 12.6165 8.02919 12.3565 8.02919 12.3565C7.50919 11.8365 6.72919 10.7965 6.33919 10.2765C5.94919 9.75646 5.68919 8.97646 5.55919 8.71646C5.29919 8.32646 5.55919 7.80646 5.68919 7.54646L7.37919 5.85646C7.89919 5.20646 7.50919 4.81646 7.37919 4.68646L4.77919 2.08646C4.25919 1.56646 3.73919 1.82646 3.47919 1.95646L2.17919 3.51646C2.04919 3.64646 1.65919 4.03646 1.52919 4.42646C1.39919 4.94646 1.26919 5.98646 1.78919 7.41646C2.30919 8.97646 2.95919 10.1465 3.86919 11.5765C4.77919 12.8765 6.07919 14.3065 6.33919 14.5665L6.72919 14.9565Z" fill="white"/>
</svg>
