<svg width="130" height="130" viewBox="0 0 130 130" fill="none" xmlns="http://www.w3.org/2000/svg">
<circle cx="65.0449" cy="65.0529" r="64.4473" stroke="#434343" stroke-opacity="0.7"/>
<path d="M30.6037 71.4535C29.885 71.4535 29.241 71.3368 28.6717 71.1035C28.1024 70.8701 27.645 70.5248 27.2997 70.0675C26.9637 69.6101 26.7864 69.0595 26.7677 68.4155H29.3157C29.353 68.7795 29.479 69.0595 29.6937 69.2555C29.9084 69.4421 30.1884 69.5355 30.5337 69.5355C30.8884 69.5355 31.1684 69.4561 31.3737 69.2975C31.579 69.1295 31.6817 68.9008 31.6817 68.6115C31.6817 68.3688 31.5977 68.1681 31.4297 68.0095C31.271 67.8508 31.0704 67.7201 30.8277 67.6175C30.5944 67.5148 30.2584 67.3981 29.8197 67.2675C29.185 67.0715 28.667 66.8755 28.2657 66.6795C27.8644 66.4835 27.519 66.1941 27.2297 65.8115C26.9404 65.4288 26.7957 64.9295 26.7957 64.3135C26.7957 63.3988 27.127 62.6848 27.7897 62.1715C28.4524 61.6488 29.3157 61.3875 30.3797 61.3875C31.4624 61.3875 32.335 61.6488 32.9977 62.1715C33.6604 62.6848 34.015 63.4035 34.0617 64.3275H31.4717C31.453 64.0101 31.3364 63.7628 31.1217 63.5855C30.907 63.3988 30.6317 63.3055 30.2957 63.3055C30.0064 63.3055 29.773 63.3848 29.5957 63.5435C29.4184 63.6928 29.3297 63.9121 29.3297 64.2015C29.3297 64.5188 29.479 64.7661 29.7777 64.9435C30.0764 65.1208 30.543 65.3121 31.1777 65.5175C31.8124 65.7321 32.3257 65.9375 32.7177 66.1335C33.119 66.3295 33.4644 66.6141 33.7537 66.9875C34.043 67.3608 34.1877 67.8415 34.1877 68.4295C34.1877 68.9895 34.043 69.4981 33.7537 69.9555C33.4737 70.4128 33.063 70.7768 32.5217 71.0475C31.9804 71.3181 31.341 71.4535 30.6037 71.4535ZM38.013 61.5275V67.4075C38.013 67.9955 38.1576 68.4481 38.447 68.7655C38.7363 69.0828 39.161 69.2415 39.721 69.2415C40.281 69.2415 40.7103 69.0828 41.009 68.7655C41.3076 68.4481 41.457 67.9955 41.457 67.4075V61.5275H43.851V67.3935C43.851 68.2708 43.6643 69.0128 43.291 69.6195C42.9176 70.2261 42.4136 70.6835 41.779 70.9915C41.1536 71.2995 40.4536 71.4535 39.679 71.4535C38.9043 71.4535 38.209 71.3041 37.593 71.0055C36.9863 70.6975 36.5056 70.2401 36.151 69.6335C35.7963 69.0175 35.619 68.2708 35.619 67.3935V61.5275H38.013ZM51.4821 66.3155C52.0514 66.4368 52.5087 66.7215 52.8541 67.1695C53.1994 67.6081 53.3721 68.1121 53.3721 68.6815C53.3721 69.5028 53.0827 70.1561 52.5041 70.6415C51.9347 71.1175 51.1367 71.3555 50.1101 71.3555H45.5321V61.5275H49.9561C50.9547 61.5275 51.7341 61.7561 52.2941 62.2135C52.8634 62.6708 53.1481 63.2915 53.1481 64.0755C53.1481 64.6541 52.9941 65.1348 52.6861 65.5175C52.3874 65.9001 51.9861 66.1661 51.4821 66.3155ZM47.9261 65.5035H49.4941C49.8861 65.5035 50.1847 65.4195 50.3901 65.2515C50.6047 65.0741 50.7121 64.8175 50.7121 64.4815C50.7121 64.1455 50.6047 63.8888 50.3901 63.7115C50.1847 63.5341 49.8861 63.4455 49.4941 63.4455H47.9261V65.5035ZM49.6901 69.4235C50.0914 69.4235 50.3994 69.3348 50.6141 69.1575C50.8381 68.9708 50.9501 68.7048 50.9501 68.3595C50.9501 68.0141 50.8334 67.7435 50.6001 67.5475C50.3761 67.3515 50.0634 67.2535 49.6621 67.2535H47.9261V69.4235H49.6901ZM65.8906 61.5275V71.3555H63.4966V65.4615L61.2986 71.3555H59.3666L57.1546 65.4475V71.3555H54.7606V61.5275H57.5886L60.3466 68.3315L63.0766 61.5275H65.8906ZM70.0061 61.5275V71.3555H67.6121V61.5275H70.0061ZM78.811 61.5275V63.4455H76.207V71.3555H73.813V63.4455H71.209V61.5275H78.811Z" fill="white"/>
<g clip-path="url(#clip0_1126_1281)">
<path d="M98.7779 58.627V66.4812H98.5279L97.892 66.4819H97.642V66.2319L97.6427 60.5702L87.0879 71.125L86.2799 70.3171L96.8348 59.7623L91.1731 59.763H90.9231V59.513L90.9238 58.877V58.627H98.7779Z" fill="#E6AF2E" stroke="#E6AF2E" stroke-width="0.5"/>
</g>
<defs>
<clipPath id="clip0_1126_1281">
<rect width="20.25" height="12" fill="white" transform="translate(81.1055 67.9697) rotate(-45)"/>
</clipPath>
</defs>
</svg>
