<svg width="138" height="130" viewBox="0 0 138 130" fill="none" xmlns="http://www.w3.org/2000/svg">
<path d="M20.5706 53.0373V55.0253H23.7766V56.8733H20.5706V59.0293H24.1966V60.9473H18.1766V51.1193H24.1966V53.0373H20.5706ZM31.7708 60.9473L29.7688 57.9373L28.0048 60.9473H25.2888L28.4388 55.9493L25.2188 51.1193H28.0048L29.9788 54.0873L31.7148 51.1193H34.4308L31.3088 56.0753L34.5568 60.9473H31.7708ZM43.2486 54.2833C43.2486 54.8526 43.118 55.3753 42.8566 55.8513C42.5953 56.3179 42.194 56.6959 41.6526 56.9853C41.1113 57.2746 40.4393 57.4193 39.6366 57.4193H38.1526V60.9473H35.7586V51.1193H39.6366C40.4206 51.1193 41.0833 51.2546 41.6246 51.5253C42.166 51.7959 42.572 52.1693 42.8426 52.6453C43.1133 53.1213 43.2486 53.6673 43.2486 54.2833ZM39.4546 55.5153C39.912 55.5153 40.2526 55.4079 40.4766 55.1933C40.7006 54.9786 40.8126 54.6753 40.8126 54.2833C40.8126 53.8913 40.7006 53.5879 40.4766 53.3733C40.2526 53.1586 39.912 53.0513 39.4546 53.0513H38.1526V55.5153H39.4546ZM46.889 59.0993H50.025V60.9473H44.495V51.1193H46.889V59.0993ZM55.8148 61.0453C54.8908 61.0453 54.0415 60.8306 53.2668 60.4013C52.5015 59.9719 51.8902 59.3746 51.4328 58.6093C50.9848 57.8346 50.7608 56.9666 50.7608 56.0053C50.7608 55.0439 50.9848 54.1806 51.4328 53.4153C51.8902 52.6499 52.5015 52.0526 53.2668 51.6233C54.0415 51.1939 54.8908 50.9793 55.8148 50.9793C56.7388 50.9793 57.5835 51.1939 58.3488 51.6233C59.1235 52.0526 59.7302 52.6499 60.1688 53.4153C60.6168 54.1806 60.8408 55.0439 60.8408 56.0053C60.8408 56.9666 60.6168 57.8346 60.1688 58.6093C59.7208 59.3746 59.1142 59.9719 58.3488 60.4013C57.5835 60.8306 56.7388 61.0453 55.8148 61.0453ZM55.8148 58.8613C56.5988 58.8613 57.2242 58.5999 57.6908 58.0773C58.1668 57.5546 58.4048 56.8639 58.4048 56.0053C58.4048 55.1373 58.1668 54.4466 57.6908 53.9333C57.2242 53.4106 56.5988 53.1493 55.8148 53.1493C55.0215 53.1493 54.3868 53.4059 53.9108 53.9193C53.4442 54.4326 53.2108 55.1279 53.2108 56.0053C53.2108 56.8733 53.4442 57.5686 53.9108 58.0913C54.3868 58.6046 55.0215 58.8613 55.8148 58.8613ZM67.1847 60.9473L65.1407 57.2373H64.5667V60.9473H62.1727V51.1193H66.1907C66.9654 51.1193 67.6234 51.2546 68.1647 51.5253C68.7154 51.7959 69.126 52.1693 69.3967 52.6453C69.6674 53.1119 69.8027 53.6346 69.8027 54.2133C69.8027 54.8666 69.616 55.4499 69.2427 55.9633C68.8787 56.4766 68.3374 56.8406 67.6187 57.0553L69.8867 60.9473H67.1847ZM64.5667 55.5433H66.0507C66.4894 55.5433 66.816 55.4359 67.0307 55.2213C67.2547 55.0066 67.3667 54.7033 67.3667 54.3113C67.3667 53.9379 67.2547 53.6439 67.0307 53.4293C66.816 53.2146 66.4894 53.1073 66.0507 53.1073H64.5667V55.5433ZM73.6995 53.0373V55.0253H76.9055V56.8733H73.6995V59.0293H77.3255V60.9473H71.3055V51.1193H77.3255V53.0373H73.6995ZM84.1985 51.1193V56.9993C84.1985 57.5873 84.3432 58.0399 84.6325 58.3573C84.9218 58.6746 85.3465 58.8333 85.9065 58.8333C86.4665 58.8333 86.8958 58.6746 87.1945 58.3573C87.4932 58.0399 87.6425 57.5873 87.6425 56.9993V51.1193H90.0365V56.9853C90.0365 57.8626 89.8498 58.6046 89.4765 59.2113C89.1032 59.8179 88.5992 60.2753 87.9645 60.5833C87.3392 60.8913 86.6392 61.0453 85.8645 61.0453C85.0898 61.0453 84.3945 60.8959 83.7785 60.5973C83.1718 60.2893 82.6912 59.8319 82.3365 59.2253C81.9818 58.6093 81.8045 57.8626 81.8045 56.9853V51.1193H84.1985ZM95.2736 61.0453C94.5549 61.0453 93.9109 60.9286 93.3416 60.6953C92.7723 60.4619 92.3149 60.1166 91.9696 59.6593C91.6336 59.2019 91.4563 58.6513 91.4376 58.0073H93.9856C94.0229 58.3713 94.1489 58.6513 94.3636 58.8473C94.5783 59.0339 94.8583 59.1273 95.2036 59.1273C95.5583 59.1273 95.8383 59.0479 96.0436 58.8893C96.2489 58.7213 96.3516 58.4926 96.3516 58.2033C96.3516 57.9606 96.2676 57.7599 96.0996 57.6013C95.9409 57.4426 95.7403 57.3119 95.4976 57.2093C95.2643 57.1066 94.9283 56.9899 94.4896 56.8593C93.8549 56.6633 93.3369 56.4673 92.9356 56.2713C92.5343 56.0753 92.1889 55.7859 91.8996 55.4033C91.6103 55.0206 91.4656 54.5213 91.4656 53.9053C91.4656 52.9906 91.7969 52.2766 92.4596 51.7633C93.1223 51.2406 93.9856 50.9793 95.0496 50.9793C96.1323 50.9793 97.0049 51.2406 97.6676 51.7633C98.3303 52.2766 98.6849 52.9953 98.7316 53.9193H96.1416C96.1229 53.6019 96.0063 53.3546 95.7916 53.1773C95.5769 52.9906 95.3016 52.8973 94.9656 52.8973C94.6763 52.8973 94.4429 52.9766 94.2656 53.1353C94.0883 53.2846 93.9996 53.5039 93.9996 53.7933C93.9996 54.1106 94.1489 54.3579 94.4476 54.5353C94.7463 54.7126 95.2129 54.9039 95.8476 55.1093C96.4823 55.3239 96.9956 55.5293 97.3876 55.7253C97.7889 55.9213 98.1343 56.2059 98.4236 56.5793C98.7129 56.9526 98.8576 57.4333 98.8576 58.0213C98.8576 58.5813 98.7129 59.0899 98.4236 59.5473C98.1436 60.0046 97.7329 60.3686 97.1916 60.6393C96.6503 60.9099 96.0109 61.0453 95.2736 61.0453ZM29.3066 71.1193V80.9473H26.9126V75.0533L24.7146 80.9473H22.7826L20.5706 75.0393V80.9473H18.1766V71.1193H21.0046L23.7626 77.9233L26.4926 71.1193H29.3066ZM35.6762 81.0453C34.7522 81.0453 33.9028 80.8306 33.1282 80.4013C32.3628 79.9719 31.7515 79.3746 31.2942 78.6093C30.8462 77.8346 30.6222 76.9666 30.6222 76.0053C30.6222 75.0439 30.8462 74.1806 31.2942 73.4153C31.7515 72.6499 32.3628 72.0526 33.1282 71.6233C33.9028 71.1939 34.7522 70.9793 35.6762 70.9793C36.6002 70.9793 37.4448 71.1939 38.2102 71.6233C38.9848 72.0526 39.5915 72.6499 40.0302 73.4153C40.4782 74.1806 40.7022 75.0439 40.7022 76.0053C40.7022 76.9666 40.4782 77.8346 40.0302 78.6093C39.5822 79.3746 38.9755 79.9719 38.2102 80.4013C37.4448 80.8306 36.6002 81.0453 35.6762 81.0453ZM35.6762 78.8613C36.4602 78.8613 37.0855 78.5999 37.5522 78.0773C38.0282 77.5546 38.2662 76.8639 38.2662 76.0053C38.2662 75.1373 38.0282 74.4466 37.5522 73.9333C37.0855 73.4106 36.4602 73.1493 35.6762 73.1493C34.8828 73.1493 34.2482 73.4059 33.7722 73.9193C33.3055 74.4326 33.0722 75.1279 33.0722 76.0053C33.0722 76.8733 33.3055 77.5686 33.7722 78.0913C34.2482 78.6046 34.8828 78.8613 35.6762 78.8613ZM47.046 80.9473L45.002 77.2373H44.428V80.9473H42.034V71.1193H46.052C46.8267 71.1193 47.4847 71.2546 48.026 71.5253C48.5767 71.7959 48.9873 72.1693 49.258 72.6453C49.5287 73.1119 49.664 73.6346 49.664 74.2133C49.664 74.8666 49.4773 75.4499 49.104 75.9633C48.74 76.4766 48.1987 76.8406 47.48 77.0553L49.748 80.9473H47.046ZM44.428 75.5433H45.912C46.3507 75.5433 46.6773 75.4359 46.892 75.2213C47.116 75.0066 47.228 74.7033 47.228 74.3113C47.228 73.9379 47.116 73.6439 46.892 73.4293C46.6773 73.2146 46.3507 73.1073 45.912 73.1073H44.428V75.5433ZM53.5608 73.0373V75.0253H56.7668V76.8733H53.5608V79.0293H57.1868V80.9473H51.1668V71.1193H57.1868V73.0373H53.5608Z" fill="white"/>
<circle cx="65.6055" cy="64.9473" r="64.4473" stroke="#434343" stroke-opacity="0.7"/>
<g clip-path="url(#clip0_3_7)">
<path d="M115.91 61.2188V69.073H115.66L115.024 69.0737H114.774V68.8237L114.775 63.162L104.22 73.7168L103.412 72.9089L113.967 62.3541L108.305 62.3548H108.055V62.1048L108.056 61.4688V61.2188H115.91Z" fill="#E6AF2E" stroke="#E6AF2E" stroke-width="0.5"/>
</g>
<defs>
<clipPath id="clip0_3_7">
<rect width="20.25" height="12" fill="white" transform="translate(98.2363 70.5615) rotate(-45)"/>
</clipPath>
</defs>
</svg>
