<svg width="131" height="110" viewBox="0 0 131 110" fill="none" xmlns="http://www.w3.org/2000/svg">
<path d="M114.311 38.6741H16.2201C14.9182 38.6741 13.8564 39.7491 13.8564 41.0671V91.7134C13.8564 93.0315 14.9182 94.1064 16.2201 94.1064H58.3413V103.258H49.4638C48.8129 103.258 48.282 103.795 48.282 104.454C48.282 105.113 48.8129 105.651 49.4638 105.651H81.0774C81.7284 105.651 82.2593 105.113 82.2593 104.454C82.2593 103.795 81.7284 103.258 81.0774 103.258H72.2V94.1064H114.321C115.623 94.1064 116.685 93.0314 116.685 91.7134L116.689 41.0671C116.689 39.749 115.628 38.6741 114.326 38.6741H114.311ZM69.8262 103.259H60.6901V94.1071H69.8262V103.259ZM72.1898 91.7141H16.2201V41.0678H114.311V91.7141H72.1898Z" fill="url(#paint0_linear_963_728)"/>
<defs>
<linearGradient id="paint0_linear_963_728" x1="65.2729" y1="38.6741" x2="65.2729" y2="105.651" gradientUnits="userSpaceOnUse">
<stop stop-color="#E3E4DB"/>
<stop offset="1" stop-color="#E6CD88"/>
</linearGradient>
</defs>
</svg>
