<svg width="101" height="77" viewBox="0 0 101 77" fill="none" xmlns="http://www.w3.org/2000/svg">
<path d="M66.785 58.0101L54.6567 32.3528C54.4041 31.8169 53.8653 31.4761 53.2744 31.4761H20.3629C19.7705 31.4761 19.2332 31.8185 18.9806 32.3528L6.73442 58.2619C6.60737 58.529 6.57216 58.8223 6.60737 59.1078C6.60431 59.1293 6.58594 59.1401 6.58594 59.1585V61.0301C6.58594 61.0454 6.59971 61.0547 6.60125 61.0654V68.6408C6.60125 70.3359 7.97435 71.7115 9.66278 71.7115H64.0051C65.6935 71.7115 67.0666 70.3359 67.0666 68.6408V61.0301V59.1831V59.1585C67.0666 59.137 67.0483 59.1263 67.0437 59.1048C67.0513 59.0418 67.0804 58.985 67.0804 58.919C67.0804 58.5797 66.9717 58.2649 66.785 58.0101ZM21.3303 34.5468H52.3039L63.0989 57.3852H10.5369L21.3303 34.5468ZM9.66125 68.6408V60.4543H64.0036L64.0066 68.6408H9.66125Z" fill="url(#paint0_linear_963_730)"/>
<path d="M55.941 67.1961C56.4051 67.1961 56.7814 66.8187 56.7814 66.3532C56.7814 65.8876 56.4051 65.5103 55.941 65.5103C55.4768 65.5103 55.1006 65.8876 55.1006 66.3532C55.1006 66.8187 55.4768 67.1961 55.941 67.1961Z" fill="url(#paint1_linear_963_730)"/>
<path d="M58.5054 67.1961C58.9696 67.1961 59.3458 66.8187 59.3458 66.3532C59.3458 65.8876 58.9696 65.5103 58.5054 65.5103C58.0413 65.5103 57.665 65.8876 57.665 66.3532C57.665 66.8187 58.0413 67.1961 58.5054 67.1961Z" fill="url(#paint2_linear_963_730)"/>
<path d="M61.0709 67.1961C61.535 67.1961 61.9113 66.8187 61.9113 66.3532C61.9113 65.8876 61.535 65.5103 61.0709 65.5103C60.6067 65.5103 60.2305 65.8876 60.2305 66.3532C60.2305 66.8187 60.6067 67.1961 61.0709 67.1961Z" fill="url(#paint3_linear_963_730)"/>
<path d="M78.2691 27.5149C77.1776 27.5149 76.2959 28.4008 76.2959 29.497C76.2959 30.5933 77.1776 31.4761 78.2691 31.4761C79.3636 31.4761 80.2453 30.5933 80.2453 29.497C80.2453 28.4008 79.362 27.5149 78.2691 27.5149Z" fill="url(#paint4_linear_963_730)"/>
<path d="M85.5845 27.5149C84.49 27.5149 83.6113 28.4008 83.6113 29.497C83.6113 30.5933 84.49 31.4761 85.5845 31.4761C86.679 31.4761 87.5576 30.5933 87.5576 29.497C87.5576 28.4008 86.679 27.5149 85.5845 27.5149Z" fill="url(#paint5_linear_963_730)"/>
<path d="M88.6804 6.3562H75.1698C72.4328 6.3562 70.207 8.58861 70.207 11.3323V66.7325C70.207 69.4792 72.4328 71.7101 75.1698 71.7101H88.6804C91.4174 71.7101 93.6431 69.4792 93.6431 66.7325V11.3338C93.6446 8.58861 91.4174 6.3562 88.6804 6.3562ZM90.5831 66.734C90.5831 67.7872 89.7289 68.6409 88.6819 68.6409H75.1713C74.1227 68.6409 73.2701 67.7857 73.2701 66.734V11.3338C73.2701 10.2836 74.1243 9.42844 75.1713 9.42844H88.6819C89.7305 9.42844 90.5831 10.2852 90.5831 11.3338V66.734Z" fill="url(#paint6_linear_963_730)"/>
<path d="M81.9257 11.6562C78.0069 11.6562 74.8184 14.8544 74.8184 18.7849C74.8184 22.7169 78.0069 25.9151 81.9257 25.9151C85.8445 25.9151 89.0331 22.7169 89.0331 18.7849C89.0331 14.8544 85.8445 11.6562 81.9257 11.6562ZM81.9257 22.8444C79.6954 22.8444 77.8799 21.0234 77.8799 18.7849C77.8799 16.5479 79.6954 14.727 81.9257 14.727C84.156 14.727 85.9715 16.5479 85.9715 18.7849C85.9715 21.0234 84.156 22.8444 81.9257 22.8444Z" fill="url(#paint7_linear_963_730)"/>
<defs>
<linearGradient id="paint0_linear_963_730" x1="36.8332" y1="31.4761" x2="36.8332" y2="71.7115" gradientUnits="userSpaceOnUse">
<stop stop-color="#E3E4DB"/>
<stop offset="1" stop-color="#E6CD88"/>
</linearGradient>
<linearGradient id="paint1_linear_963_730" x1="55.941" y1="65.5103" x2="55.941" y2="67.1961" gradientUnits="userSpaceOnUse">
<stop stop-color="#E3E4DB"/>
<stop offset="1" stop-color="#E6CD88"/>
</linearGradient>
<linearGradient id="paint2_linear_963_730" x1="58.5054" y1="65.5103" x2="58.5054" y2="67.1961" gradientUnits="userSpaceOnUse">
<stop stop-color="#E3E4DB"/>
<stop offset="1" stop-color="#E6CD88"/>
</linearGradient>
<linearGradient id="paint3_linear_963_730" x1="61.0709" y1="65.5103" x2="61.0709" y2="67.1961" gradientUnits="userSpaceOnUse">
<stop stop-color="#E3E4DB"/>
<stop offset="1" stop-color="#E6CD88"/>
</linearGradient>
<linearGradient id="paint4_linear_963_730" x1="78.2706" y1="27.5149" x2="78.2706" y2="31.4761" gradientUnits="userSpaceOnUse">
<stop stop-color="#E3E4DB"/>
<stop offset="1" stop-color="#E6CD88"/>
</linearGradient>
<linearGradient id="paint5_linear_963_730" x1="85.5845" y1="27.5149" x2="85.5845" y2="31.4761" gradientUnits="userSpaceOnUse">
<stop stop-color="#E3E4DB"/>
<stop offset="1" stop-color="#E6CD88"/>
</linearGradient>
<linearGradient id="paint6_linear_963_730" x1="81.9251" y1="6.3562" x2="81.9251" y2="71.7101" gradientUnits="userSpaceOnUse">
<stop stop-color="#E3E4DB"/>
<stop offset="1" stop-color="#E6CD88"/>
</linearGradient>
<linearGradient id="paint7_linear_963_730" x1="81.9257" y1="11.6562" x2="81.9257" y2="25.9151" gradientUnits="userSpaceOnUse">
<stop stop-color="#E3E4DB"/>
<stop offset="1" stop-color="#E6CD88"/>
</linearGradient>
</defs>
</svg>
