<svg width="73" height="93" viewBox="0 0 73 93" fill="none" xmlns="http://www.w3.org/2000/svg">
<path d="M47.1934 4.70557C49.8655 4.70581 52.0439 6.8802 52.0439 9.54834V22.4741H55.6924C58.6956 22.4741 61.1604 24.696 61.5928 27.5728H64.6758C66.2607 27.5728 67.5457 28.8542 67.5459 30.437V36.5942C67.5459 38.1772 66.2608 39.4595 64.6758 39.4595H61.6895V62.2759C61.6895 65.5781 58.9998 68.2622 55.6924 68.2622H52.0439V81.188C52.0439 83.8561 49.8655 86.0305 47.1934 86.0308H24.8008C22.1284 86.0308 19.9502 83.8563 19.9502 81.188V68.2622H16.3008C12.9934 68.262 10.3037 65.5784 10.3037 62.271V28.4604C10.3037 25.1583 12.9935 22.4743 16.3008 22.4741H19.9502V9.54834C19.9502 6.88004 22.1284 4.70557 24.8008 4.70557H47.1934ZM21.7275 81.188C21.7275 82.8771 23.1077 84.2554 24.8008 84.2554H47.1934C48.8863 84.2551 50.2656 82.8769 50.2656 81.188V68.2622H21.7275V81.188ZM16.3008 24.2485C13.9727 24.2487 12.0821 26.1366 12.082 28.4595V62.2759C12.082 64.5988 13.9727 66.4866 16.3008 66.4868H55.6924C58.0206 66.4868 59.9111 64.5989 59.9111 62.2759V28.4595C59.9111 26.1365 58.0206 24.2486 55.6924 24.2485H16.3008ZM61.6895 37.6841H64.6758C65.276 37.6841 65.7673 37.1934 65.7676 36.5952V30.437C65.7673 29.8388 65.276 29.3481 64.6758 29.3481H61.6895V37.6841ZM24.8008 6.48096C23.1077 6.48096 21.7275 7.85827 21.7275 9.54736V22.4731H50.2656V9.54736C50.2656 7.85842 48.8863 6.48121 47.1934 6.48096H24.8008Z" fill="url(#paint0_linear_963_722)" stroke="url(#paint1_linear_963_722)" stroke-width="0.4"/>
<path d="M28.1543 30.1722C28.5288 30.058 28.9434 30.2224 29.1367 30.5687L29.1748 30.6459V30.6469L35.3213 45.1332L45.2305 41.8939L45.3125 41.8715C45.6999 41.7868 46.0992 41.9883 46.2607 42.35L46.291 42.4301V42.431L46.3145 42.514C46.3989 42.9045 46.196 43.2989 45.834 43.4594L45.7539 43.4896L35.1123 46.9662L35.1094 46.9672C35.0249 46.9931 34.9348 47.0052 34.8506 47.0052C34.5239 47.0052 34.2093 46.8107 34.0771 46.4945V46.4955L27.6289 31.3021L27.5986 31.2211C27.4706 30.8142 27.676 30.3724 28.0732 30.2015H28.0742L28.1543 30.1722Z" fill="url(#paint2_linear_963_722)" stroke="url(#paint3_linear_963_722)" stroke-width="0.3"/>
<defs>
<linearGradient id="paint0_linear_963_722" x1="38.925" y1="4.90576" x2="38.925" y2="85.8305" gradientUnits="userSpaceOnUse">
<stop stop-color="#E3E4DB"/>
<stop offset="1" stop-color="#E6CD88"/>
</linearGradient>
<linearGradient id="paint1_linear_963_722" x1="38.925" y1="4.90576" x2="38.925" y2="85.8305" gradientUnits="userSpaceOnUse">
<stop stop-color="#E3E4DB"/>
<stop offset="1" stop-color="#E6CD88"/>
</linearGradient>
<linearGradient id="paint2_linear_963_722" x1="36.947" y1="30.2865" x2="36.947" y2="46.8557" gradientUnits="userSpaceOnUse">
<stop stop-color="#E3E4DB"/>
<stop offset="1" stop-color="#E6CD88"/>
</linearGradient>
<linearGradient id="paint3_linear_963_722" x1="36.947" y1="30.2865" x2="36.947" y2="46.8557" gradientUnits="userSpaceOnUse">
<stop stop-color="#E3E4DB"/>
<stop offset="1" stop-color="#E6CD88"/>
</linearGradient>
</defs>
</svg>
