<svg width="83" height="102" viewBox="0 0 83 102" fill="none" xmlns="http://www.w3.org/2000/svg">
<path d="M28.568 26.3591C27.9157 26.3591 27.3857 25.8272 27.3857 25.1726V14.085C27.3857 13.4304 27.9157 12.8986 28.568 12.8986C29.2202 12.8986 29.7502 13.4304 29.7502 14.085V25.1726C29.7473 25.8272 29.2202 26.3591 28.568 26.3591Z" fill="url(#paint0_linear_963_740)"/>
<path d="M23.4943 18.7317H17.1871C16.5319 18.7317 16.0049 18.1999 16.0049 17.5453C16.0049 16.8877 16.5319 16.3588 17.1871 16.3588H23.4972C24.1495 16.3588 24.6794 16.8877 24.6794 17.5453C24.6794 18.1999 24.1495 18.7317 23.4972 18.7317H23.4943Z" fill="url(#paint1_linear_963_740)"/>
<path d="M67.8261 82.2712H14.6424C12.5924 82.2682 10.9297 80.5995 10.9268 78.5421L10.9297 12.4597C10.9297 10.4023 12.5924 8.73351 14.6424 8.73059L67.8261 8.73351C69.8761 8.73351 71.5388 10.4023 71.5418 12.4597V78.5421C71.5388 80.5995 69.8761 82.2682 67.8261 82.2712ZM14.6424 11.1036C13.8969 11.1036 13.2942 11.7114 13.2913 12.4596V78.542C13.2942 79.2902 13.8969 79.898 14.6424 79.898H67.8261C68.5716 79.898 69.1743 79.2902 69.1772 78.542V12.4596C69.1743 11.7114 68.5716 11.1036 67.8261 11.1036H14.6424Z" fill="url(#paint2_linear_963_740)"/>
<path d="M70.3246 26.3591H12.1471C11.4948 26.3591 10.9648 25.8272 10.9648 25.1726C10.9648 24.518 11.4948 23.9861 12.1471 23.9861H70.3246C70.9798 23.9861 71.5068 24.518 71.5068 25.1726C71.5068 25.8272 70.9797 26.3591 70.3246 26.3591Z" fill="url(#paint3_linear_963_740)"/>
<path d="M61.1812 21.2627C59.6845 21.2627 58.3333 20.3568 57.7597 18.9656C57.186 17.5775 57.5034 15.9789 58.5634 14.9151C59.6204 13.8513 61.2132 13.5327 62.5993 14.1085C63.9825 14.6842 64.8852 16.0402 64.8852 17.5424V17.5453C64.8823 19.5969 63.2254 21.2597 61.1812 21.2627ZM61.1812 16.1981C60.6396 16.1981 60.1504 16.5254 59.9407 17.0281C59.7339 17.5307 59.8475 18.1094 60.2319 18.4951C60.6133 18.8809 61.1899 18.9949 61.6936 18.7874C62.1945 18.5799 62.5206 18.0889 62.5206 17.5453C62.5206 16.8001 61.9208 16.201 61.1812 16.1981Z" fill="url(#paint4_linear_963_740)"/>
<path d="M51.6824 21.2627H35.2242C34.5719 21.2598 34.042 20.7308 34.042 20.0762V15.0146C34.042 14.6989 34.1643 14.3979 34.3856 14.1729C34.6098 13.9508 34.9097 13.8281 35.2242 13.8281H51.6824C51.9969 13.8251 52.2968 13.9508 52.5181 14.1729C52.7394 14.3979 52.8646 14.6989 52.8646 15.0146V20.0762C52.8646 20.7309 52.3346 21.2598 51.6824 21.2627ZM36.4065 18.8897H50.503L50.5001 16.1981H36.4066L36.4065 18.8897Z" fill="url(#paint5_linear_963_740)"/>
<path d="M41.2347 72.1017C36.2203 72.1017 31.4096 70.1027 27.8627 66.5461C24.3189 62.9865 22.3242 58.1586 22.3242 53.1258C22.3242 48.0933 24.3189 43.2652 27.8627 39.7055C31.4094 36.1489 36.22 34.1499 41.2347 34.1499C46.2494 34.1499 51.0598 36.1489 54.6067 39.7055C58.1505 43.265 60.1452 48.093 60.1452 53.1258C60.1393 58.1583 58.1447 62.9804 54.6008 66.5401C51.0541 70.0967 46.2494 72.0987 41.2347 72.1017ZM41.2347 36.5182V36.5212C36.8464 36.5212 32.6389 38.2717 29.5348 41.3841C26.4335 44.4995 24.6893 48.7224 24.6893 53.1263C24.6893 57.5304 26.4335 61.7532 29.5348 64.8685C32.6389 67.9809 36.8466 69.7315 41.2347 69.7315C45.6227 69.7315 49.8305 67.9809 52.9346 64.8685C56.0358 61.7531 57.7801 57.5302 57.7801 53.1263C57.7742 48.7251 56.0299 44.5024 52.9288 41.3894C49.8276 38.2763 45.6198 36.5264 41.2341 36.5206L41.2347 36.5182Z" fill="url(#paint6_linear_963_740)"/>
<path d="M41.2346 66.6304C37.6675 66.6304 34.2431 65.2072 31.7211 62.6734C29.1965 60.1425 27.7812 56.7057 27.7812 53.1255C27.7812 49.5453 29.1964 46.1087 31.7211 43.5776C34.2428 41.0439 37.6673 39.6206 41.2346 39.6206C44.8019 39.6206 48.2262 41.0438 50.7481 43.5776C53.2727 46.1085 54.688 49.5453 54.688 53.1255C54.6851 56.7055 53.267 60.1394 50.7452 62.6704C48.2235 65.2012 44.8018 66.6246 41.2346 66.6304ZM41.2346 41.9939C38.2936 41.9939 35.4719 43.1658 33.3924 45.2554C31.3104 47.342 30.1427 50.1738 30.1427 53.1259C30.1427 56.0775 31.3104 58.9094 33.3924 60.9986C35.4716 63.0853 38.2932 64.2572 41.2346 64.2572C44.1786 64.2572 46.9974 63.0824 49.079 60.9957C51.1582 58.9091 52.3259 56.0772 52.3259 53.1252V53.1223C52.323 50.1735 51.1524 47.3446 49.0732 45.2577C46.9941 43.1711 44.1754 41.9963 41.234 41.9934L41.2346 41.9939Z" fill="url(#paint7_linear_963_740)"/>
<path d="M46.6799 55.1366C44.2513 55.1366 41.9043 54.2774 39.8776 53.5292C39.336 53.3305 38.8234 53.1435 38.3285 52.9769C32.9414 51.1767 30.0964 54.4732 29.9771 54.6164C29.5462 55.0577 28.8502 55.0898 28.3756 54.6953C27.9039 54.2979 27.8136 53.6053 28.1689 53.0997C28.5707 52.6204 32.3038 48.4705 39.0771 50.7354C39.6041 50.9107 40.1312 51.1065 40.6903 51.3111C43.6838 52.41 46.7821 53.5439 49.6649 52.0767V52.0797C50.2472 51.7845 50.9578 52.0154 51.2548 52.5999C51.5489 53.1843 51.3159 53.8974 50.7335 54.1926C49.4785 54.8297 48.0863 55.1512 46.6799 55.1366Z" fill="url(#paint8_linear_963_740)"/>
<defs>
<linearGradient id="paint0_linear_963_740" x1="28.568" y1="12.8986" x2="28.568" y2="26.3591" gradientUnits="userSpaceOnUse">
<stop stop-color="#E3E4DB"/>
<stop offset="1" stop-color="#E6CD88"/>
</linearGradient>
<linearGradient id="paint1_linear_963_740" x1="20.3422" y1="16.3588" x2="20.3422" y2="18.7317" gradientUnits="userSpaceOnUse">
<stop stop-color="#E3E4DB"/>
<stop offset="1" stop-color="#E6CD88"/>
</linearGradient>
<linearGradient id="paint2_linear_963_740" x1="41.2343" y1="8.73059" x2="41.2343" y2="82.2712" gradientUnits="userSpaceOnUse">
<stop stop-color="#E3E4DB"/>
<stop offset="1" stop-color="#E6CD88"/>
</linearGradient>
<linearGradient id="paint3_linear_963_740" x1="41.2358" y1="23.9861" x2="41.2358" y2="26.3591" gradientUnits="userSpaceOnUse">
<stop stop-color="#E3E4DB"/>
<stop offset="1" stop-color="#E6CD88"/>
</linearGradient>
<linearGradient id="paint4_linear_963_740" x1="61.1814" y1="13.8253" x2="61.1814" y2="21.2627" gradientUnits="userSpaceOnUse">
<stop stop-color="#E3E4DB"/>
<stop offset="1" stop-color="#E6CD88"/>
</linearGradient>
<linearGradient id="paint5_linear_963_740" x1="43.4533" y1="13.828" x2="43.4533" y2="21.2627" gradientUnits="userSpaceOnUse">
<stop stop-color="#E3E4DB"/>
<stop offset="1" stop-color="#E6CD88"/>
</linearGradient>
<linearGradient id="paint6_linear_963_740" x1="41.2347" y1="34.1499" x2="41.2347" y2="72.1017" gradientUnits="userSpaceOnUse">
<stop stop-color="#E3E4DB"/>
<stop offset="1" stop-color="#E6CD88"/>
</linearGradient>
<linearGradient id="paint7_linear_963_740" x1="41.2346" y1="39.6206" x2="41.2346" y2="66.6304" gradientUnits="userSpaceOnUse">
<stop stop-color="#E3E4DB"/>
<stop offset="1" stop-color="#E6CD88"/>
</linearGradient>
<linearGradient id="paint8_linear_963_740" x1="39.6671" y1="50.0637" x2="39.6671" y2="55.137" gradientUnits="userSpaceOnUse">
<stop stop-color="#E3E4DB"/>
<stop offset="1" stop-color="#E6CD88"/>
</linearGradient>
</defs>
</svg>
