<svg width="420" height="403" viewBox="0 0 420 403" fill="none" xmlns="http://www.w3.org/2000/svg">
<circle cx="201.5" cy="201.5" r="200.5" stroke="url(#paint0_linear_60_486)" stroke-width="2"/>
<circle cx="318" cy="45.3628" r="30" fill="#DCE9EE"/>
<circle cx="389.66" cy="148.981" r="30" fill="#DCE9EE"/>
<circle cx="388.66" cy="270.672" r="30" fill="#DCE9EE"/>
<circle cx="318" cy="368.003" r="30" fill="#DCE9EE"/>
<mask id="path-6-outside-1_60_486" maskUnits="userSpaceOnUse" x="299.57" y="25.7974" width="44" height="44" fill="black">
<rect fill="white" x="299.57" y="25.7974" width="44" height="44"/>
<path fill-rule="evenodd" clip-rule="evenodd" d="M311.863 58.3008C312.131 58.443 312.236 58.7784 312.093 59.0501C311.952 59.3198 311.618 59.4256 311.349 59.2816C310.218 58.6837 309.159 57.9308 308.217 57.0631L305.057 58.1149C304.142 58.4193 303.161 58.0402 302.679 57.2034L300.844 53.9988C300.363 53.1602 300.531 52.112 301.248 51.4685L303.729 49.2428C303.26 47.1081 303.26 44.8897 303.729 42.7552L301.248 40.5294C300.536 39.8914 300.357 38.8286 300.844 37.9992L302.681 34.7963C303.163 33.9578 304.144 33.5804 305.059 33.8849L308.219 34.9367C309.818 33.4619 311.718 32.3518 313.799 31.6919L314.473 28.418C314.668 27.4682 315.485 26.7974 316.447 26.7974H320.12C321.079 26.7974 321.898 27.4664 322.094 28.418L322.767 31.6919C324.848 32.3518 326.748 33.462 328.347 34.9367L331.508 33.8849C332.422 33.5804 333.402 33.956 333.885 34.7999L335.722 38.0028C336.204 38.8414 336.035 39.8877 335.318 40.5312L332.837 42.757L333.067 44.0877C333.105 44.3903 332.891 44.6674 332.591 44.7057C332.29 44.744 332.015 44.5289 331.977 44.2263C331.93 43.8526 331.801 43.0852 331.703 42.7279C331.64 42.5255 331.694 42.2958 331.863 42.1464L334.588 39.7018C334.92 39.4047 334.992 38.938 334.773 38.5534L332.936 35.3505C332.717 34.9695 332.275 34.8 331.857 34.9385L328.387 36.0925C328.193 36.1563 327.98 36.1071 327.833 35.9649C327.036 35.1956 326.147 34.523 325.183 33.9615C324.24 33.4128 323.225 32.9734 322.161 32.6599C321.965 32.6088 321.804 32.4484 321.76 32.2351L321.02 28.6385C320.931 28.2047 320.567 27.9076 320.125 27.9076H316.447C316.005 27.9076 315.641 28.2047 315.552 28.6385L314.811 32.2351C314.771 32.4302 314.628 32.5961 314.425 32.6562C313.355 32.9698 312.337 33.4109 311.388 33.9615C310.434 34.5156 309.554 35.181 308.764 35.9393C308.623 36.0961 308.398 36.1617 308.184 36.0925L304.716 34.9385C304.296 34.7982 303.858 34.9677 303.637 35.3523L301.8 38.5552C301.581 38.9398 301.655 39.4047 301.985 39.7L304.711 42.1445C304.863 42.2812 304.926 42.4909 304.879 42.6896C304.488 44.3084 304.387 46.0055 304.584 47.668C304.649 48.2185 304.745 48.7526 304.87 49.2703C304.934 49.4727 304.877 49.7024 304.711 49.8518L301.985 52.2964C301.655 52.5935 301.579 53.0675 301.8 53.4412L303.637 56.6422C303.861 57.025 304.296 57.1964 304.716 57.056L308.184 55.9021C308.378 55.8383 308.592 55.8875 308.739 56.0297C309.666 56.9321 310.718 57.6938 311.863 58.3008ZM322.11 63.2974C322.373 63.1461 322.71 63.2373 322.86 63.5016C323.01 63.7659 322.92 64.105 322.657 64.2563L314.745 68.8555C314.482 69.0068 314.145 68.9157 313.995 68.6513C313.845 68.387 313.935 68.0479 314.198 67.8967L322.11 63.2974ZM320.339 60.2094L310.681 65.822C310.418 65.9733 310.327 66.3124 310.478 66.5767C310.628 66.841 310.965 66.9322 311.227 66.7809L320.886 61.1683C321.149 61.017 321.239 60.6779 321.089 60.4136C320.938 60.1474 320.602 60.0563 320.339 60.2094ZM318.568 57.1214L310.655 61.7206C310.393 61.8719 310.302 62.211 310.453 62.4753C310.603 62.7396 310.94 62.8308 311.202 62.6795L319.115 58.0802C319.377 57.9289 319.468 57.5899 319.318 57.3255C319.167 57.0594 318.83 56.9682 318.568 57.1214ZM329.965 49.7294L321.866 54.4362C320.924 54.9393 320.592 56.2153 321.163 57.1122L323.834 61.7698C324.327 62.6922 325.517 63.0367 326.444 62.499L334.579 57.7721L335.02 58.5413C335.815 59.9268 337.778 59.7518 338.395 58.37L342.26 49.7404C342.791 48.5537 342.021 47.1846 340.717 47.0534L331.359 46.1055C329.861 45.9542 328.731 47.5784 329.526 48.9639L329.965 49.7294ZM330.477 48.4078L331.193 49.6547C331.345 49.919 331.256 50.2581 330.992 50.4112L322.382 55.4152C322.005 55.6413 321.868 56.128 322.089 56.5145L324.804 61.2451C325.024 61.6279 325.517 61.7591 325.896 61.5404L334.503 56.5363C334.766 56.3832 335.103 56.4725 335.255 56.7387L335.97 57.9855C336.311 58.5671 337.124 58.5051 337.389 57.9145L341.253 49.2848C341.482 48.7726 341.145 48.2093 340.607 48.1546L331.249 47.2067C330.611 47.1411 330.144 47.8244 330.477 48.4078ZM318.283 37.8238C313.797 37.8238 310.162 41.4842 310.162 45.9979C310.162 50.5133 313.799 54.172 318.283 54.172C322.768 54.172 326.404 50.5116 326.404 45.9979C326.404 41.4842 322.768 37.8238 318.283 37.8238ZM323.246 41.0048C320.505 38.2467 316.063 38.2467 313.321 41.0048C310.581 43.7628 310.581 48.2344 313.321 50.9924C316.061 53.7504 320.504 53.7504 323.246 50.9924C325.986 48.2343 325.986 43.7628 323.246 41.0048Z"/>
</mask>
<path fill-rule="evenodd" clip-rule="evenodd" d="M311.863 58.3008C312.131 58.443 312.236 58.7784 312.093 59.0501C311.952 59.3198 311.618 59.4256 311.349 59.2816C310.218 58.6837 309.159 57.9308 308.217 57.0631L305.057 58.1149C304.142 58.4193 303.161 58.0402 302.679 57.2034L300.844 53.9988C300.363 53.1602 300.531 52.112 301.248 51.4685L303.729 49.2428C303.26 47.1081 303.26 44.8897 303.729 42.7552L301.248 40.5294C300.536 39.8914 300.357 38.8286 300.844 37.9992L302.681 34.7963C303.163 33.9578 304.144 33.5804 305.059 33.8849L308.219 34.9367C309.818 33.4619 311.718 32.3518 313.799 31.6919L314.473 28.418C314.668 27.4682 315.485 26.7974 316.447 26.7974H320.12C321.079 26.7974 321.898 27.4664 322.094 28.418L322.767 31.6919C324.848 32.3518 326.748 33.462 328.347 34.9367L331.508 33.8849C332.422 33.5804 333.402 33.956 333.885 34.7999L335.722 38.0028C336.204 38.8414 336.035 39.8877 335.318 40.5312L332.837 42.757L333.067 44.0877C333.105 44.3903 332.891 44.6674 332.591 44.7057C332.29 44.744 332.015 44.5289 331.977 44.2263C331.93 43.8526 331.801 43.0852 331.703 42.7279C331.64 42.5255 331.694 42.2958 331.863 42.1464L334.588 39.7018C334.92 39.4047 334.992 38.938 334.773 38.5534L332.936 35.3505C332.717 34.9695 332.275 34.8 331.857 34.9385L328.387 36.0925C328.193 36.1563 327.98 36.1071 327.833 35.9649C327.036 35.1956 326.147 34.523 325.183 33.9615C324.24 33.4128 323.225 32.9734 322.161 32.6599C321.965 32.6088 321.804 32.4484 321.76 32.2351L321.02 28.6385C320.931 28.2047 320.567 27.9076 320.125 27.9076H316.447C316.005 27.9076 315.641 28.2047 315.552 28.6385L314.811 32.2351C314.771 32.4302 314.628 32.5961 314.425 32.6562C313.355 32.9698 312.337 33.4109 311.388 33.9615C310.434 34.5156 309.554 35.181 308.764 35.9393C308.623 36.0961 308.398 36.1617 308.184 36.0925L304.716 34.9385C304.296 34.7982 303.858 34.9677 303.637 35.3523L301.8 38.5552C301.581 38.9398 301.655 39.4047 301.985 39.7L304.711 42.1445C304.863 42.2812 304.926 42.4909 304.879 42.6896C304.488 44.3084 304.387 46.0055 304.584 47.668C304.649 48.2185 304.745 48.7526 304.87 49.2703C304.934 49.4727 304.877 49.7024 304.711 49.8518L301.985 52.2964C301.655 52.5935 301.579 53.0675 301.8 53.4412L303.637 56.6422C303.861 57.025 304.296 57.1964 304.716 57.056L308.184 55.9021C308.378 55.8383 308.592 55.8875 308.739 56.0297C309.666 56.9321 310.718 57.6938 311.863 58.3008ZM322.11 63.2974C322.373 63.1461 322.71 63.2373 322.86 63.5016C323.01 63.7659 322.92 64.105 322.657 64.2563L314.745 68.8555C314.482 69.0068 314.145 68.9157 313.995 68.6513C313.845 68.387 313.935 68.0479 314.198 67.8967L322.11 63.2974ZM320.339 60.2094L310.681 65.822C310.418 65.9733 310.327 66.3124 310.478 66.5767C310.628 66.841 310.965 66.9322 311.227 66.7809L320.886 61.1683C321.149 61.017 321.239 60.6779 321.089 60.4136C320.938 60.1474 320.602 60.0563 320.339 60.2094ZM318.568 57.1214L310.655 61.7206C310.393 61.8719 310.302 62.211 310.453 62.4753C310.603 62.7396 310.94 62.8308 311.202 62.6795L319.115 58.0802C319.377 57.9289 319.468 57.5899 319.318 57.3255C319.167 57.0594 318.83 56.9682 318.568 57.1214ZM329.965 49.7294L321.866 54.4362C320.924 54.9393 320.592 56.2153 321.163 57.1122L323.834 61.7698C324.327 62.6922 325.517 63.0367 326.444 62.499L334.579 57.7721L335.02 58.5413C335.815 59.9268 337.778 59.7518 338.395 58.37L342.26 49.7404C342.791 48.5537 342.021 47.1846 340.717 47.0534L331.359 46.1055C329.861 45.9542 328.731 47.5784 329.526 48.9639L329.965 49.7294ZM330.477 48.4078L331.193 49.6547C331.345 49.919 331.256 50.2581 330.992 50.4112L322.382 55.4152C322.005 55.6413 321.868 56.128 322.089 56.5145L324.804 61.2451C325.024 61.6279 325.517 61.7591 325.896 61.5404L334.503 56.5363C334.766 56.3832 335.103 56.4725 335.255 56.7387L335.97 57.9855C336.311 58.5671 337.124 58.5051 337.389 57.9145L341.253 49.2848C341.482 48.7726 341.145 48.2093 340.607 48.1546L331.249 47.2067C330.611 47.1411 330.144 47.8244 330.477 48.4078ZM318.283 37.8238C313.797 37.8238 310.162 41.4842 310.162 45.9979C310.162 50.5133 313.799 54.172 318.283 54.172C322.768 54.172 326.404 50.5116 326.404 45.9979C326.404 41.4842 322.768 37.8238 318.283 37.8238ZM323.246 41.0048C320.505 38.2467 316.063 38.2467 313.321 41.0048C310.581 43.7628 310.581 48.2344 313.321 50.9924C316.061 53.7504 320.504 53.7504 323.246 50.9924C325.986 48.2343 325.986 43.7628 323.246 41.0048Z" fill="#011E4D"/>
<path fill-rule="evenodd" clip-rule="evenodd" d="M311.863 58.3008C312.131 58.443 312.236 58.7784 312.093 59.0501C311.952 59.3198 311.618 59.4256 311.349 59.2816C310.218 58.6837 309.159 57.9308 308.217 57.0631L305.057 58.1149C304.142 58.4193 303.161 58.0402 302.679 57.2034L300.844 53.9988C300.363 53.1602 300.531 52.112 301.248 51.4685L303.729 49.2428C303.26 47.1081 303.26 44.8897 303.729 42.7552L301.248 40.5294C300.536 39.8914 300.357 38.8286 300.844 37.9992L302.681 34.7963C303.163 33.9578 304.144 33.5804 305.059 33.8849L308.219 34.9367C309.818 33.4619 311.718 32.3518 313.799 31.6919L314.473 28.418C314.668 27.4682 315.485 26.7974 316.447 26.7974H320.12C321.079 26.7974 321.898 27.4664 322.094 28.418L322.767 31.6919C324.848 32.3518 326.748 33.462 328.347 34.9367L331.508 33.8849C332.422 33.5804 333.402 33.956 333.885 34.7999L335.722 38.0028C336.204 38.8414 336.035 39.8877 335.318 40.5312L332.837 42.757L333.067 44.0877C333.105 44.3903 332.891 44.6674 332.591 44.7057C332.29 44.744 332.015 44.5289 331.977 44.2263C331.93 43.8526 331.801 43.0852 331.703 42.7279C331.64 42.5255 331.694 42.2958 331.863 42.1464L334.588 39.7018C334.92 39.4047 334.992 38.938 334.773 38.5534L332.936 35.3505C332.717 34.9695 332.275 34.8 331.857 34.9385L328.387 36.0925C328.193 36.1563 327.98 36.1071 327.833 35.9649C327.036 35.1956 326.147 34.523 325.183 33.9615C324.24 33.4128 323.225 32.9734 322.161 32.6599C321.965 32.6088 321.804 32.4484 321.76 32.2351L321.02 28.6385C320.931 28.2047 320.567 27.9076 320.125 27.9076H316.447C316.005 27.9076 315.641 28.2047 315.552 28.6385L314.811 32.2351C314.771 32.4302 314.628 32.5961 314.425 32.6562C313.355 32.9698 312.337 33.4109 311.388 33.9615C310.434 34.5156 309.554 35.181 308.764 35.9393C308.623 36.0961 308.398 36.1617 308.184 36.0925L304.716 34.9385C304.296 34.7982 303.858 34.9677 303.637 35.3523L301.8 38.5552C301.581 38.9398 301.655 39.4047 301.985 39.7L304.711 42.1445C304.863 42.2812 304.926 42.4909 304.879 42.6896C304.488 44.3084 304.387 46.0055 304.584 47.668C304.649 48.2185 304.745 48.7526 304.87 49.2703C304.934 49.4727 304.877 49.7024 304.711 49.8518L301.985 52.2964C301.655 52.5935 301.579 53.0675 301.8 53.4412L303.637 56.6422C303.861 57.025 304.296 57.1964 304.716 57.056L308.184 55.9021C308.378 55.8383 308.592 55.8875 308.739 56.0297C309.666 56.9321 310.718 57.6938 311.863 58.3008ZM322.11 63.2974C322.373 63.1461 322.71 63.2373 322.86 63.5016C323.01 63.7659 322.92 64.105 322.657 64.2563L314.745 68.8555C314.482 69.0068 314.145 68.9157 313.995 68.6513C313.845 68.387 313.935 68.0479 314.198 67.8967L322.11 63.2974ZM320.339 60.2094L310.681 65.822C310.418 65.9733 310.327 66.3124 310.478 66.5767C310.628 66.841 310.965 66.9322 311.227 66.7809L320.886 61.1683C321.149 61.017 321.239 60.6779 321.089 60.4136C320.938 60.1474 320.602 60.0563 320.339 60.2094ZM318.568 57.1214L310.655 61.7206C310.393 61.8719 310.302 62.211 310.453 62.4753C310.603 62.7396 310.94 62.8308 311.202 62.6795L319.115 58.0802C319.377 57.9289 319.468 57.5899 319.318 57.3255C319.167 57.0594 318.83 56.9682 318.568 57.1214ZM329.965 49.7294L321.866 54.4362C320.924 54.9393 320.592 56.2153 321.163 57.1122L323.834 61.7698C324.327 62.6922 325.517 63.0367 326.444 62.499L334.579 57.7721L335.02 58.5413C335.815 59.9268 337.778 59.7518 338.395 58.37L342.26 49.7404C342.791 48.5537 342.021 47.1846 340.717 47.0534L331.359 46.1055C329.861 45.9542 328.731 47.5784 329.526 48.9639L329.965 49.7294ZM330.477 48.4078L331.193 49.6547C331.345 49.919 331.256 50.2581 330.992 50.4112L322.382 55.4152C322.005 55.6413 321.868 56.128 322.089 56.5145L324.804 61.2451C325.024 61.6279 325.517 61.7591 325.896 61.5404L334.503 56.5363C334.766 56.3832 335.103 56.4725 335.255 56.7387L335.97 57.9855C336.311 58.5671 337.124 58.5051 337.389 57.9145L341.253 49.2848C341.482 48.7726 341.145 48.2093 340.607 48.1546L331.249 47.2067C330.611 47.1411 330.144 47.8244 330.477 48.4078ZM318.283 37.8238C313.797 37.8238 310.162 41.4842 310.162 45.9979C310.162 50.5133 313.799 54.172 318.283 54.172C322.768 54.172 326.404 50.5116 326.404 45.9979C326.404 41.4842 322.768 37.8238 318.283 37.8238ZM323.246 41.0048C320.505 38.2467 316.063 38.2467 313.321 41.0048C310.581 43.7628 310.581 48.2344 313.321 50.9924C316.061 53.7504 320.504 53.7504 323.246 50.9924C325.986 48.2343 325.986 43.7628 323.246 41.0048Z" stroke="#011E4D" stroke-width="0.4" mask="url(#path-6-outside-1_60_486)"/>
<path d="M394.448 146.019V146.069H394.498H398.816C399.142 146.069 399.409 146.34 399.409 146.676V151.949C399.409 152.285 399.142 152.556 398.816 152.556H394.498H394.448V152.606V157.021C394.448 157.356 394.181 157.628 393.855 157.628H388.697C388.371 157.628 388.104 157.356 388.104 157.021V152.606V152.556H388.054H383.735C383.41 152.556 383.143 152.285 383.143 151.949V146.676C383.143 146.34 383.41 146.069 383.735 146.069H388.054H388.104V146.019V141.605C388.104 141.269 388.371 140.998 388.697 140.998H393.855C394.181 140.998 394.448 141.269 394.448 141.605V146.019ZM393.263 142.262V142.212H393.213H389.339H389.289V142.262V146.676C389.289 147.012 389.022 147.283 388.697 147.283H384.378H384.328V147.333V151.292V151.342H384.378H388.697C389.022 151.342 389.289 151.614 389.289 151.949V156.364V156.414H389.339H393.213H393.263V156.364V151.949C393.263 151.614 393.53 151.342 393.855 151.342H398.174H398.224V151.292V147.333V147.283H398.174H393.855C393.53 147.283 393.263 147.012 393.263 146.676V142.262ZM390.95 171.452L390.949 171.451C380.82 164.966 374.611 152.817 372.866 140.351L372.866 140.351C372.828 140.086 372.973 139.829 373.193 139.72L391.018 131.018L391.018 131.018L391.018 131.018C391.185 130.933 391.374 130.941 391.525 131.018L391.525 131.018L391.526 131.018L409.351 139.72L409.352 139.721C409.601 139.837 409.732 140.116 409.678 140.39L409.678 140.39L409.678 140.393C408.723 147.168 406.558 153.388 403.495 158.664L403.495 158.664C400.367 164.057 396.285 168.465 391.587 171.468C391.382 171.592 391.139 171.584 390.95 171.452ZM380.074 158.04L380.074 158.04C383.036 163.134 386.857 167.318 391.248 170.213L391.276 170.231L391.303 170.213C400.837 163.935 406.677 152.447 408.45 140.652L408.456 140.615L408.423 140.599L391.298 132.251L391.276 132.24L391.254 132.251L374.129 140.608L374.096 140.624L374.102 140.66C375.067 147.102 377.154 153.013 380.074 158.04Z" fill="#011E4D" stroke="#011E4D" stroke-width="0.1"/>
<path d="M386.679 289.2C386.968 287.886 387.256 286.571 387.544 285.257C388.056 282.922 388.568 280.588 389.08 278.253C389.295 277.27 389.511 276.287 389.726 275.304C389.835 274.808 389.497 274.307 388.955 274.307C387.22 274.307 385.485 274.307 383.751 274.307C382.294 274.307 380.838 274.307 379.381 274.307C379.611 274.702 379.842 275.097 380.072 275.492C380.567 274.745 381.063 273.998 381.558 273.25C382.727 271.488 383.895 269.725 385.064 267.963C386.429 265.903 387.794 263.844 389.159 261.785C390.244 260.148 391.329 258.512 392.414 256.875C392.761 256.352 393.108 255.829 393.454 255.306C392.967 255.104 392.48 254.902 391.992 254.699C391.704 256.014 391.416 257.328 391.128 258.642C390.616 260.975 390.104 263.309 389.592 265.642C389.377 266.625 389.161 267.608 388.946 268.59C388.837 269.087 389.175 269.587 389.717 269.587C391.455 269.587 393.193 269.587 394.931 269.587C396.39 269.587 397.849 269.587 399.308 269.587C399.078 269.192 398.847 268.797 398.617 268.402C398.121 269.15 397.625 269.897 397.129 270.645C395.959 272.408 394.789 274.171 393.619 275.934C392.252 277.994 390.885 280.053 389.518 282.113C388.432 283.75 387.345 285.387 386.259 287.025C385.912 287.548 385.565 288.071 385.218 288.594C384.979 288.953 385.143 289.462 385.505 289.671C385.895 289.896 386.361 289.747 386.599 289.389C387.095 288.641 387.591 287.894 388.087 287.146C389.257 285.383 390.427 283.62 391.597 281.857C392.964 279.797 394.331 277.738 395.698 275.678C396.784 274.041 397.871 272.403 398.957 270.766C399.304 270.243 399.651 269.72 399.999 269.197C400.336 268.689 399.891 268.012 399.308 268.012C397.57 268.012 395.832 268.012 394.094 268.012C392.635 268.012 391.176 268.012 389.717 268.012C389.974 268.345 390.231 268.677 390.488 269.009C390.776 267.695 391.064 266.381 391.353 265.067C391.865 262.733 392.376 260.4 392.888 258.066C393.104 257.084 393.319 256.101 393.535 255.118C393.611 254.77 393.49 254.415 393.167 254.229C392.777 254.004 392.311 254.153 392.073 254.511C391.578 255.259 391.082 256.006 390.587 256.753C389.418 258.516 388.25 260.278 387.081 262.041C385.716 264.1 384.351 266.159 382.986 268.218C381.901 269.855 380.816 271.492 379.731 273.129C379.384 273.651 379.037 274.174 378.691 274.697C378.354 275.205 378.798 275.882 379.381 275.882C381.116 275.882 382.851 275.882 384.586 275.882C386.042 275.882 387.499 275.882 388.955 275.882C388.698 275.55 388.441 275.218 388.184 274.885C387.896 276.2 387.607 277.514 387.319 278.829C386.807 281.163 386.295 283.498 385.784 285.832C385.568 286.815 385.353 287.799 385.137 288.782C385.045 289.201 385.258 289.632 385.696 289.75C386.098 289.859 386.587 289.62 386.679 289.2Z" fill="#011E4D"/>
<path d="M325.996 379.697H309.817C308.245 379.697 306.965 378.411 306.965 376.832V360.585C306.965 359.005 308.245 357.72 309.817 357.72H325.996C327.568 357.72 328.848 359.006 328.848 360.585V376.832C328.848 378.411 327.568 379.697 325.996 379.697ZM309.817 359.143C309.026 359.143 308.382 359.79 308.382 360.585V376.832C308.382 377.627 309.026 378.274 309.817 378.274H325.996C326.787 378.274 327.431 377.627 327.431 376.832V360.585C327.431 359.79 326.787 359.143 325.996 359.143H309.817Z" fill="black"/>
<path d="M322.582 374.116H313.23C312.838 374.116 312.521 373.798 312.521 373.405V364.013C312.521 363.62 312.838 363.302 313.23 363.302H322.582C322.973 363.302 323.29 363.62 323.29 364.013V373.405C323.29 373.798 322.973 374.116 322.582 374.116ZM313.938 372.693H321.873V364.724H313.938V372.693Z" fill="black"/>
<path d="M311.17 383.378C310.779 383.378 310.462 383.06 310.462 382.666V378.985C310.462 378.592 310.779 378.274 311.17 378.274C311.562 378.274 311.879 378.592 311.879 378.985V382.666C311.879 383.059 311.562 383.378 311.17 383.378Z" fill="black"/>
<path d="M311.17 359.143C310.779 359.143 310.462 358.825 310.462 358.432V354.751C310.462 354.357 310.779 354.039 311.17 354.039C311.562 354.039 311.879 354.357 311.879 354.751V358.432C311.879 358.825 311.562 359.143 311.17 359.143Z" fill="black"/>
<path d="M315.661 383.378C315.269 383.378 314.952 383.06 314.952 382.666V378.985C314.952 378.592 315.269 378.274 315.661 378.274C316.052 378.274 316.369 378.592 316.369 378.985V382.666C316.369 383.059 316.052 383.378 315.661 383.378Z" fill="black"/>
<path d="M315.661 359.143C315.269 359.143 314.952 358.825 314.952 358.432V354.751C314.952 354.357 315.269 354.039 315.661 354.039C316.052 354.039 316.369 354.357 316.369 354.751V358.432C316.369 358.825 316.052 359.143 315.661 359.143Z" fill="black"/>
<path d="M320.152 383.378C319.76 383.378 319.443 383.06 319.443 382.666V378.985C319.443 378.592 319.76 378.274 320.152 378.274C320.544 378.274 320.86 378.592 320.86 378.985V382.666C320.86 383.059 320.544 383.378 320.152 383.378Z" fill="black"/>
<path d="M320.152 359.143C319.76 359.143 319.443 358.825 319.443 358.432V354.751C319.443 354.357 319.76 354.039 320.152 354.039C320.544 354.039 320.86 354.357 320.86 354.751V358.432C320.86 358.825 320.544 359.143 320.152 359.143Z" fill="black"/>
<path d="M324.643 383.378C324.252 383.378 323.935 383.06 323.935 382.666V378.985C323.935 378.592 324.251 378.274 324.643 378.274C325.035 378.274 325.352 378.592 325.352 378.985V382.666C325.352 383.059 325.035 383.378 324.643 383.378Z" fill="black"/>
<path d="M324.643 359.143C324.252 359.143 323.935 358.825 323.935 358.432V354.751C323.935 354.357 324.251 354.039 324.643 354.039C325.035 354.039 325.352 354.357 325.352 354.751V358.432C325.352 358.825 325.035 359.143 324.643 359.143Z" fill="black"/>
<path d="M307.673 362.655H304.007C303.616 362.655 303.299 362.337 303.299 361.944C303.299 361.551 303.616 361.232 304.007 361.232H307.673C308.064 361.232 308.381 361.551 308.381 361.944C308.381 362.337 308.064 362.655 307.673 362.655Z" fill="black"/>
<path d="M331.805 362.655H328.139C327.748 362.655 327.431 362.337 327.431 361.944C327.431 361.551 327.747 361.232 328.139 361.232H331.805C332.196 361.232 332.513 361.551 332.513 361.944C332.513 362.337 332.196 362.655 331.805 362.655Z" fill="black"/>
<path d="M307.673 367.165H304.007C303.616 367.165 303.299 366.847 303.299 366.454C303.299 366.061 303.616 365.742 304.007 365.742H307.673C308.064 365.742 308.381 366.061 308.381 366.454C308.381 366.847 308.064 367.165 307.673 367.165Z" fill="black"/>
<path d="M331.805 367.165H328.139C327.748 367.165 327.431 366.847 327.431 366.454C327.431 366.061 327.747 365.742 328.139 365.742H331.805C332.196 365.742 332.513 366.061 332.513 366.454C332.513 366.847 332.196 367.165 331.805 367.165Z" fill="black"/>
<path d="M307.673 371.675H304.007C303.616 371.675 303.299 371.357 303.299 370.964C303.299 370.57 303.616 370.252 304.007 370.252H307.673C308.064 370.252 308.381 370.57 308.381 370.964C308.381 371.357 308.064 371.675 307.673 371.675Z" fill="black"/>
<path d="M331.805 371.675H328.139C327.748 371.675 327.431 371.357 327.431 370.964C327.431 370.57 327.747 370.252 328.139 370.252H331.805C332.196 370.252 332.513 370.57 332.513 370.964C332.513 371.357 332.196 371.675 331.805 371.675Z" fill="black"/>
<path d="M307.673 376.184H304.007C303.616 376.184 303.299 375.866 303.299 375.473C303.299 375.08 303.616 374.761 304.007 374.761H307.673C308.064 374.761 308.381 375.08 308.381 375.473C308.381 375.866 308.064 376.184 307.673 376.184Z" fill="black"/>
<path d="M331.805 376.184H328.139C327.748 376.184 327.431 375.866 327.431 375.473C327.431 375.08 327.747 374.761 328.139 374.761H331.805C332.196 374.761 332.513 375.08 332.513 375.473C332.513 375.866 332.196 376.184 331.805 376.184Z" fill="black"/>
<defs>
<linearGradient id="paint0_linear_60_486" x1="403" y1="201.5" x2="0" y2="201.5" gradientUnits="userSpaceOnUse">
<stop stop-color="#A4ACB9"/>
<stop offset="0.548077" stop-color="white" stop-opacity="0"/>
</linearGradient>
</defs>
</svg>
