<svg width="621" height="403" viewBox="0 0 621 403" fill="none" xmlns="http://www.w3.org/2000/svg">
<path opacity="0.9" d="M357.727 51.8628V39.1802H362.244C364.626 39.1802 366.313 40.8237 366.313 43.2319V43.2495C366.313 45.6577 364.626 47.3364 362.244 47.3364H359.309V51.8628H357.727ZM361.84 40.5864H359.309V45.9302H361.84C363.65 45.9302 364.696 44.937 364.696 43.2671V43.2495C364.696 41.5796 363.65 40.5864 361.84 40.5864ZM371.218 52.0386C368.59 52.0386 367.008 50.2017 367.008 47.3276V47.3188C367.008 44.4888 368.625 42.5464 371.121 42.5464C373.617 42.5464 375.138 44.4009 375.138 47.1431V47.7056H368.555C368.59 49.5864 369.627 50.6851 371.253 50.6851C372.413 50.6851 373.23 50.105 373.494 49.3228L373.521 49.2437H375.023L375.006 49.3315C374.707 50.8433 373.213 52.0386 371.218 52.0386ZM371.112 43.8999C369.785 43.8999 368.748 44.8052 368.581 46.5103H373.582C373.433 44.7349 372.448 43.8999 371.112 43.8999ZM376.685 51.8628V42.7222H378.214V44.269H378.249C378.557 43.2144 379.348 42.5464 380.376 42.5464C380.64 42.5464 380.868 42.5903 380.991 42.6079V44.0933C380.868 44.0493 380.543 44.0054 380.174 44.0054C378.987 44.0054 378.214 44.8315 378.214 46.2202V51.8628H376.685ZM382.731 51.8628V43.9878H381.457V42.7222H382.731V41.5972C382.731 39.8394 383.549 39.0044 385.236 39.0044C385.579 39.0044 385.939 39.0308 386.168 39.0659V40.3052C385.983 40.2788 385.746 40.27 385.509 40.27C384.665 40.27 384.243 40.7007 384.243 41.606V42.7222H386.124V43.9878H384.261V51.8628H382.731ZM390.615 52.0386C388.075 52.0386 386.379 50.2017 386.379 47.2925V47.2749C386.379 44.3657 388.084 42.5464 390.606 42.5464C393.129 42.5464 394.843 44.3569 394.843 47.2749V47.2925C394.843 50.2104 393.138 52.0386 390.615 52.0386ZM390.624 50.6851C392.232 50.6851 393.278 49.437 393.278 47.2925V47.2749C393.278 45.1304 392.224 43.8999 390.606 43.8999C389.016 43.8999 387.943 45.1392 387.943 47.2749V47.2925C387.943 49.4458 389.007 50.6851 390.624 50.6851ZM396.39 51.8628V42.7222H397.919V44.269H397.954C398.262 43.2144 399.053 42.5464 400.081 42.5464C400.345 42.5464 400.573 42.5903 400.696 42.6079V44.0933C400.573 44.0493 400.248 44.0054 399.879 44.0054C398.692 44.0054 397.919 44.8315 397.919 46.2202V51.8628H396.39ZM401.944 51.8628V42.7222H403.474V44.0581H403.509C403.922 43.1528 404.836 42.5464 406.014 42.5464C407.262 42.5464 408.185 43.188 408.58 44.3042H408.615C409.125 43.2056 410.197 42.5464 411.48 42.5464C413.291 42.5464 414.46 43.7329 414.46 45.5522V51.8628H412.931V45.9038C412.931 44.647 412.236 43.8999 411.032 43.8999C409.819 43.8999 408.967 44.8052 408.967 46.0532V51.8628H407.438V45.7368C407.438 44.6294 406.699 43.8999 405.565 43.8999C404.353 43.8999 403.474 44.8579 403.474 46.1323V51.8628H401.944ZM419.083 52.0386C417.264 52.0386 416.042 50.9399 416.042 49.2788V49.2612C416.042 47.7056 417.255 46.73 419.355 46.6069L421.975 46.4575V45.6929C421.975 44.5767 421.245 43.8999 419.971 43.8999C418.793 43.8999 418.055 44.4624 417.879 45.2798L417.861 45.3589H416.385L416.394 45.2622C416.525 43.7593 417.835 42.5464 419.988 42.5464C422.15 42.5464 423.504 43.7153 423.504 45.5435V51.8628H421.975V50.3774H421.939C421.403 51.3794 420.305 52.0386 419.083 52.0386ZM417.606 49.2788C417.606 50.1577 418.327 50.7114 419.426 50.7114C420.867 50.7114 421.975 49.7183 421.975 48.3911V47.644L419.531 47.7935C418.31 47.8638 417.606 48.4087 417.606 49.2612V49.2788ZM425.446 51.8628V42.7222H426.976V44.0229H427.011C427.503 43.1704 428.435 42.5464 429.823 42.5464C431.827 42.5464 432.987 43.8472 432.987 45.9302V51.8628H431.458V46.2026C431.458 44.7173 430.764 43.8999 429.357 43.8999C427.916 43.8999 426.976 44.9282 426.976 46.4839V51.8628H425.446ZM438.727 52.0386C436.134 52.0386 434.49 50.1929 434.49 47.2837V47.2749C434.49 44.3921 436.169 42.5464 438.709 42.5464C440.985 42.5464 442.33 44.0581 442.523 45.6226L442.532 45.6929H441.038L441.021 45.6226C440.792 44.7085 440.054 43.8999 438.709 43.8999C437.118 43.8999 436.055 45.2183 436.055 47.2925V47.3013C436.055 49.4282 437.145 50.6851 438.727 50.6851C439.975 50.6851 440.774 49.9819 441.029 48.9624L441.047 48.8921H442.55L442.541 48.9536C442.295 50.6938 440.792 52.0386 438.727 52.0386ZM447.718 52.0386C445.09 52.0386 443.508 50.2017 443.508 47.3276V47.3188C443.508 44.4888 445.125 42.5464 447.621 42.5464C450.117 42.5464 451.638 44.4009 451.638 47.1431V47.7056H445.055C445.09 49.5864 446.127 50.6851 447.753 50.6851C448.913 50.6851 449.73 50.105 449.994 49.3228L450.021 49.2437H451.523L451.506 49.3315C451.207 50.8433 449.713 52.0386 447.718 52.0386ZM447.612 43.8999C446.285 43.8999 445.248 44.8052 445.081 46.5103H450.082C449.933 44.7349 448.948 43.8999 447.612 43.8999ZM460.857 52.0737C458.353 52.0737 456.604 50.5972 456.604 48.4878V48.479C456.604 46.9849 457.43 45.8511 459.1 44.9634L459.565 44.7173C458.476 43.4956 458.01 42.7134 458.001 41.7993V41.7905C458.001 40.1733 459.372 38.9692 461.2 38.9692C463.055 38.9692 464.408 40.1382 464.408 41.7817V41.7905C464.408 43.0386 463.688 43.9526 461.692 45.0425L464.812 48.3823C465.226 47.4858 465.437 46.3696 465.437 45.0601V44.6821H466.896V45.0688C466.896 46.8267 466.518 48.312 465.823 49.4546L468.021 51.8101V51.8628H466.087L464.927 50.5884C463.907 51.5552 462.527 52.0737 460.857 52.0737ZM459.495 41.8696C459.495 42.564 459.926 43.1265 460.866 44.146C462.422 43.3198 462.932 42.7046 462.932 41.8521V41.8433C462.932 40.8765 462.229 40.2085 461.209 40.2085C460.216 40.2085 459.495 40.894 459.495 41.8608V41.8696ZM458.168 48.3823C458.168 49.7974 459.311 50.7554 460.998 50.7554C462.272 50.7554 463.274 50.3423 464.004 49.5864L460.436 45.6665L460.022 45.895C458.687 46.6597 458.168 47.4067 458.168 48.3735V48.3823ZM472.846 51.8628V39.1802H480.703V40.604H474.428V44.6733H480.378V46.0796H474.428V50.439H480.703V51.8628H472.846ZM483.05 51.8628V43.9878H481.775V42.7222H483.05V41.5972C483.05 39.8394 483.867 39.0044 485.555 39.0044C485.897 39.0044 486.258 39.0308 486.486 39.0659V40.3052C486.302 40.2788 486.064 40.27 485.827 40.27C484.983 40.27 484.562 40.7007 484.562 41.606V42.7222H486.442V43.9878H484.579V51.8628H483.05ZM488.517 51.8628V43.9878H487.242V42.7222H488.517V41.5972C488.517 39.8394 489.334 39.0044 491.021 39.0044C491.364 39.0044 491.725 39.0308 491.953 39.0659V40.3052C491.769 40.2788 491.531 40.27 491.294 40.27C490.45 40.27 490.028 40.7007 490.028 41.606V42.7222H491.909V43.9878H490.046V51.8628H488.517ZM494.353 41.1753C493.825 41.1753 493.395 40.7446 493.395 40.2173C493.395 39.6812 493.825 39.2593 494.353 39.2593C494.889 39.2593 495.311 39.6812 495.311 40.2173C495.311 40.7446 494.889 41.1753 494.353 41.1753ZM493.588 51.8628V42.7222H495.117V51.8628H493.588ZM500.988 52.0386C498.396 52.0386 496.752 50.1929 496.752 47.2837V47.2749C496.752 44.3921 498.431 42.5464 500.971 42.5464C503.247 42.5464 504.592 44.0581 504.785 45.6226L504.794 45.6929H503.3L503.282 45.6226C503.054 44.7085 502.315 43.8999 500.971 43.8999C499.38 43.8999 498.316 45.2183 498.316 47.2925V47.3013C498.316 49.4282 499.406 50.6851 500.988 50.6851C502.236 50.6851 503.036 49.9819 503.291 48.9624L503.309 48.8921H504.812L504.803 48.9536C504.557 50.6938 503.054 52.0386 500.988 52.0386ZM507.079 41.1753C506.552 41.1753 506.121 40.7446 506.121 40.2173C506.121 39.6812 506.552 39.2593 507.079 39.2593C507.615 39.2593 508.037 39.6812 508.037 40.2173C508.037 40.7446 507.615 41.1753 507.079 41.1753ZM506.314 51.8628V42.7222H507.844V51.8628H506.314ZM513.688 52.0386C511.061 52.0386 509.479 50.2017 509.479 47.3276V47.3188C509.479 44.4888 511.096 42.5464 513.592 42.5464C516.088 42.5464 517.608 44.4009 517.608 47.1431V47.7056H511.025C511.061 49.5864 512.098 50.6851 513.724 50.6851C514.884 50.6851 515.701 50.105 515.965 49.3228L515.991 49.2437H517.494L517.477 49.3315C517.178 50.8433 515.684 52.0386 513.688 52.0386ZM513.583 43.8999C512.256 43.8999 511.219 44.8052 511.052 46.5103H516.053C515.903 44.7349 514.919 43.8999 513.583 43.8999ZM519.155 51.8628V42.7222H520.685V44.0229H520.72C521.212 43.1704 522.144 42.5464 523.532 42.5464C525.536 42.5464 526.696 43.8472 526.696 45.9302V51.8628H525.167V46.2026C525.167 44.7173 524.473 43.8999 523.066 43.8999C521.625 43.8999 520.685 44.9282 520.685 46.4839V51.8628H519.155ZM532.436 52.0386C529.843 52.0386 528.199 50.1929 528.199 47.2837V47.2749C528.199 44.3921 529.878 42.5464 532.418 42.5464C534.694 42.5464 536.039 44.0581 536.232 45.6226L536.241 45.6929H534.747L534.729 45.6226C534.501 44.7085 533.763 43.8999 532.418 43.8999C530.827 43.8999 529.764 45.2183 529.764 47.2925V47.3013C529.764 49.4282 530.854 50.6851 532.436 50.6851C533.684 50.6851 534.483 49.9819 534.738 48.9624L534.756 48.8921H536.259L536.25 48.9536C536.004 50.6938 534.501 52.0386 532.436 52.0386ZM538.544 54.939C538.245 54.939 537.92 54.9038 537.727 54.8687V53.6206C537.858 53.647 538.034 53.6733 538.219 53.6733C539.186 53.6733 539.722 53.4272 540.091 52.3901L540.275 51.8716L536.883 42.7222H538.518L541.04 50.3335H541.075L543.606 42.7222H545.215L541.646 52.4341C540.996 54.1831 540.196 54.939 538.544 54.939Z" fill="#011E4D"/>
<path opacity="0.9" d="M427.23 155.481V142.798H434.93V144.222H428.812V148.582H434.429V149.988H428.812V155.481H427.23ZM438.56 155.657C436.74 155.657 435.519 154.558 435.519 152.897V152.879C435.519 151.324 436.731 150.348 438.832 150.225L441.451 150.076V149.311C441.451 148.195 440.722 147.518 439.447 147.518C438.27 147.518 437.531 148.081 437.355 148.898L437.338 148.977H435.861L435.87 148.88C436.002 147.377 437.312 146.165 439.465 146.165C441.627 146.165 442.98 147.333 442.98 149.162V155.481H441.451V153.996H441.416C440.88 154.998 439.781 155.657 438.56 155.657ZM437.083 152.897C437.083 153.776 437.804 154.33 438.902 154.33C440.344 154.33 441.451 153.336 441.451 152.009V151.262L439.008 151.412C437.786 151.482 437.083 152.027 437.083 152.879V152.897ZM449.467 155.657C448.157 155.657 447.138 154.998 446.566 153.934H446.531V155.481H445.002V142.798H446.531V147.87H446.566C447.138 146.815 448.201 146.165 449.493 146.165C451.787 146.165 453.352 148.019 453.352 150.902V150.911C453.352 153.793 451.805 155.657 449.467 155.657ZM449.168 154.303C450.785 154.303 451.787 153.011 451.787 150.911V150.902C451.787 148.819 450.785 147.518 449.168 147.518C447.63 147.518 446.522 148.863 446.522 150.902V150.911C446.522 152.958 447.621 154.303 449.168 154.303ZM454.89 155.481V146.34H456.419V147.887H456.454C456.762 146.833 457.553 146.165 458.581 146.165C458.845 146.165 459.073 146.208 459.196 146.226V147.711C459.073 147.667 458.748 147.624 458.379 147.624C457.192 147.624 456.419 148.45 456.419 149.838V155.481H454.89ZM461.306 144.793C460.778 144.793 460.348 144.363 460.348 143.835C460.348 143.299 460.778 142.877 461.306 142.877C461.842 142.877 462.264 143.299 462.264 143.835C462.264 144.363 461.842 144.793 461.306 144.793ZM460.541 155.481V146.34H462.07V155.481H460.541ZM467.941 155.657C465.349 155.657 463.705 153.811 463.705 150.902V150.893C463.705 148.01 465.384 146.165 467.924 146.165C470.2 146.165 471.545 147.676 471.738 149.241L471.747 149.311H470.253L470.235 149.241C470.007 148.327 469.269 147.518 467.924 147.518C466.333 147.518 465.27 148.836 465.27 150.911V150.919C465.27 153.046 466.359 154.303 467.941 154.303C469.189 154.303 469.989 153.6 470.244 152.581L470.262 152.51H471.765L471.756 152.572C471.51 154.312 470.007 155.657 467.941 155.657ZM482.399 155.692C478.875 155.692 476.607 153.125 476.607 149.135V149.126C476.607 145.136 478.866 142.587 482.399 142.587C485.036 142.587 487.084 144.187 487.567 146.586L487.585 146.674H485.985L485.924 146.481C485.432 144.943 484.184 144.046 482.399 144.046C479.868 144.046 478.233 146.042 478.233 149.126V149.135C478.233 152.22 479.877 154.233 482.399 154.233C484.175 154.233 485.405 153.354 485.959 151.684L485.985 151.605H487.585L487.567 151.693C487.084 154.119 485.054 155.692 482.399 155.692ZM491.892 155.657C490.072 155.657 488.851 154.558 488.851 152.897V152.879C488.851 151.324 490.063 150.348 492.164 150.225L494.783 150.076V149.311C494.783 148.195 494.054 147.518 492.779 147.518C491.602 147.518 490.863 148.081 490.688 148.898L490.67 148.977H489.193L489.202 148.88C489.334 147.377 490.644 146.165 492.797 146.165C494.959 146.165 496.312 147.333 496.312 149.162V155.481H494.783V153.996H494.748C494.212 154.998 493.113 155.657 491.892 155.657ZM490.415 152.897C490.415 153.776 491.136 154.33 492.234 154.33C493.676 154.33 494.783 153.336 494.783 152.009V151.262L492.34 151.412C491.118 151.482 490.415 152.027 490.415 152.879V152.897ZM498.255 155.481V146.34H499.784V147.887H499.819C500.127 146.833 500.918 146.165 501.946 146.165C502.21 146.165 502.438 146.208 502.562 146.226V147.711C502.438 147.667 502.113 147.624 501.744 147.624C500.558 147.624 499.784 148.45 499.784 149.838V155.481H498.255ZM507.132 155.657C504.504 155.657 502.922 153.82 502.922 150.946V150.937C502.922 148.107 504.539 146.165 507.035 146.165C509.531 146.165 511.052 148.019 511.052 150.761V151.324H504.469C504.504 153.205 505.541 154.303 507.167 154.303C508.327 154.303 509.145 153.723 509.408 152.941L509.435 152.862H510.938L510.92 152.95C510.621 154.461 509.127 155.657 507.132 155.657ZM507.026 147.518C505.699 147.518 504.662 148.423 504.495 150.128H509.496C509.347 148.353 508.362 147.518 507.026 147.518ZM520.271 155.692C517.767 155.692 516.018 154.215 516.018 152.106V152.097C516.018 150.603 516.844 149.469 518.514 148.582L518.979 148.335C517.89 147.114 517.424 146.332 517.415 145.417V145.409C517.415 143.792 518.786 142.587 520.614 142.587C522.469 142.587 523.822 143.756 523.822 145.4V145.409C523.822 146.657 523.102 147.571 521.106 148.661L524.227 152C524.64 151.104 524.851 149.988 524.851 148.678V148.3H526.31V148.687C526.31 150.445 525.932 151.93 525.237 153.073L527.435 155.428V155.481H525.501L524.341 154.207C523.321 155.173 521.941 155.692 520.271 155.692ZM518.909 145.488C518.909 146.182 519.34 146.745 520.28 147.764C521.836 146.938 522.346 146.323 522.346 145.47V145.461C522.346 144.495 521.643 143.827 520.623 143.827C519.63 143.827 518.909 144.512 518.909 145.479V145.488ZM517.582 152C517.582 153.416 518.725 154.374 520.412 154.374C521.687 154.374 522.688 153.96 523.418 153.205L519.85 149.285L519.437 149.513C518.101 150.278 517.582 151.025 517.582 151.992V152ZM532.26 155.481V142.798H533.842V148.283H540.803V142.798H542.385V155.481H540.803V149.707H533.842V155.481H532.26ZM545.487 158.557C545.188 158.557 544.863 158.522 544.67 158.487V157.239C544.802 157.265 544.978 157.292 545.162 157.292C546.129 157.292 546.665 157.045 547.034 156.008L547.219 155.49L543.826 146.34H545.461L547.983 153.952H548.019L550.55 146.34H552.158L548.59 156.052C547.939 157.801 547.14 158.557 545.487 158.557ZM556.878 158.733C554.619 158.733 553.195 157.669 552.896 156.316L552.879 156.237H554.417L554.452 156.316C554.742 156.975 555.612 157.379 556.86 157.379C558.469 157.379 559.383 156.492 559.383 155.077V153.908H559.348C558.803 154.918 557.748 155.569 556.438 155.569C554.136 155.569 552.562 153.714 552.562 150.858V150.849C552.562 148.01 554.153 146.165 556.474 146.165C557.766 146.165 558.785 146.868 559.348 147.887H559.383V146.34H560.912V155.226C560.912 157.344 559.356 158.733 556.878 158.733ZM556.772 154.215C558.328 154.215 559.383 152.888 559.383 150.858V150.849C559.383 148.836 558.319 147.518 556.772 147.518C555.146 147.518 554.127 148.819 554.127 150.849V150.858C554.127 152.932 555.146 154.215 556.772 154.215ZM563.751 144.793C563.224 144.793 562.793 144.363 562.793 143.835C562.793 143.299 563.224 142.877 563.751 142.877C564.287 142.877 564.709 143.299 564.709 143.835C564.709 144.363 564.287 144.793 563.751 144.793ZM562.986 155.481V146.34H564.516V155.481H562.986ZM570.36 155.657C567.732 155.657 566.15 153.82 566.15 150.946V150.937C566.15 148.107 567.768 146.165 570.264 146.165C572.76 146.165 574.28 148.019 574.28 150.761V151.324H567.697C567.732 153.205 568.77 154.303 570.396 154.303C571.556 154.303 572.373 153.723 572.637 152.941L572.663 152.862H574.166L574.148 152.95C573.85 154.461 572.355 155.657 570.36 155.657ZM570.255 147.518C568.928 147.518 567.891 148.423 567.724 150.128H572.725C572.575 148.353 571.591 147.518 570.255 147.518ZM575.827 155.481V146.34H577.356V147.641H577.392C577.884 146.789 578.815 146.165 580.204 146.165C582.208 146.165 583.368 147.465 583.368 149.548V155.481H581.839V149.821C581.839 148.335 581.145 147.518 579.738 147.518C578.297 147.518 577.356 148.546 577.356 150.102V155.481H575.827ZM589.081 155.657C586.453 155.657 584.871 153.82 584.871 150.946V150.937C584.871 148.107 586.488 146.165 588.984 146.165C591.48 146.165 593.001 148.019 593.001 150.761V151.324H586.418C586.453 153.205 587.49 154.303 589.116 154.303C590.276 154.303 591.094 153.723 591.357 152.941L591.384 152.862H592.887L592.869 152.95C592.57 154.461 591.076 155.657 589.081 155.657ZM588.976 147.518C587.648 147.518 586.611 148.423 586.444 150.128H591.445C591.296 148.353 590.312 147.518 588.976 147.518Z" fill="#011E4D"/>
<path opacity="0.9" d="M428.23 277.172V264.489H436.088V265.913H429.812V269.982H435.763V271.389H429.812V275.748H436.088V277.172H428.23ZM437.942 277.172V268.031H439.472V269.332H439.507C439.999 268.479 440.931 267.855 442.319 267.855C444.323 267.855 445.483 269.156 445.483 271.239V277.172H443.954V271.512C443.954 270.026 443.26 269.209 441.854 269.209C440.412 269.209 439.472 270.237 439.472 271.793V277.172H437.942ZM451.196 277.348C448.568 277.348 446.986 275.511 446.986 272.637V272.628C446.986 269.798 448.604 267.855 451.1 267.855C453.596 267.855 455.116 269.71 455.116 272.452V273.015H448.533C448.568 274.896 449.605 275.994 451.231 275.994C452.392 275.994 453.209 275.414 453.473 274.632L453.499 274.553H455.002L454.984 274.641C454.686 276.152 453.191 277.348 451.196 277.348ZM451.091 269.209C449.764 269.209 448.727 270.114 448.56 271.819H453.561C453.411 270.044 452.427 269.209 451.091 269.209ZM456.663 277.172V268.031H458.192V269.578H458.228C458.535 268.523 459.326 267.855 460.354 267.855C460.618 267.855 460.847 267.899 460.97 267.917V269.402C460.847 269.358 460.521 269.314 460.152 269.314C458.966 269.314 458.192 270.141 458.192 271.529V277.172H456.663ZM465.646 280.424C463.387 280.424 461.963 279.36 461.664 278.007L461.646 277.928H463.185L463.22 278.007C463.51 278.666 464.38 279.07 465.628 279.07C467.236 279.07 468.15 278.183 468.15 276.768V275.599H468.115C467.57 276.609 466.516 277.26 465.206 277.26C462.903 277.26 461.33 275.405 461.33 272.549V272.54C461.33 269.701 462.921 267.855 465.241 267.855C466.533 267.855 467.553 268.559 468.115 269.578H468.15V268.031H469.68V276.917C469.68 279.035 468.124 280.424 465.646 280.424ZM465.54 275.906C467.096 275.906 468.15 274.579 468.15 272.549V272.54C468.15 270.527 467.087 269.209 465.54 269.209C463.914 269.209 462.895 270.51 462.895 272.54V272.549C462.895 274.623 463.914 275.906 465.54 275.906ZM472.536 280.248C472.237 280.248 471.912 280.213 471.719 280.178V278.93C471.851 278.956 472.026 278.982 472.211 278.982C473.178 278.982 473.714 278.736 474.083 277.699L474.268 277.181L470.875 268.031H472.51L475.032 275.643H475.067L477.599 268.031H479.207L475.639 277.743C474.988 279.492 474.188 280.248 472.536 280.248ZM488.084 277.383C485.579 277.383 483.83 275.906 483.83 273.797V273.788C483.83 272.294 484.656 271.16 486.326 270.272L486.792 270.026C485.702 268.805 485.236 268.022 485.228 267.108V267.1C485.228 265.482 486.599 264.278 488.427 264.278C490.281 264.278 491.635 265.447 491.635 267.091V267.1C491.635 268.348 490.914 269.262 488.919 270.352L492.039 273.691C492.452 272.795 492.663 271.679 492.663 270.369V269.991H494.122V270.378C494.122 272.136 493.744 273.621 493.05 274.764L495.247 277.119V277.172H493.313L492.153 275.897C491.134 276.864 489.754 277.383 488.084 277.383ZM486.722 267.179C486.722 267.873 487.152 268.436 488.093 269.455C489.648 268.629 490.158 268.014 490.158 267.161V267.152C490.158 266.186 489.455 265.518 488.436 265.518C487.442 265.518 486.722 266.203 486.722 267.17V267.179ZM485.395 273.691C485.395 275.106 486.537 276.064 488.225 276.064C489.499 276.064 490.501 275.651 491.23 274.896L487.662 270.976L487.249 271.204C485.913 271.969 485.395 272.716 485.395 273.683V273.691ZM502.691 277.172L499.237 264.489H500.89L503.447 274.904H503.482L506.356 264.489H507.956L510.83 274.904H510.865L513.423 264.489H515.075L511.621 277.172H510.127L507.174 267.012H507.139L504.186 277.172H502.691ZM517.905 277.348C516.086 277.348 514.864 276.249 514.864 274.588V274.57C514.864 273.015 516.077 272.039 518.178 271.916L520.797 271.767V271.002C520.797 269.886 520.067 269.209 518.793 269.209C517.615 269.209 516.877 269.771 516.701 270.589L516.684 270.668H515.207L515.216 270.571C515.348 269.068 516.657 267.855 518.811 267.855C520.973 267.855 522.326 269.024 522.326 270.853V277.172H520.797V275.687H520.762C520.226 276.688 519.127 277.348 517.905 277.348ZM516.429 274.588C516.429 275.467 517.149 276.021 518.248 276.021C519.689 276.021 520.797 275.027 520.797 273.7V272.953L518.354 273.103C517.132 273.173 516.429 273.718 516.429 274.57V274.588ZM527.239 277.348C525.561 277.348 524.734 276.592 524.734 274.843V269.297H523.398V268.031H524.734V265.562H526.316V268.031H528.057V269.297H526.316V274.834C526.316 275.81 526.747 276.082 527.564 276.082C527.749 276.082 527.925 276.056 528.057 276.047V277.286C527.863 277.312 527.538 277.348 527.239 277.348ZM533.198 277.348C530.57 277.348 528.988 275.511 528.988 272.637V272.628C528.988 269.798 530.605 267.855 533.102 267.855C535.598 267.855 537.118 269.71 537.118 272.452V273.015H530.535C530.57 274.896 531.607 275.994 533.233 275.994C534.394 275.994 535.211 275.414 535.475 274.632L535.501 274.553H537.004L536.986 274.641C536.688 276.152 535.193 277.348 533.198 277.348ZM533.093 269.209C531.766 269.209 530.729 270.114 530.562 271.819H535.562C535.413 270.044 534.429 269.209 533.093 269.209ZM538.665 277.172V268.031H540.194V269.578H540.229C540.537 268.523 541.328 267.855 542.356 267.855C542.62 267.855 542.849 267.899 542.972 267.917V269.402C542.849 269.358 542.523 269.314 542.154 269.314C540.968 269.314 540.194 270.141 540.194 271.529V277.172H538.665ZM548.148 277.172V264.489H556.006V265.913H549.73V269.982H555.681V271.389H549.73V275.748H556.006V277.172H548.148ZM558.353 277.172V269.297H557.078V268.031H558.353V266.906C558.353 265.148 559.17 264.313 560.857 264.313C561.2 264.313 561.561 264.34 561.789 264.375V265.614C561.604 265.588 561.367 265.579 561.13 265.579C560.286 265.579 559.864 266.01 559.864 266.915V268.031H561.745V269.297H559.882V277.172H558.353ZM563.819 277.172V269.297H562.545V268.031H563.819V266.906C563.819 265.148 564.637 264.313 566.324 264.313C566.667 264.313 567.027 264.34 567.256 264.375V265.614C567.071 265.588 566.834 265.579 566.597 265.579C565.753 265.579 565.331 266.01 565.331 266.915V268.031H567.212V269.297H565.349V277.172H563.819ZM569.655 266.484C569.128 266.484 568.697 266.054 568.697 265.526C568.697 264.99 569.128 264.568 569.655 264.568C570.191 264.568 570.613 264.99 570.613 265.526C570.613 266.054 570.191 266.484 569.655 266.484ZM568.891 277.172V268.031H570.42V277.172H568.891ZM576.291 277.348C573.698 277.348 572.055 275.502 572.055 272.593V272.584C572.055 269.701 573.733 267.855 576.273 267.855C578.55 267.855 579.895 269.367 580.088 270.932L580.097 271.002H578.603L578.585 270.932C578.356 270.018 577.618 269.209 576.273 269.209C574.683 269.209 573.619 270.527 573.619 272.602V272.61C573.619 274.737 574.709 275.994 576.291 275.994C577.539 275.994 578.339 275.291 578.594 274.271L578.611 274.201H580.114L580.105 274.263C579.859 276.003 578.356 277.348 576.291 277.348ZM582.382 266.484C581.854 266.484 581.424 266.054 581.424 265.526C581.424 264.99 581.854 264.568 582.382 264.568C582.918 264.568 583.34 264.99 583.34 265.526C583.34 266.054 582.918 266.484 582.382 266.484ZM581.617 277.172V268.031H583.146V277.172H581.617ZM588.991 277.348C586.363 277.348 584.781 275.511 584.781 272.637V272.628C584.781 269.798 586.398 267.855 588.895 267.855C591.391 267.855 592.911 269.71 592.911 272.452V273.015H586.328C586.363 274.896 587.4 275.994 589.026 275.994C590.187 275.994 591.004 275.414 591.268 274.632L591.294 274.553H592.797L592.779 274.641C592.48 276.152 590.986 277.348 588.991 277.348ZM588.886 269.209C587.559 269.209 586.521 270.114 586.354 271.819H591.355C591.206 270.044 590.222 269.209 588.886 269.209ZM594.458 277.172V268.031H595.987V269.332H596.022C596.515 268.479 597.446 267.855 598.835 267.855C600.839 267.855 601.999 269.156 601.999 271.239V277.172H600.47V271.512C600.47 270.026 599.775 269.209 598.369 269.209C596.928 269.209 595.987 270.237 595.987 271.793V277.172H594.458ZM607.738 277.348C605.146 277.348 603.502 275.502 603.502 272.593V272.584C603.502 269.701 605.181 267.855 607.721 267.855C609.997 267.855 611.342 269.367 611.535 270.932L611.544 271.002H610.05L610.032 270.932C609.804 270.018 609.065 269.209 607.721 269.209C606.13 269.209 605.066 270.527 605.066 272.602V272.61C605.066 274.737 606.156 275.994 607.738 275.994C608.986 275.994 609.786 275.291 610.041 274.271L610.059 274.201H611.562L611.553 274.263C611.307 276.003 609.804 277.348 607.738 277.348ZM613.847 280.248C613.548 280.248 613.223 280.213 613.029 280.178V278.93C613.161 278.956 613.337 278.982 613.521 278.982C614.488 278.982 615.024 278.736 615.394 277.699L615.578 277.181L612.186 268.031H613.82L616.343 275.643H616.378L618.909 268.031H620.518L616.949 277.743C616.299 279.492 615.499 280.248 613.847 280.248Z" fill="#011E4D"/>
<path opacity="0.9" d="M361.875 374.714C359.133 374.714 357.278 373.37 357.12 371.199L357.111 371.076H358.693L358.711 371.199C358.896 372.473 360.126 373.255 361.963 373.255C363.791 373.255 364.942 372.429 364.942 371.12V371.111C364.942 369.995 364.213 369.371 362.473 368.984L361.066 368.676C358.588 368.131 357.428 367.015 357.428 365.161V365.152C357.437 363.069 359.282 361.61 361.893 361.61C364.371 361.61 366.182 363.042 366.322 365.117L366.331 365.249H364.749L364.731 365.125C364.538 363.833 363.457 363.069 361.849 363.069C360.152 363.078 359.045 363.886 359.045 365.108V365.117C359.045 366.154 359.81 366.804 361.462 367.165L362.868 367.472C365.47 368.043 366.56 369.098 366.56 371.032V371.041C366.56 373.291 364.775 374.714 361.875 374.714ZM368.177 374.503V365.363H369.706V366.699H369.741C370.154 365.793 371.068 365.187 372.246 365.187C373.494 365.187 374.417 365.829 374.812 366.945H374.848C375.357 365.846 376.43 365.187 377.713 365.187C379.523 365.187 380.692 366.374 380.692 368.193V374.503H379.163V368.544C379.163 367.288 378.469 366.541 377.265 366.541C376.052 366.541 375.199 367.446 375.199 368.694V374.503H373.67V368.377C373.67 367.27 372.932 366.541 371.798 366.541C370.585 366.541 369.706 367.499 369.706 368.773V374.503H368.177ZM385.315 374.679C383.496 374.679 382.274 373.581 382.274 371.919V371.902C382.274 370.346 383.487 369.371 385.588 369.248L388.207 369.098V368.333C388.207 367.217 387.478 366.541 386.203 366.541C385.025 366.541 384.287 367.103 384.111 367.92L384.094 368H382.617L382.626 367.903C382.758 366.4 384.067 365.187 386.221 365.187C388.383 365.187 389.736 366.356 389.736 368.184V374.503H388.207V373.018H388.172C387.636 374.02 386.537 374.679 385.315 374.679ZM383.839 371.919C383.839 372.798 384.56 373.352 385.658 373.352C387.1 373.352 388.207 372.359 388.207 371.032V370.285L385.764 370.434C384.542 370.504 383.839 371.049 383.839 371.902V371.919ZM391.679 374.503V365.363H393.208V366.91H393.243C393.551 365.855 394.342 365.187 395.37 365.187C395.634 365.187 395.862 365.231 395.985 365.249V366.734C395.862 366.69 395.537 366.646 395.168 366.646C393.981 366.646 393.208 367.472 393.208 368.861V374.503H391.679ZM400.204 374.679C398.525 374.679 397.699 373.923 397.699 372.174V366.628H396.363V365.363H397.699V362.893H399.281V365.363H401.021V366.628H399.281V372.166C399.281 373.141 399.712 373.414 400.529 373.414C400.714 373.414 400.89 373.387 401.021 373.378V374.618C400.828 374.644 400.503 374.679 400.204 374.679ZM406.594 374.503V361.821H414.293V363.245H408.176V367.604H413.792V369.01H408.176V374.503H406.594ZM419.276 374.679C416.648 374.679 415.066 372.842 415.066 369.968V369.959C415.066 367.129 416.684 365.187 419.18 365.187C421.676 365.187 423.196 367.042 423.196 369.784V370.346H416.613C416.648 372.227 417.686 373.326 419.312 373.326C420.472 373.326 421.289 372.746 421.553 371.963L421.579 371.884H423.082L423.064 371.972C422.766 373.484 421.271 374.679 419.276 374.679ZM419.171 366.541C417.844 366.541 416.807 367.446 416.64 369.151H421.641C421.491 367.375 420.507 366.541 419.171 366.541ZM427.415 374.679C425.596 374.679 424.374 373.581 424.374 371.919V371.902C424.374 370.346 425.587 369.371 427.688 369.248L430.307 369.098V368.333C430.307 367.217 429.577 366.541 428.303 366.541C427.125 366.541 426.387 367.103 426.211 367.92L426.193 368H424.717L424.726 367.903C424.857 366.4 426.167 365.187 428.32 365.187C430.482 365.187 431.836 366.356 431.836 368.184V374.503H430.307V373.018H430.271C429.735 374.02 428.637 374.679 427.415 374.679ZM425.938 371.919C425.938 372.798 426.659 373.352 427.758 373.352C429.199 373.352 430.307 372.359 430.307 371.032V370.285L427.863 370.434C426.642 370.504 425.938 371.049 425.938 371.902V371.919ZM436.749 374.679C435.07 374.679 434.244 373.923 434.244 372.174V366.628H432.908V365.363H434.244V362.893H435.826V365.363H437.566V366.628H435.826V372.166C435.826 373.141 436.257 373.414 437.074 373.414C437.259 373.414 437.435 373.387 437.566 373.378V374.618C437.373 374.644 437.048 374.679 436.749 374.679ZM442.33 374.679C440.326 374.679 439.166 373.378 439.166 371.295V365.363H440.695V371.023C440.695 372.508 441.39 373.326 442.796 373.326C444.237 373.326 445.178 372.297 445.178 370.742V365.363H446.707V374.503H445.178V373.203H445.143C444.65 374.055 443.719 374.679 442.33 374.679ZM448.702 374.503V365.363H450.231V366.91H450.267C450.574 365.855 451.365 365.187 452.394 365.187C452.657 365.187 452.886 365.231 453.009 365.249V366.734C452.886 366.69 452.561 366.646 452.191 366.646C451.005 366.646 450.231 367.472 450.231 368.861V374.503H448.702ZM457.579 374.679C454.951 374.679 453.369 372.842 453.369 369.968V369.959C453.369 367.129 454.986 365.187 457.482 365.187C459.979 365.187 461.499 367.042 461.499 369.784V370.346H454.916C454.951 372.227 455.988 373.326 457.614 373.326C458.774 373.326 459.592 372.746 459.855 371.963L459.882 371.884H461.385L461.367 371.972C461.068 373.484 459.574 374.679 457.579 374.679ZM457.474 366.541C456.146 366.541 455.109 367.446 454.942 369.151H459.943C459.794 367.375 458.81 366.541 457.474 366.541ZM466.289 374.679C464.136 374.679 462.835 373.581 462.65 371.946L462.642 371.867H464.171L464.188 371.955C464.373 372.869 465.05 373.405 466.298 373.405C467.537 373.405 468.275 372.886 468.275 372.06V372.051C468.275 371.392 467.933 371.023 466.896 370.768L465.445 370.417C463.723 370.003 462.888 369.204 462.888 367.885V367.876C462.888 366.303 464.268 365.187 466.245 365.187C468.249 365.187 469.523 366.356 469.638 367.885L469.646 368H468.188L468.179 367.938C468.056 367.05 467.379 366.461 466.245 366.461C465.138 366.461 464.452 366.998 464.452 367.806V367.815C464.452 368.439 464.865 368.87 465.876 369.116L467.326 369.467C469.172 369.916 469.84 370.645 469.84 371.946V371.955C469.84 373.554 468.328 374.679 466.289 374.679Z" fill="#011E4D"/>
<circle cx="201.5" cy="201.5" r="200.5" stroke="url(#paint0_linear_60_487)" stroke-width="2"/>
<circle cx="318" cy="45.3628" r="30" fill="#DCE9EE"/>
<circle cx="389.66" cy="148.981" r="30" fill="#DCE9EE"/>
<circle cx="388.66" cy="270.672" r="30" fill="#DCE9EE"/>
<circle cx="318" cy="368.003" r="30" fill="#DCE9EE"/>
<mask id="path-10-outside-1_60_487" maskUnits="userSpaceOnUse" x="299.57" y="25.7974" width="44" height="44" fill="black">
<rect fill="white" x="299.57" y="25.7974" width="44" height="44"/>
<path fill-rule="evenodd" clip-rule="evenodd" d="M311.863 58.3008C312.131 58.443 312.236 58.7784 312.093 59.0501C311.952 59.3198 311.618 59.4256 311.349 59.2816C310.218 58.6837 309.159 57.9308 308.217 57.0631L305.057 58.1149C304.142 58.4193 303.161 58.0402 302.679 57.2034L300.844 53.9988C300.363 53.1602 300.531 52.112 301.248 51.4685L303.729 49.2428C303.26 47.1081 303.26 44.8897 303.729 42.7552L301.248 40.5294C300.536 39.8914 300.357 38.8286 300.844 37.9992L302.681 34.7963C303.163 33.9578 304.144 33.5804 305.059 33.8849L308.219 34.9367C309.818 33.4619 311.718 32.3518 313.799 31.6919L314.473 28.418C314.668 27.4682 315.485 26.7974 316.447 26.7974H320.12C321.079 26.7974 321.898 27.4664 322.094 28.418L322.767 31.6919C324.848 32.3518 326.748 33.462 328.347 34.9367L331.508 33.8849C332.422 33.5804 333.402 33.956 333.885 34.7999L335.722 38.0028C336.204 38.8414 336.035 39.8877 335.318 40.5312L332.837 42.757L333.067 44.0877C333.105 44.3903 332.891 44.6674 332.591 44.7057C332.29 44.744 332.015 44.5289 331.977 44.2263C331.93 43.8526 331.801 43.0852 331.703 42.7279C331.64 42.5255 331.694 42.2958 331.863 42.1464L334.588 39.7018C334.92 39.4047 334.992 38.938 334.773 38.5534L332.936 35.3505C332.717 34.9695 332.275 34.8 331.857 34.9385L328.387 36.0925C328.193 36.1563 327.98 36.1071 327.833 35.9649C327.036 35.1956 326.147 34.523 325.183 33.9615C324.24 33.4128 323.225 32.9734 322.161 32.6599C321.965 32.6088 321.804 32.4484 321.76 32.2351L321.02 28.6385C320.931 28.2047 320.567 27.9076 320.125 27.9076H316.447C316.005 27.9076 315.641 28.2047 315.552 28.6385L314.811 32.2351C314.771 32.4302 314.628 32.5961 314.425 32.6562C313.355 32.9698 312.337 33.4109 311.388 33.9615C310.434 34.5156 309.554 35.181 308.764 35.9393C308.623 36.0961 308.398 36.1617 308.184 36.0925L304.716 34.9385C304.296 34.7982 303.858 34.9677 303.637 35.3523L301.8 38.5552C301.581 38.9398 301.655 39.4047 301.985 39.7L304.711 42.1445C304.863 42.2812 304.926 42.4909 304.879 42.6896C304.488 44.3084 304.387 46.0055 304.584 47.668C304.649 48.2185 304.745 48.7526 304.87 49.2703C304.934 49.4727 304.877 49.7024 304.711 49.8518L301.985 52.2964C301.655 52.5935 301.579 53.0675 301.8 53.4412L303.637 56.6422C303.861 57.025 304.296 57.1964 304.716 57.056L308.184 55.9021C308.378 55.8383 308.592 55.8875 308.739 56.0297C309.666 56.9321 310.718 57.6938 311.863 58.3008ZM322.11 63.2974C322.373 63.1461 322.71 63.2373 322.86 63.5016C323.01 63.7659 322.92 64.105 322.657 64.2563L314.745 68.8555C314.482 69.0068 314.145 68.9157 313.995 68.6513C313.845 68.387 313.935 68.0479 314.198 67.8967L322.11 63.2974ZM320.339 60.2094L310.681 65.822C310.418 65.9733 310.327 66.3124 310.478 66.5767C310.628 66.841 310.965 66.9322 311.227 66.7809L320.886 61.1683C321.149 61.017 321.239 60.6779 321.089 60.4136C320.938 60.1474 320.602 60.0563 320.339 60.2094ZM318.568 57.1214L310.655 61.7206C310.393 61.8719 310.302 62.211 310.453 62.4753C310.603 62.7396 310.94 62.8308 311.202 62.6795L319.115 58.0802C319.377 57.9289 319.468 57.5899 319.318 57.3255C319.167 57.0594 318.83 56.9682 318.568 57.1214ZM329.965 49.7294L321.866 54.4362C320.924 54.9393 320.592 56.2153 321.163 57.1122L323.834 61.7698C324.327 62.6922 325.517 63.0367 326.444 62.499L334.579 57.7721L335.02 58.5413C335.815 59.9268 337.778 59.7518 338.395 58.37L342.26 49.7404C342.791 48.5537 342.021 47.1846 340.717 47.0534L331.359 46.1055C329.861 45.9542 328.731 47.5784 329.526 48.9639L329.965 49.7294ZM330.477 48.4078L331.193 49.6547C331.345 49.919 331.256 50.2581 330.992 50.4112L322.382 55.4152C322.005 55.6413 321.868 56.128 322.089 56.5145L324.804 61.2451C325.024 61.6279 325.517 61.7591 325.896 61.5404L334.503 56.5363C334.766 56.3832 335.103 56.4725 335.255 56.7387L335.97 57.9855C336.311 58.5671 337.124 58.5051 337.389 57.9145L341.253 49.2848C341.482 48.7726 341.145 48.2093 340.607 48.1546L331.249 47.2067C330.611 47.1411 330.144 47.8244 330.477 48.4078ZM318.283 37.8238C313.797 37.8238 310.162 41.4842 310.162 45.9979C310.162 50.5133 313.799 54.172 318.283 54.172C322.768 54.172 326.404 50.5116 326.404 45.9979C326.404 41.4842 322.768 37.8238 318.283 37.8238ZM323.246 41.0048C320.505 38.2467 316.063 38.2467 313.321 41.0048C310.581 43.7628 310.581 48.2344 313.321 50.9924C316.061 53.7504 320.504 53.7504 323.246 50.9924C325.986 48.2343 325.986 43.7628 323.246 41.0048Z"/>
</mask>
<path fill-rule="evenodd" clip-rule="evenodd" d="M311.863 58.3008C312.131 58.443 312.236 58.7784 312.093 59.0501C311.952 59.3198 311.618 59.4256 311.349 59.2816C310.218 58.6837 309.159 57.9308 308.217 57.0631L305.057 58.1149C304.142 58.4193 303.161 58.0402 302.679 57.2034L300.844 53.9988C300.363 53.1602 300.531 52.112 301.248 51.4685L303.729 49.2428C303.26 47.1081 303.26 44.8897 303.729 42.7552L301.248 40.5294C300.536 39.8914 300.357 38.8286 300.844 37.9992L302.681 34.7963C303.163 33.9578 304.144 33.5804 305.059 33.8849L308.219 34.9367C309.818 33.4619 311.718 32.3518 313.799 31.6919L314.473 28.418C314.668 27.4682 315.485 26.7974 316.447 26.7974H320.12C321.079 26.7974 321.898 27.4664 322.094 28.418L322.767 31.6919C324.848 32.3518 326.748 33.462 328.347 34.9367L331.508 33.8849C332.422 33.5804 333.402 33.956 333.885 34.7999L335.722 38.0028C336.204 38.8414 336.035 39.8877 335.318 40.5312L332.837 42.757L333.067 44.0877C333.105 44.3903 332.891 44.6674 332.591 44.7057C332.29 44.744 332.015 44.5289 331.977 44.2263C331.93 43.8526 331.801 43.0852 331.703 42.7279C331.64 42.5255 331.694 42.2958 331.863 42.1464L334.588 39.7018C334.92 39.4047 334.992 38.938 334.773 38.5534L332.936 35.3505C332.717 34.9695 332.275 34.8 331.857 34.9385L328.387 36.0925C328.193 36.1563 327.98 36.1071 327.833 35.9649C327.036 35.1956 326.147 34.523 325.183 33.9615C324.24 33.4128 323.225 32.9734 322.161 32.6599C321.965 32.6088 321.804 32.4484 321.76 32.2351L321.02 28.6385C320.931 28.2047 320.567 27.9076 320.125 27.9076H316.447C316.005 27.9076 315.641 28.2047 315.552 28.6385L314.811 32.2351C314.771 32.4302 314.628 32.5961 314.425 32.6562C313.355 32.9698 312.337 33.4109 311.388 33.9615C310.434 34.5156 309.554 35.181 308.764 35.9393C308.623 36.0961 308.398 36.1617 308.184 36.0925L304.716 34.9385C304.296 34.7982 303.858 34.9677 303.637 35.3523L301.8 38.5552C301.581 38.9398 301.655 39.4047 301.985 39.7L304.711 42.1445C304.863 42.2812 304.926 42.4909 304.879 42.6896C304.488 44.3084 304.387 46.0055 304.584 47.668C304.649 48.2185 304.745 48.7526 304.87 49.2703C304.934 49.4727 304.877 49.7024 304.711 49.8518L301.985 52.2964C301.655 52.5935 301.579 53.0675 301.8 53.4412L303.637 56.6422C303.861 57.025 304.296 57.1964 304.716 57.056L308.184 55.9021C308.378 55.8383 308.592 55.8875 308.739 56.0297C309.666 56.9321 310.718 57.6938 311.863 58.3008ZM322.11 63.2974C322.373 63.1461 322.71 63.2373 322.86 63.5016C323.01 63.7659 322.92 64.105 322.657 64.2563L314.745 68.8555C314.482 69.0068 314.145 68.9157 313.995 68.6513C313.845 68.387 313.935 68.0479 314.198 67.8967L322.11 63.2974ZM320.339 60.2094L310.681 65.822C310.418 65.9733 310.327 66.3124 310.478 66.5767C310.628 66.841 310.965 66.9322 311.227 66.7809L320.886 61.1683C321.149 61.017 321.239 60.6779 321.089 60.4136C320.938 60.1474 320.602 60.0563 320.339 60.2094ZM318.568 57.1214L310.655 61.7206C310.393 61.8719 310.302 62.211 310.453 62.4753C310.603 62.7396 310.94 62.8308 311.202 62.6795L319.115 58.0802C319.377 57.9289 319.468 57.5899 319.318 57.3255C319.167 57.0594 318.83 56.9682 318.568 57.1214ZM329.965 49.7294L321.866 54.4362C320.924 54.9393 320.592 56.2153 321.163 57.1122L323.834 61.7698C324.327 62.6922 325.517 63.0367 326.444 62.499L334.579 57.7721L335.02 58.5413C335.815 59.9268 337.778 59.7518 338.395 58.37L342.26 49.7404C342.791 48.5537 342.021 47.1846 340.717 47.0534L331.359 46.1055C329.861 45.9542 328.731 47.5784 329.526 48.9639L329.965 49.7294ZM330.477 48.4078L331.193 49.6547C331.345 49.919 331.256 50.2581 330.992 50.4112L322.382 55.4152C322.005 55.6413 321.868 56.128 322.089 56.5145L324.804 61.2451C325.024 61.6279 325.517 61.7591 325.896 61.5404L334.503 56.5363C334.766 56.3832 335.103 56.4725 335.255 56.7387L335.97 57.9855C336.311 58.5671 337.124 58.5051 337.389 57.9145L341.253 49.2848C341.482 48.7726 341.145 48.2093 340.607 48.1546L331.249 47.2067C330.611 47.1411 330.144 47.8244 330.477 48.4078ZM318.283 37.8238C313.797 37.8238 310.162 41.4842 310.162 45.9979C310.162 50.5133 313.799 54.172 318.283 54.172C322.768 54.172 326.404 50.5116 326.404 45.9979C326.404 41.4842 322.768 37.8238 318.283 37.8238ZM323.246 41.0048C320.505 38.2467 316.063 38.2467 313.321 41.0048C310.581 43.7628 310.581 48.2344 313.321 50.9924C316.061 53.7504 320.504 53.7504 323.246 50.9924C325.986 48.2343 325.986 43.7628 323.246 41.0048Z" fill="#011E4D"/>
<path fill-rule="evenodd" clip-rule="evenodd" d="M311.863 58.3008C312.131 58.443 312.236 58.7784 312.093 59.0501C311.952 59.3198 311.618 59.4256 311.349 59.2816C310.218 58.6837 309.159 57.9308 308.217 57.0631L305.057 58.1149C304.142 58.4193 303.161 58.0402 302.679 57.2034L300.844 53.9988C300.363 53.1602 300.531 52.112 301.248 51.4685L303.729 49.2428C303.26 47.1081 303.26 44.8897 303.729 42.7552L301.248 40.5294C300.536 39.8914 300.357 38.8286 300.844 37.9992L302.681 34.7963C303.163 33.9578 304.144 33.5804 305.059 33.8849L308.219 34.9367C309.818 33.4619 311.718 32.3518 313.799 31.6919L314.473 28.418C314.668 27.4682 315.485 26.7974 316.447 26.7974H320.12C321.079 26.7974 321.898 27.4664 322.094 28.418L322.767 31.6919C324.848 32.3518 326.748 33.462 328.347 34.9367L331.508 33.8849C332.422 33.5804 333.402 33.956 333.885 34.7999L335.722 38.0028C336.204 38.8414 336.035 39.8877 335.318 40.5312L332.837 42.757L333.067 44.0877C333.105 44.3903 332.891 44.6674 332.591 44.7057C332.29 44.744 332.015 44.5289 331.977 44.2263C331.93 43.8526 331.801 43.0852 331.703 42.7279C331.64 42.5255 331.694 42.2958 331.863 42.1464L334.588 39.7018C334.92 39.4047 334.992 38.938 334.773 38.5534L332.936 35.3505C332.717 34.9695 332.275 34.8 331.857 34.9385L328.387 36.0925C328.193 36.1563 327.98 36.1071 327.833 35.9649C327.036 35.1956 326.147 34.523 325.183 33.9615C324.24 33.4128 323.225 32.9734 322.161 32.6599C321.965 32.6088 321.804 32.4484 321.76 32.2351L321.02 28.6385C320.931 28.2047 320.567 27.9076 320.125 27.9076H316.447C316.005 27.9076 315.641 28.2047 315.552 28.6385L314.811 32.2351C314.771 32.4302 314.628 32.5961 314.425 32.6562C313.355 32.9698 312.337 33.4109 311.388 33.9615C310.434 34.5156 309.554 35.181 308.764 35.9393C308.623 36.0961 308.398 36.1617 308.184 36.0925L304.716 34.9385C304.296 34.7982 303.858 34.9677 303.637 35.3523L301.8 38.5552C301.581 38.9398 301.655 39.4047 301.985 39.7L304.711 42.1445C304.863 42.2812 304.926 42.4909 304.879 42.6896C304.488 44.3084 304.387 46.0055 304.584 47.668C304.649 48.2185 304.745 48.7526 304.87 49.2703C304.934 49.4727 304.877 49.7024 304.711 49.8518L301.985 52.2964C301.655 52.5935 301.579 53.0675 301.8 53.4412L303.637 56.6422C303.861 57.025 304.296 57.1964 304.716 57.056L308.184 55.9021C308.378 55.8383 308.592 55.8875 308.739 56.0297C309.666 56.9321 310.718 57.6938 311.863 58.3008ZM322.11 63.2974C322.373 63.1461 322.71 63.2373 322.86 63.5016C323.01 63.7659 322.92 64.105 322.657 64.2563L314.745 68.8555C314.482 69.0068 314.145 68.9157 313.995 68.6513C313.845 68.387 313.935 68.0479 314.198 67.8967L322.11 63.2974ZM320.339 60.2094L310.681 65.822C310.418 65.9733 310.327 66.3124 310.478 66.5767C310.628 66.841 310.965 66.9322 311.227 66.7809L320.886 61.1683C321.149 61.017 321.239 60.6779 321.089 60.4136C320.938 60.1474 320.602 60.0563 320.339 60.2094ZM318.568 57.1214L310.655 61.7206C310.393 61.8719 310.302 62.211 310.453 62.4753C310.603 62.7396 310.94 62.8308 311.202 62.6795L319.115 58.0802C319.377 57.9289 319.468 57.5899 319.318 57.3255C319.167 57.0594 318.83 56.9682 318.568 57.1214ZM329.965 49.7294L321.866 54.4362C320.924 54.9393 320.592 56.2153 321.163 57.1122L323.834 61.7698C324.327 62.6922 325.517 63.0367 326.444 62.499L334.579 57.7721L335.02 58.5413C335.815 59.9268 337.778 59.7518 338.395 58.37L342.26 49.7404C342.791 48.5537 342.021 47.1846 340.717 47.0534L331.359 46.1055C329.861 45.9542 328.731 47.5784 329.526 48.9639L329.965 49.7294ZM330.477 48.4078L331.193 49.6547C331.345 49.919 331.256 50.2581 330.992 50.4112L322.382 55.4152C322.005 55.6413 321.868 56.128 322.089 56.5145L324.804 61.2451C325.024 61.6279 325.517 61.7591 325.896 61.5404L334.503 56.5363C334.766 56.3832 335.103 56.4725 335.255 56.7387L335.97 57.9855C336.311 58.5671 337.124 58.5051 337.389 57.9145L341.253 49.2848C341.482 48.7726 341.145 48.2093 340.607 48.1546L331.249 47.2067C330.611 47.1411 330.144 47.8244 330.477 48.4078ZM318.283 37.8238C313.797 37.8238 310.162 41.4842 310.162 45.9979C310.162 50.5133 313.799 54.172 318.283 54.172C322.768 54.172 326.404 50.5116 326.404 45.9979C326.404 41.4842 322.768 37.8238 318.283 37.8238ZM323.246 41.0048C320.505 38.2467 316.063 38.2467 313.321 41.0048C310.581 43.7628 310.581 48.2344 313.321 50.9924C316.061 53.7504 320.504 53.7504 323.246 50.9924C325.986 48.2343 325.986 43.7628 323.246 41.0048Z" stroke="#011E4D" stroke-width="0.4" mask="url(#path-10-outside-1_60_487)"/>
<path d="M394.448 146.019V146.069H394.498H398.816C399.142 146.069 399.409 146.34 399.409 146.676V151.949C399.409 152.285 399.142 152.556 398.816 152.556H394.498H394.448V152.606V157.021C394.448 157.356 394.181 157.628 393.855 157.628H388.697C388.371 157.628 388.104 157.356 388.104 157.021V152.606V152.556H388.054H383.735C383.41 152.556 383.143 152.285 383.143 151.949V146.676C383.143 146.34 383.41 146.069 383.735 146.069H388.054H388.104V146.019V141.605C388.104 141.269 388.371 140.998 388.697 140.998H393.855C394.181 140.998 394.448 141.269 394.448 141.605V146.019ZM393.263 142.262V142.212H393.213H389.339H389.289V142.262V146.676C389.289 147.012 389.022 147.283 388.697 147.283H384.378H384.328V147.333V151.292V151.342H384.378H388.697C389.022 151.342 389.289 151.614 389.289 151.949V156.364V156.414H389.339H393.213H393.263V156.364V151.949C393.263 151.614 393.53 151.342 393.855 151.342H398.174H398.224V151.292V147.333V147.283H398.174H393.855C393.53 147.283 393.263 147.012 393.263 146.676V142.262ZM390.95 171.452L390.949 171.451C380.82 164.966 374.611 152.817 372.866 140.351L372.866 140.351C372.828 140.086 372.973 139.829 373.193 139.72L391.018 131.018L391.018 131.018L391.018 131.018C391.185 130.933 391.374 130.941 391.525 131.018L391.525 131.018L391.526 131.018L409.351 139.72L409.352 139.721C409.601 139.837 409.732 140.116 409.678 140.39L409.678 140.39L409.678 140.393C408.723 147.168 406.558 153.388 403.495 158.664L403.495 158.664C400.367 164.057 396.285 168.465 391.587 171.468C391.382 171.592 391.139 171.584 390.95 171.452ZM380.074 158.04L380.074 158.04C383.036 163.134 386.857 167.318 391.248 170.213L391.276 170.231L391.303 170.213C400.837 163.935 406.677 152.447 408.45 140.652L408.456 140.615L408.423 140.599L391.298 132.251L391.276 132.24L391.254 132.251L374.129 140.608L374.096 140.624L374.102 140.66C375.067 147.102 377.154 153.013 380.074 158.04Z" fill="#011E4D" stroke="#011E4D" stroke-width="0.1"/>
<path d="M386.679 289.2C386.968 287.886 387.256 286.571 387.544 285.257C388.056 282.922 388.568 280.588 389.08 278.253C389.295 277.27 389.511 276.287 389.726 275.304C389.835 274.808 389.497 274.307 388.955 274.307C387.22 274.307 385.485 274.307 383.751 274.307C382.294 274.307 380.838 274.307 379.381 274.307C379.611 274.702 379.842 275.097 380.072 275.492C380.567 274.745 381.063 273.998 381.558 273.25C382.727 271.488 383.895 269.725 385.064 267.963C386.429 265.903 387.794 263.844 389.159 261.785C390.244 260.148 391.329 258.512 392.414 256.875C392.761 256.352 393.108 255.829 393.454 255.306C392.967 255.104 392.48 254.902 391.992 254.699C391.704 256.014 391.416 257.328 391.128 258.642C390.616 260.975 390.104 263.309 389.592 265.642C389.377 266.625 389.161 267.608 388.946 268.59C388.837 269.087 389.175 269.587 389.717 269.587C391.455 269.587 393.193 269.587 394.931 269.587C396.39 269.587 397.849 269.587 399.308 269.587C399.078 269.192 398.847 268.797 398.617 268.402C398.121 269.15 397.625 269.897 397.129 270.645C395.959 272.408 394.789 274.171 393.619 275.934C392.252 277.994 390.885 280.053 389.518 282.113C388.432 283.75 387.345 285.387 386.259 287.025C385.912 287.548 385.565 288.071 385.218 288.594C384.979 288.953 385.143 289.462 385.505 289.671C385.895 289.896 386.361 289.747 386.599 289.389C387.095 288.641 387.591 287.894 388.087 287.146C389.257 285.383 390.427 283.62 391.597 281.857C392.964 279.797 394.331 277.738 395.698 275.678C396.784 274.041 397.871 272.403 398.957 270.766C399.304 270.243 399.651 269.72 399.999 269.197C400.336 268.689 399.891 268.012 399.308 268.012C397.57 268.012 395.832 268.012 394.094 268.012C392.635 268.012 391.176 268.012 389.717 268.012C389.974 268.345 390.231 268.677 390.488 269.009C390.776 267.695 391.064 266.381 391.353 265.067C391.865 262.733 392.376 260.4 392.888 258.066C393.104 257.084 393.319 256.101 393.535 255.118C393.611 254.77 393.49 254.415 393.167 254.229C392.777 254.004 392.311 254.153 392.073 254.511C391.578 255.259 391.082 256.006 390.587 256.753C389.418 258.516 388.25 260.278 387.081 262.041C385.716 264.1 384.351 266.159 382.986 268.218C381.901 269.855 380.816 271.492 379.731 273.129C379.384 273.651 379.037 274.174 378.691 274.697C378.354 275.205 378.798 275.882 379.381 275.882C381.116 275.882 382.851 275.882 384.586 275.882C386.042 275.882 387.499 275.882 388.955 275.882C388.698 275.55 388.441 275.218 388.184 274.885C387.896 276.2 387.607 277.514 387.319 278.829C386.807 281.163 386.295 283.498 385.784 285.832C385.568 286.815 385.353 287.799 385.137 288.782C385.045 289.201 385.258 289.632 385.696 289.75C386.098 289.859 386.587 289.62 386.679 289.2Z" fill="#011E4D"/>
<path d="M325.996 379.697H309.817C308.245 379.697 306.965 378.411 306.965 376.832V360.585C306.965 359.005 308.245 357.72 309.817 357.72H325.996C327.568 357.72 328.848 359.006 328.848 360.585V376.832C328.848 378.411 327.568 379.697 325.996 379.697ZM309.817 359.143C309.026 359.143 308.382 359.79 308.382 360.585V376.832C308.382 377.627 309.026 378.274 309.817 378.274H325.996C326.787 378.274 327.431 377.627 327.431 376.832V360.585C327.431 359.79 326.787 359.143 325.996 359.143H309.817Z" fill="black"/>
<path d="M322.582 374.116H313.23C312.838 374.116 312.521 373.798 312.521 373.405V364.013C312.521 363.62 312.838 363.302 313.23 363.302H322.582C322.973 363.302 323.29 363.62 323.29 364.013V373.405C323.29 373.798 322.973 374.116 322.582 374.116ZM313.938 372.693H321.873V364.724H313.938V372.693Z" fill="black"/>
<path d="M311.17 383.378C310.779 383.378 310.462 383.06 310.462 382.666V378.985C310.462 378.592 310.779 378.274 311.17 378.274C311.562 378.274 311.879 378.592 311.879 378.985V382.666C311.879 383.059 311.562 383.378 311.17 383.378Z" fill="black"/>
<path d="M311.17 359.143C310.779 359.143 310.462 358.825 310.462 358.432V354.751C310.462 354.357 310.779 354.039 311.17 354.039C311.562 354.039 311.879 354.357 311.879 354.751V358.432C311.879 358.825 311.562 359.143 311.17 359.143Z" fill="black"/>
<path d="M315.661 383.378C315.269 383.378 314.952 383.06 314.952 382.666V378.985C314.952 378.592 315.269 378.274 315.661 378.274C316.052 378.274 316.369 378.592 316.369 378.985V382.666C316.369 383.059 316.052 383.378 315.661 383.378Z" fill="black"/>
<path d="M315.661 359.143C315.269 359.143 314.952 358.825 314.952 358.432V354.751C314.952 354.357 315.269 354.039 315.661 354.039C316.052 354.039 316.369 354.357 316.369 354.751V358.432C316.369 358.825 316.052 359.143 315.661 359.143Z" fill="black"/>
<path d="M320.152 383.378C319.76 383.378 319.443 383.06 319.443 382.666V378.985C319.443 378.592 319.76 378.274 320.152 378.274C320.544 378.274 320.86 378.592 320.86 378.985V382.666C320.86 383.059 320.544 383.378 320.152 383.378Z" fill="black"/>
<path d="M320.152 359.143C319.76 359.143 319.443 358.825 319.443 358.432V354.751C319.443 354.357 319.76 354.039 320.152 354.039C320.544 354.039 320.86 354.357 320.86 354.751V358.432C320.86 358.825 320.544 359.143 320.152 359.143Z" fill="black"/>
<path d="M324.643 383.378C324.252 383.378 323.935 383.06 323.935 382.666V378.985C323.935 378.592 324.251 378.274 324.643 378.274C325.035 378.274 325.352 378.592 325.352 378.985V382.666C325.352 383.059 325.035 383.378 324.643 383.378Z" fill="black"/>
<path d="M324.643 359.143C324.252 359.143 323.935 358.825 323.935 358.432V354.751C323.935 354.357 324.251 354.039 324.643 354.039C325.035 354.039 325.352 354.357 325.352 354.751V358.432C325.352 358.825 325.035 359.143 324.643 359.143Z" fill="black"/>
<path d="M307.673 362.655H304.007C303.616 362.655 303.299 362.337 303.299 361.944C303.299 361.551 303.616 361.232 304.007 361.232H307.673C308.064 361.232 308.381 361.551 308.381 361.944C308.381 362.337 308.064 362.655 307.673 362.655Z" fill="black"/>
<path d="M331.805 362.655H328.139C327.748 362.655 327.431 362.337 327.431 361.944C327.431 361.551 327.747 361.232 328.139 361.232H331.805C332.196 361.232 332.513 361.551 332.513 361.944C332.513 362.337 332.196 362.655 331.805 362.655Z" fill="black"/>
<path d="M307.673 367.165H304.007C303.616 367.165 303.299 366.847 303.299 366.454C303.299 366.061 303.616 365.742 304.007 365.742H307.673C308.064 365.742 308.381 366.061 308.381 366.454C308.381 366.847 308.064 367.165 307.673 367.165Z" fill="black"/>
<path d="M331.805 367.165H328.139C327.748 367.165 327.431 366.847 327.431 366.454C327.431 366.061 327.747 365.742 328.139 365.742H331.805C332.196 365.742 332.513 366.061 332.513 366.454C332.513 366.847 332.196 367.165 331.805 367.165Z" fill="black"/>
<path d="M307.673 371.675H304.007C303.616 371.675 303.299 371.357 303.299 370.964C303.299 370.57 303.616 370.252 304.007 370.252H307.673C308.064 370.252 308.381 370.57 308.381 370.964C308.381 371.357 308.064 371.675 307.673 371.675Z" fill="black"/>
<path d="M331.805 371.675H328.139C327.748 371.675 327.431 371.357 327.431 370.964C327.431 370.57 327.747 370.252 328.139 370.252H331.805C332.196 370.252 332.513 370.57 332.513 370.964C332.513 371.357 332.196 371.675 331.805 371.675Z" fill="black"/>
<path d="M307.673 376.184H304.007C303.616 376.184 303.299 375.866 303.299 375.473C303.299 375.08 303.616 374.761 304.007 374.761H307.673C308.064 374.761 308.381 375.08 308.381 375.473C308.381 375.866 308.064 376.184 307.673 376.184Z" fill="black"/>
<path d="M331.805 376.184H328.139C327.748 376.184 327.431 375.866 327.431 375.473C327.431 375.08 327.747 374.761 328.139 374.761H331.805C332.196 374.761 332.513 375.08 332.513 375.473C332.513 375.866 332.196 376.184 331.805 376.184Z" fill="black"/>
<defs>
<linearGradient id="paint0_linear_60_487" x1="403" y1="201.5" x2="0" y2="201.5" gradientUnits="userSpaceOnUse">
<stop stop-color="#A4ACB9"/>
<stop offset="0.548077" stop-color="white" stop-opacity="0"/>
</linearGradient>
</defs>
</svg>
