<svg width="33" height="39" viewBox="0 0 33 39" fill="none" xmlns="http://www.w3.org/2000/svg">
<path d="M9.4385 8.09427L9.63849 8.09426V7.89427V7.28812V7.08812H9.43849H6.50098H6.30098V7.28812V10.1945V10.3945H6.50098H7.11361H7.31361V10.1945V8.80103L14.6547 16.0679L14.7954 16.2072L14.9361 16.068L15.3716 15.637L15.5154 15.4948L15.3716 15.3526L8.03213 8.09431L9.4385 8.09427Z" fill="white" stroke="white" stroke-width="0.4"/>
<path d="M26.5103 24.9846L26.5103 26.3774L19.1727 19.114L19.0321 18.9747L18.8914 19.1139L18.456 19.5447L18.3123 19.6869L18.456 19.8291L25.7919 27.0838H24.3865H24.1865V27.2838V27.8897V28.0897H24.3865H27.3227H27.5227V27.8897V24.9846V24.7846H27.3227H26.7103H26.5103L26.5103 24.9846Z" fill="white" stroke="white" stroke-width="0.4"/>
<path d="M1.77285 32.0507V32.2007H1.92285H31.5281H31.6781V32.0507V2.75874V2.60874H31.5281H1.92285H1.77285V2.75874V32.0507ZM2.81298 3.64104H30.638V31.1684H2.81298V3.64104Z" fill="white" stroke="white" stroke-width="0.3"/>
</svg>
