<svg width="33" height="34" viewBox="0 0 33 34" fill="none" xmlns="http://www.w3.org/2000/svg">
<path d="M8.96131 6.85042C9.24728 6.63453 9.30456 6.22642 9.08741 5.94021C8.87151 5.65432 8.46346 5.59707 8.17728 5.81419C5.20643 8.06385 3.50283 11.5113 3.50283 15.2698C3.50283 21.8316 8.84099 27.1698 15.4028 27.1698C21.9647 27.1698 27.3028 21.8316 27.3028 15.2698C27.3028 8.70793 21.9647 3.36978 15.4028 3.36978C15.044 3.36978 14.7528 3.66093 14.7528 4.01978C14.7528 4.37862 15.044 4.66978 15.4028 4.66978C21.248 4.66978 26.0028 9.42462 26.0028 15.2698C26.0028 21.1149 21.248 25.8698 15.4028 25.8698C9.55767 25.8698 4.80283 21.1149 4.80283 15.2698C4.80283 11.9203 6.31921 8.85276 8.96131 6.85042ZM8.96131 6.85042C8.96126 6.85045 8.96122 6.85048 8.96118 6.85051L8.87083 6.73078M8.96131 6.85042C8.96135 6.85039 8.96139 6.85036 8.96143 6.85032L8.87083 6.73078M8.87083 6.73078C9.09083 6.56478 9.13483 6.25078 8.96783 6.03078L8.26783 5.93378C5.33483 8.15478 3.65283 11.5578 3.65283 15.2698C3.65283 21.7488 8.92383 27.0198 15.4028 27.0198C21.8818 27.0198 27.1528 21.7488 27.1528 15.2698C27.1528 8.79078 21.8818 3.51978 15.4028 3.51978C15.1268 3.51978 14.9028 3.74378 14.9028 4.01978C14.9028 4.29578 15.1268 4.51978 15.4028 4.51978C21.3308 4.51978 26.1528 9.34178 26.1528 15.2698C26.1528 21.1978 21.3308 26.0198 15.4028 26.0198C9.47483 26.0198 4.65283 21.1978 4.65283 15.2698C4.65283 11.8738 6.19083 8.76178 8.87083 6.73078Z" fill="white" stroke="white" stroke-width="0.3"/>
<path d="M3.89893 6.98276H8.89893C9.25777 6.98276 9.54893 6.69161 9.54893 6.33276C9.54893 5.97392 9.25777 5.68276 8.89893 5.68276H3.89893C3.54008 5.68276 3.24893 5.97392 3.24893 6.33276C3.24893 6.69161 3.54008 6.98276 3.89893 6.98276Z" fill="white" stroke="white" stroke-width="0.3"/>
<path d="M8.24893 11.3328C8.24893 11.6916 8.54008 11.9828 8.89893 11.9828C9.25777 11.9828 9.54893 11.6916 9.54893 11.3328V6.33276C9.54893 5.97392 9.25777 5.68276 8.89893 5.68276C8.54008 5.68276 8.24893 5.97392 8.24893 6.33276V11.3328Z" fill="white" stroke="white" stroke-width="0.3"/>
</svg>
