<svg width="43" height="29" viewBox="0 0 43 29" fill="none" xmlns="http://www.w3.org/2000/svg">
<g clip-path="url(#clip0_575_617)">
<path d="M41.8525 25.3566C42.0846 25.3566 42.3072 25.263 42.4713 25.0963C42.6354 24.9296 42.7275 24.7035 42.7275 24.4677C42.7275 24.232 42.6354 24.0059 42.4713 23.8392C42.3072 23.6725 42.0846 23.5788 41.8525 23.5788H38.79V4.02329C38.79 3.78754 38.6978 3.56146 38.5337 3.39476C38.3697 3.22807 38.1471 3.13441 37.915 3.1344H5.54004C5.30798 3.13441 5.08542 3.22807 4.92133 3.39476C4.75724 3.56146 4.66505 3.78754 4.66504 4.02329V23.5788H1.60254C1.37047 23.5788 1.14791 23.6725 0.983821 23.8392C0.819726 24.0059 0.727539 24.232 0.727539 24.4677C0.727539 24.7035 0.819726 24.9296 0.983821 25.0963C1.14791 25.263 1.37047 25.3566 1.60254 25.3566H41.8525ZM6.41504 23.5788V4.91218H37.04V23.5788H6.41504Z" fill="white"/>
</g>
<defs>
<clipPath id="clip0_575_617">
<rect width="42" height="28" fill="white" transform="translate(0.725586 0.134888)"/>
</clipPath>
</defs>
</svg>
