<svg width="38" height="61" viewBox="0 0 38 61" fill="none" xmlns="http://www.w3.org/2000/svg">
<path d="M7.78707 51.0232L7.78727 51.0242C7.84235 51.2938 8.07757 51.4885 8.35331 51.4914H8.35594H11.5517C11.8298 51.4914 12.0686 51.2966 12.1238 51.0237L12.1239 51.0232L12.4655 49.315H26.9287L27.2688 51.023L27.2689 51.0237C27.3241 51.2966 27.5629 51.4914 27.841 51.4914H31.0368C31.3141 51.4914 31.5544 51.2972 31.6075 51.0222C31.6076 51.0219 31.6077 51.0215 31.6077 51.0212L31.9475 49.315H32.3367C33.4619 49.315 34.3813 48.4002 34.3813 47.2737L34.383 10.5365C34.383 9.41061 33.4642 8.49182 32.3383 8.49182H7.0544C5.92856 8.49182 5.00977 9.41056 5.00977 10.5365V47.2737C5.00977 48.4001 5.92912 49.315 7.0544 49.315H7.44543L7.78707 51.0232ZM7.0544 9.65588H32.3384C32.8326 9.65588 33.2189 10.0434 33.2189 10.5365V47.2737C33.2189 47.7658 32.8336 48.1509 32.3384 48.1509H7.0544C6.55972 48.1509 6.17552 47.7662 6.17552 47.2737V10.5365C6.17552 10.0432 6.56214 9.65588 7.0544 9.65588ZM19.6964 10.5969C15.5909 10.5969 12.2529 13.9292 12.2529 18.0319C12.2529 22.1345 15.5907 25.4686 19.6964 25.4686C23.8021 25.4686 27.1399 22.1346 27.1399 18.0319C27.1399 13.9291 23.802 10.5969 19.6964 10.5969ZM19.6964 11.7609C23.1694 11.7609 25.9756 14.5661 25.9756 18.0321C25.9756 21.4996 23.1693 24.3033 19.6964 24.3033C16.2235 24.3033 13.4171 21.4981 13.4171 18.0321C13.4171 14.5646 16.2251 11.7609 19.6964 11.7609ZM19.6964 15.8363C18.4863 15.8363 17.4974 16.8228 17.4974 18.032C17.4974 19.2413 18.4863 20.2277 19.6964 20.2277C20.9068 20.2277 21.8937 19.241 21.8937 18.032C21.8937 16.8229 20.905 15.8363 19.6964 15.8363ZM19.6964 17.0004C20.2724 17.0004 20.7297 17.4581 20.7297 18.032C20.7297 18.6057 20.2709 19.0636 19.6964 19.0636C19.12 19.0636 18.6614 18.6055 18.6614 18.032C18.6614 17.4585 19.12 17.0004 19.6964 17.0004ZM19.6964 26.2205C13.8993 26.2205 9.19162 30.9209 9.19162 36.7138C9.19162 42.5067 13.8989 47.2084 19.6964 47.2084C25.4939 47.2084 30.2012 42.5063 30.2012 36.7138C30.2012 30.9209 25.4939 26.2205 19.6964 26.2205ZM19.6964 27.3846C24.8596 27.3846 29.0369 31.5561 29.0369 36.7136C29.0369 41.8695 24.8591 46.0443 19.6964 46.0443C14.5337 46.0443 10.3559 41.8695 10.3559 36.7136C10.3559 31.5578 14.5336 27.3846 19.6964 27.3846ZM19.6964 33.7011C18.0348 33.7011 16.6789 35.0527 16.6789 36.7136C16.6789 38.3743 18.0346 39.7277 19.6964 39.7277C21.3582 39.7277 22.7138 38.3743 22.7138 36.7136C22.7138 35.0527 21.358 33.7011 19.6964 33.7011ZM8.83315 50.3275L8.63088 49.3151H11.278L11.0746 50.3275H8.83315ZM28.3196 50.3275L28.1151 49.3151H30.7649L30.5616 50.3275H28.3196Z" fill="white" stroke="white" stroke-width="0.5"/>
</svg>
