<svg width="224" height="71" viewBox="0 0 224 71" fill="none" xmlns="http://www.w3.org/2000/svg">
<path d="M96.0977 15.9946V4.0166H100.912C103.436 4.0166 105.121 5.64355 105.121 8.10889V8.12549C105.121 10.5908 103.436 12.2178 100.912 12.2178H98.6045V15.9946H96.0977ZM100.298 6.00049H98.6045V10.2588H100.298C101.734 10.2588 102.581 9.49512 102.581 8.13379V8.11719C102.581 6.75586 101.734 6.00049 100.298 6.00049ZM106.457 15.9946V4.0166H108.881V15.9946H106.457ZM113.164 16.1357C111.379 16.1357 110.176 15.0151 110.176 13.4463V13.4297C110.176 11.811 111.429 10.8647 113.637 10.7236L115.837 10.5908V10.043C115.837 9.25439 115.322 8.76465 114.376 8.76465C113.471 8.76465 112.923 9.18799 112.807 9.76074L112.791 9.83545H110.574L110.583 9.73584C110.715 8.09229 112.126 6.91357 114.476 6.91357C116.775 6.91357 118.261 8.10059 118.261 9.89355V15.9946H115.837V14.6665H115.787C115.281 15.5796 114.334 16.1357 113.164 16.1357ZM112.575 13.3218C112.575 13.9775 113.114 14.3677 113.953 14.3677C115.04 14.3677 115.837 13.6704 115.837 12.7407V12.1016L114.002 12.2178C113.064 12.2759 112.575 12.6743 112.575 13.3052V13.3218ZM123.49 16.1772C121.025 16.1772 119.655 15.04 119.464 13.355L119.456 13.2803H121.822L121.838 13.355C121.996 14.0522 122.519 14.459 123.49 14.459C124.403 14.459 124.959 14.1021 124.959 13.5293V13.521C124.959 13.0479 124.661 12.7739 123.789 12.583L122.278 12.2676C120.552 11.9023 119.68 11.0391 119.68 9.71094V9.70264C119.68 8.00928 121.141 6.91357 123.407 6.91357C125.773 6.91357 127.093 8.16699 127.151 9.72754V9.81055H124.918L124.91 9.74414C124.827 9.10498 124.304 8.62354 123.407 8.62354C122.569 8.62354 122.046 8.99707 122.046 9.56982V9.57812C122.046 10.0347 122.353 10.3335 123.25 10.5244L124.76 10.8481C126.62 11.2383 127.383 11.9688 127.383 13.2803V13.2886C127.383 15.0317 125.781 16.1772 123.49 16.1772ZM132.115 16.1772C130.139 16.1772 129.209 15.4136 129.209 13.5044V8.92236H127.973V7.09619H129.209V4.92139H131.658V7.09619H133.285V8.92236H131.658V13.2388C131.658 14.0688 132.032 14.3511 132.762 14.3511C132.978 14.3511 133.136 14.3262 133.285 14.3096V16.0859C133.011 16.1274 132.621 16.1772 132.115 16.1772ZM135.883 5.95068C135.153 5.95068 134.588 5.37793 134.588 4.68896C134.588 4 135.153 3.42725 135.883 3.42725C136.614 3.42725 137.178 4 137.178 4.68896C137.178 5.37793 136.614 5.95068 135.883 5.95068ZM134.671 15.9946V7.09619H137.095V15.9946H134.671ZM142.79 16.1772C140.075 16.1772 138.398 14.4092 138.398 11.5371V11.5288C138.398 8.68164 140.1 6.91357 142.765 6.91357C145.18 6.91357 146.716 8.39941 146.807 10.3252V10.3833H144.558L144.541 10.3086C144.392 9.46191 143.802 8.81445 142.798 8.81445C141.611 8.81445 140.864 9.83545 140.864 11.5371V11.5454C140.864 13.2886 141.611 14.2764 142.806 14.2764C143.777 14.2764 144.383 13.6787 144.549 12.7822L144.558 12.7075H146.815V12.7573C146.699 14.6997 145.164 16.1772 142.79 16.1772ZM151.563 15.9946V4.0166H154.46L157.864 12.6245H157.914L161.317 4.0166H164.214V15.9946H161.981V7.89307H161.906L158.677 15.9946H157.1L153.863 7.89307H153.796V15.9946H151.563ZM170.083 16.1772C167.376 16.1772 165.675 14.4424 165.675 11.5454V11.5288C165.675 8.66504 167.418 6.91357 170.074 6.91357C172.739 6.91357 174.49 8.64844 174.49 11.5288V11.5454C174.49 14.4507 172.772 16.1772 170.083 16.1772ZM170.091 14.2764C171.27 14.2764 172.025 13.2803 172.025 11.5454V11.5288C172.025 9.81055 171.253 8.81445 170.074 8.81445C168.904 8.81445 168.14 9.81055 168.14 11.5288V11.5454C168.14 13.2886 168.896 14.2764 170.091 14.2764ZM178.773 16.1772C176.814 16.1772 175.702 14.9238 175.702 12.8403V7.09619H178.126V12.334C178.126 13.4961 178.674 14.1685 179.761 14.1685C180.849 14.1685 181.538 13.3716 181.538 12.2095V7.09619H183.961V15.9946H181.538V14.5254H181.488C181.031 15.5464 180.118 16.1772 178.773 16.1772ZM185.597 15.9946V4.0166H188.021V15.9946H185.597ZM192.951 16.1772C190.71 16.1772 189.332 14.4341 189.332 11.5454V11.5371C189.332 8.64014 190.71 6.91357 192.951 6.91357C194.213 6.91357 195.209 7.56104 195.69 8.64014H195.74V4.0166H198.164V15.9946H195.74V14.4756H195.69C195.217 15.5298 194.238 16.1772 192.951 16.1772ZM193.765 14.1685C194.943 14.1685 195.749 13.1558 195.749 11.5454V11.5371C195.749 9.93506 194.935 8.92236 193.765 8.92236C192.561 8.92236 191.797 9.91016 191.797 11.5371V11.5454C191.797 13.1641 192.553 14.1685 193.765 14.1685ZM201.044 5.95068C200.314 5.95068 199.75 5.37793 199.75 4.68896C199.75 4 200.314 3.42725 201.044 3.42725C201.775 3.42725 202.339 4 202.339 4.68896C202.339 5.37793 201.775 5.95068 201.044 5.95068ZM199.833 15.9946V7.09619H202.256V15.9946H199.833ZM203.883 15.9946V7.09619H206.307V8.55713H206.357C206.813 7.53613 207.727 6.91357 209.071 6.91357C211.03 6.91357 212.143 8.16699 212.143 10.2505V15.9946H209.719V10.7485C209.719 9.58643 209.171 8.92236 208.083 8.92236C206.996 8.92236 206.307 9.71924 206.307 10.8813V15.9946H203.883ZM217.837 19.0825C215.388 19.0825 213.844 17.9785 213.612 16.5508L213.604 16.4761H215.961L215.986 16.5342C216.177 16.9741 216.824 17.356 217.837 17.356C219.09 17.356 219.754 16.7085 219.754 15.7124V14.3511H219.705C219.24 15.2808 218.244 15.8701 216.957 15.8701C214.732 15.8701 213.354 14.21 213.354 11.4458V11.4375C213.354 8.59863 214.749 6.91357 216.999 6.91357C218.252 6.91357 219.223 7.57764 219.705 8.61523H219.754V7.09619H222.178V15.7456C222.178 17.7295 220.51 19.0825 217.837 19.0825ZM217.795 14.0938C218.982 14.0938 219.763 13.0977 219.763 11.5039V11.4956C219.763 9.91016 218.974 8.92236 217.795 8.92236C216.592 8.92236 215.82 9.90186 215.82 11.4956V11.5039C215.82 13.106 216.583 14.0938 217.795 14.0938Z" fill="white"/>
<line x1="158.602" y1="68" x2="158.602" y2="25.6686" stroke="white" stroke-opacity="0.4"/>
<line x1="157.973" y1="67.5" x2="4.00049" y2="67.5" stroke="white" stroke-opacity="0.4"/>
<circle cx="159.101" cy="29.5579" r="3.8894" fill="#D9D9D9"/>
<circle cx="3.99976" cy="66.9998" r="3.8894" fill="#D9D9D9"/>
</svg>
