<svg width="89" height="61" viewBox="0 0 89 61" fill="none" xmlns="http://www.w3.org/2000/svg">
<mask id="path-1-outside-1_1126_2631" maskUnits="userSpaceOnUse" x="-0.38916" y="-0.525513" width="89" height="62" fill="black">
<rect fill="white" x="-0.38916" y="-0.525513" width="89" height="62"/>
<path fill-rule="evenodd" clip-rule="evenodd" d="M20.1395 25.8366C22.2939 25.8366 24.2434 24.9665 25.6516 23.5649C27.0634 22.1598 27.9339 20.2195 27.9339 18.0789C27.9339 15.9347 27.0598 13.9943 25.6516 12.5928C24.2397 11.1876 22.2902 10.3212 20.1395 10.3212C17.9851 10.3212 16.0356 11.1912 14.6274 12.5928C13.2155 13.998 12.345 15.9383 12.345 18.0789C12.345 20.2231 13.2192 22.1634 14.6274 23.5649C16.0356 24.9701 17.9851 25.8366 20.1395 25.8366ZM69.7667 48.9786C68.717 43.0338 65.6007 37.7953 61.1822 34.0274C60.0154 33.0336 58.7572 32.1381 57.4184 31.3626C57.3965 31.3517 57.3745 31.3371 57.3526 31.3226C53.5742 29.142 49.185 27.8933 44.5029 27.8933H44.4956C39.8101 27.8933 35.4209 29.1419 31.6459 31.3226C31.6239 31.3371 31.602 31.3481 31.58 31.3626C30.2449 32.138 28.9868 33.03 27.8163 34.0274C23.3978 37.7953 20.2815 43.0338 19.2317 48.9786C22.2091 51.84 25.9582 54.1844 30.2265 55.8153C34.5316 57.4643 39.3743 58.3854 44.4986 58.3854C49.6266 58.3854 54.4661 57.4607 58.7706 55.8153C63.0428 54.1807 66.7882 51.8363 69.7654 48.9786H69.7667ZM62.5757 32.404C61.7308 31.6832 60.8456 31.0133 59.9203 30.3982C61.0249 29.7465 62.2063 29.2151 63.4426 28.8182C65.1434 28.2722 66.965 27.9773 68.8633 27.9773C73.2343 27.9773 77.2321 29.5609 80.3085 32.182C83.2968 34.7303 85.4182 38.2614 86.1644 42.2693C84.3136 44.0167 82.0386 45.4801 79.4636 46.5578C77.1446 47.5298 74.5807 48.1959 71.863 48.4763C70.6998 42.0873 67.3344 36.4626 62.5757 32.404ZM71.0688 50.6897C67.9196 53.6602 63.9949 56.0993 59.5403 57.803C54.9829 59.5468 49.8808 60.5224 44.5033 60.5224C39.1265 60.5224 34.0244 59.5431 29.4662 57.803C25.0112 56.0993 21.0865 53.6639 17.9377 50.6897C14.6312 50.453 11.5112 49.6958 8.71303 48.5236C5.71741 47.2677 3.08754 45.5313 0.984374 43.4489C0.713709 43.2159 0.567402 42.8592 0.622264 42.4842C1.35746 37.737 3.7971 33.5506 7.30116 30.5618C9.48841 28.6943 12.0927 27.2964 14.9494 26.5246C14.28 26.1132 13.6582 25.6291 13.1059 25.0757C11.3063 23.2846 10.1907 20.8092 10.1907 18.0752C10.1907 15.3413 11.3063 12.8659 13.1059 11.0747C14.9055 9.28365 17.3926 8.17333 20.1395 8.17333C22.8865 8.17333 25.3736 9.28365 27.1732 11.0747C28.9728 12.8659 30.0884 15.3413 30.0884 18.0752C30.0884 20.8092 28.9728 23.2846 27.1732 25.0757C26.6173 25.6291 25.9991 26.1133 25.3261 26.5246C25.626 26.6047 25.9186 26.6921 26.2149 26.7867C27.9779 27.3546 29.6275 28.1592 31.1308 29.1603C33.362 27.9408 35.776 27.0161 38.3254 26.4409C37.0013 25.7783 35.8016 24.9083 34.7628 23.878C32.2683 21.3952 30.7284 17.9697 30.7284 14.184C30.7284 10.3982 32.2719 6.96865 34.7628 4.48986C37.2574 2.00707 40.6992 0.474487 44.5029 0.474487C48.3066 0.474487 51.7524 2.0107 54.243 4.48986C56.7375 6.97266 58.2774 10.3982 58.2774 14.184C58.2774 17.9697 56.7339 21.3956 54.243 23.878C53.2078 24.9083 52.0045 25.7784 50.6804 26.4409C53.2298 27.0161 55.6438 27.9408 57.875 29.1603C59.3783 28.1592 61.0279 27.3547 62.7909 26.7867C63.0835 26.6921 63.3798 26.6047 63.6797 26.5246C63.0067 26.1132 62.3886 25.6291 61.8326 25.0757C60.033 23.2846 58.9174 20.8092 58.9174 18.0752C58.9174 15.3413 60.0293 12.8659 61.8326 11.0747C63.6322 9.28365 66.1193 8.17333 68.8663 8.17333C71.6132 8.17333 74.1003 9.28365 75.8999 11.0747C77.6995 12.8659 78.8151 15.3413 78.8151 18.0752C78.8151 20.8092 77.6995 23.2846 75.8999 25.0757C75.3476 25.6254 74.7258 26.1133 74.0564 26.5246C76.9167 27.3 79.5173 28.6979 81.7046 30.5618C85.2087 33.5505 87.6484 37.737 88.3835 42.4842H88.3799C88.4274 42.8082 88.3287 43.1467 88.0799 43.3943C85.9658 45.502 83.3177 47.2567 80.2964 48.5236C77.4946 49.6994 74.3718 50.4567 71.0688 50.6897ZM17.1399 48.4799C14.4223 48.196 11.8583 47.5334 9.53927 46.5614C6.96427 45.4802 4.68919 44.0204 2.83847 42.273C3.58464 38.2649 5.70608 34.7337 8.69439 32.1856C11.7705 29.5645 15.7683 27.981 20.1396 27.981C22.0379 27.981 23.8595 28.2758 25.5603 28.8219C26.8002 29.2187 27.978 29.7538 29.0826 30.4018C28.1572 31.0171 27.2684 31.6869 26.4271 32.4077C21.6649 36.4631 18.3031 42.0877 17.1399 48.4799ZM44.4995 25.7563H44.5032C47.711 25.7563 50.6151 24.4604 52.7183 22.3671C54.8214 20.2739 56.1235 17.3797 56.1235 14.1872C56.1235 10.9909 54.8214 8.10045 52.7183 6.00721C50.6151 3.91397 47.7072 2.61801 44.4995 2.61801C41.2881 2.61801 38.384 3.91397 36.2808 6.00721C34.1776 8.10045 32.8755 10.9946 32.8755 14.1872C32.8755 17.3835 34.1776 20.2739 36.2808 22.3671C38.384 24.4604 41.2882 25.7563 44.4959 25.7563H44.4995ZM68.8637 25.8364C71.0181 25.8364 72.9676 24.9664 74.3758 23.5648C75.7877 22.1596 76.6582 20.2193 76.6582 18.0787C76.6582 15.9345 75.784 13.9942 74.3758 12.5926C72.964 11.1875 71.0144 10.321 68.8637 10.321C66.7093 10.321 64.7598 11.1911 63.3516 12.5926C61.9398 13.9978 61.0692 15.9381 61.0692 18.0787C61.0692 20.2229 61.9434 22.1632 63.3516 23.5648C64.7598 24.97 66.7093 25.8364 68.8637 25.8364Z"/>
</mask>
<path fill-rule="evenodd" clip-rule="evenodd" d="M20.1395 25.8366C22.2939 25.8366 24.2434 24.9665 25.6516 23.5649C27.0634 22.1598 27.9339 20.2195 27.9339 18.0789C27.9339 15.9347 27.0598 13.9943 25.6516 12.5928C24.2397 11.1876 22.2902 10.3212 20.1395 10.3212C17.9851 10.3212 16.0356 11.1912 14.6274 12.5928C13.2155 13.998 12.345 15.9383 12.345 18.0789C12.345 20.2231 13.2192 22.1634 14.6274 23.5649C16.0356 24.9701 17.9851 25.8366 20.1395 25.8366ZM69.7667 48.9786C68.717 43.0338 65.6007 37.7953 61.1822 34.0274C60.0154 33.0336 58.7572 32.1381 57.4184 31.3626C57.3965 31.3517 57.3745 31.3371 57.3526 31.3226C53.5742 29.142 49.185 27.8933 44.5029 27.8933H44.4956C39.8101 27.8933 35.4209 29.1419 31.6459 31.3226C31.6239 31.3371 31.602 31.3481 31.58 31.3626C30.2449 32.138 28.9868 33.03 27.8163 34.0274C23.3978 37.7953 20.2815 43.0338 19.2317 48.9786C22.2091 51.84 25.9582 54.1844 30.2265 55.8153C34.5316 57.4643 39.3743 58.3854 44.4986 58.3854C49.6266 58.3854 54.4661 57.4607 58.7706 55.8153C63.0428 54.1807 66.7882 51.8363 69.7654 48.9786H69.7667ZM62.5757 32.404C61.7308 31.6832 60.8456 31.0133 59.9203 30.3982C61.0249 29.7465 62.2063 29.2151 63.4426 28.8182C65.1434 28.2722 66.965 27.9773 68.8633 27.9773C73.2343 27.9773 77.2321 29.5609 80.3085 32.182C83.2968 34.7303 85.4182 38.2614 86.1644 42.2693C84.3136 44.0167 82.0386 45.4801 79.4636 46.5578C77.1446 47.5298 74.5807 48.1959 71.863 48.4763C70.6998 42.0873 67.3344 36.4626 62.5757 32.404ZM71.0688 50.6897C67.9196 53.6602 63.9949 56.0993 59.5403 57.803C54.9829 59.5468 49.8808 60.5224 44.5033 60.5224C39.1265 60.5224 34.0244 59.5431 29.4662 57.803C25.0112 56.0993 21.0865 53.6639 17.9377 50.6897C14.6312 50.453 11.5112 49.6958 8.71303 48.5236C5.71741 47.2677 3.08754 45.5313 0.984374 43.4489C0.713709 43.2159 0.567402 42.8592 0.622264 42.4842C1.35746 37.737 3.7971 33.5506 7.30116 30.5618C9.48841 28.6943 12.0927 27.2964 14.9494 26.5246C14.28 26.1132 13.6582 25.6291 13.1059 25.0757C11.3063 23.2846 10.1907 20.8092 10.1907 18.0752C10.1907 15.3413 11.3063 12.8659 13.1059 11.0747C14.9055 9.28365 17.3926 8.17333 20.1395 8.17333C22.8865 8.17333 25.3736 9.28365 27.1732 11.0747C28.9728 12.8659 30.0884 15.3413 30.0884 18.0752C30.0884 20.8092 28.9728 23.2846 27.1732 25.0757C26.6173 25.6291 25.9991 26.1133 25.3261 26.5246C25.626 26.6047 25.9186 26.6921 26.2149 26.7867C27.9779 27.3546 29.6275 28.1592 31.1308 29.1603C33.362 27.9408 35.776 27.0161 38.3254 26.4409C37.0013 25.7783 35.8016 24.9083 34.7628 23.878C32.2683 21.3952 30.7284 17.9697 30.7284 14.184C30.7284 10.3982 32.2719 6.96865 34.7628 4.48986C37.2574 2.00707 40.6992 0.474487 44.5029 0.474487C48.3066 0.474487 51.7524 2.0107 54.243 4.48986C56.7375 6.97266 58.2774 10.3982 58.2774 14.184C58.2774 17.9697 56.7339 21.3956 54.243 23.878C53.2078 24.9083 52.0045 25.7784 50.6804 26.4409C53.2298 27.0161 55.6438 27.9408 57.875 29.1603C59.3783 28.1592 61.0279 27.3547 62.7909 26.7867C63.0835 26.6921 63.3798 26.6047 63.6797 26.5246C63.0067 26.1132 62.3886 25.6291 61.8326 25.0757C60.033 23.2846 58.9174 20.8092 58.9174 18.0752C58.9174 15.3413 60.0293 12.8659 61.8326 11.0747C63.6322 9.28365 66.1193 8.17333 68.8663 8.17333C71.6132 8.17333 74.1003 9.28365 75.8999 11.0747C77.6995 12.8659 78.8151 15.3413 78.8151 18.0752C78.8151 20.8092 77.6995 23.2846 75.8999 25.0757C75.3476 25.6254 74.7258 26.1133 74.0564 26.5246C76.9167 27.3 79.5173 28.6979 81.7046 30.5618C85.2087 33.5505 87.6484 37.737 88.3835 42.4842H88.3799C88.4274 42.8082 88.3287 43.1467 88.0799 43.3943C85.9658 45.502 83.3177 47.2567 80.2964 48.5236C77.4946 49.6994 74.3718 50.4567 71.0688 50.6897ZM17.1399 48.4799C14.4223 48.196 11.8583 47.5334 9.53927 46.5614C6.96427 45.4802 4.68919 44.0204 2.83847 42.273C3.58464 38.2649 5.70608 34.7337 8.69439 32.1856C11.7705 29.5645 15.7683 27.981 20.1396 27.981C22.0379 27.981 23.8595 28.2758 25.5603 28.8219C26.8002 29.2187 27.978 29.7538 29.0826 30.4018C28.1572 31.0171 27.2684 31.6869 26.4271 32.4077C21.6649 36.4631 18.3031 42.0877 17.1399 48.4799ZM44.4995 25.7563H44.5032C47.711 25.7563 50.6151 24.4604 52.7183 22.3671C54.8214 20.2739 56.1235 17.3797 56.1235 14.1872C56.1235 10.9909 54.8214 8.10045 52.7183 6.00721C50.6151 3.91397 47.7072 2.61801 44.4995 2.61801C41.2881 2.61801 38.384 3.91397 36.2808 6.00721C34.1776 8.10045 32.8755 10.9946 32.8755 14.1872C32.8755 17.3835 34.1776 20.2739 36.2808 22.3671C38.384 24.4604 41.2882 25.7563 44.4959 25.7563H44.4995ZM68.8637 25.8364C71.0181 25.8364 72.9676 24.9664 74.3758 23.5648C75.7877 22.1596 76.6582 20.2193 76.6582 18.0787C76.6582 15.9345 75.784 13.9942 74.3758 12.5926C72.964 11.1875 71.0144 10.321 68.8637 10.321C66.7093 10.321 64.7598 11.1911 63.3516 12.5926C61.9398 13.9978 61.0692 15.9381 61.0692 18.0787C61.0692 20.2229 61.9434 22.1632 63.3516 23.5648C64.7598 24.97 66.7093 25.8364 68.8637 25.8364Z" fill="#E6AF2E"/>
<path fill-rule="evenodd" clip-rule="evenodd" d="M20.1395 25.8366C22.2939 25.8366 24.2434 24.9665 25.6516 23.5649C27.0634 22.1598 27.9339 20.2195 27.9339 18.0789C27.9339 15.9347 27.0598 13.9943 25.6516 12.5928C24.2397 11.1876 22.2902 10.3212 20.1395 10.3212C17.9851 10.3212 16.0356 11.1912 14.6274 12.5928C13.2155 13.998 12.345 15.9383 12.345 18.0789C12.345 20.2231 13.2192 22.1634 14.6274 23.5649C16.0356 24.9701 17.9851 25.8366 20.1395 25.8366ZM69.7667 48.9786C68.717 43.0338 65.6007 37.7953 61.1822 34.0274C60.0154 33.0336 58.7572 32.1381 57.4184 31.3626C57.3965 31.3517 57.3745 31.3371 57.3526 31.3226C53.5742 29.142 49.185 27.8933 44.5029 27.8933H44.4956C39.8101 27.8933 35.4209 29.1419 31.6459 31.3226C31.6239 31.3371 31.602 31.3481 31.58 31.3626C30.2449 32.138 28.9868 33.03 27.8163 34.0274C23.3978 37.7953 20.2815 43.0338 19.2317 48.9786C22.2091 51.84 25.9582 54.1844 30.2265 55.8153C34.5316 57.4643 39.3743 58.3854 44.4986 58.3854C49.6266 58.3854 54.4661 57.4607 58.7706 55.8153C63.0428 54.1807 66.7882 51.8363 69.7654 48.9786H69.7667ZM62.5757 32.404C61.7308 31.6832 60.8456 31.0133 59.9203 30.3982C61.0249 29.7465 62.2063 29.2151 63.4426 28.8182C65.1434 28.2722 66.965 27.9773 68.8633 27.9773C73.2343 27.9773 77.2321 29.5609 80.3085 32.182C83.2968 34.7303 85.4182 38.2614 86.1644 42.2693C84.3136 44.0167 82.0386 45.4801 79.4636 46.5578C77.1446 47.5298 74.5807 48.1959 71.863 48.4763C70.6998 42.0873 67.3344 36.4626 62.5757 32.404ZM71.0688 50.6897C67.9196 53.6602 63.9949 56.0993 59.5403 57.803C54.9829 59.5468 49.8808 60.5224 44.5033 60.5224C39.1265 60.5224 34.0244 59.5431 29.4662 57.803C25.0112 56.0993 21.0865 53.6639 17.9377 50.6897C14.6312 50.453 11.5112 49.6958 8.71303 48.5236C5.71741 47.2677 3.08754 45.5313 0.984374 43.4489C0.713709 43.2159 0.567402 42.8592 0.622264 42.4842C1.35746 37.737 3.7971 33.5506 7.30116 30.5618C9.48841 28.6943 12.0927 27.2964 14.9494 26.5246C14.28 26.1132 13.6582 25.6291 13.1059 25.0757C11.3063 23.2846 10.1907 20.8092 10.1907 18.0752C10.1907 15.3413 11.3063 12.8659 13.1059 11.0747C14.9055 9.28365 17.3926 8.17333 20.1395 8.17333C22.8865 8.17333 25.3736 9.28365 27.1732 11.0747C28.9728 12.8659 30.0884 15.3413 30.0884 18.0752C30.0884 20.8092 28.9728 23.2846 27.1732 25.0757C26.6173 25.6291 25.9991 26.1133 25.3261 26.5246C25.626 26.6047 25.9186 26.6921 26.2149 26.7867C27.9779 27.3546 29.6275 28.1592 31.1308 29.1603C33.362 27.9408 35.776 27.0161 38.3254 26.4409C37.0013 25.7783 35.8016 24.9083 34.7628 23.878C32.2683 21.3952 30.7284 17.9697 30.7284 14.184C30.7284 10.3982 32.2719 6.96865 34.7628 4.48986C37.2574 2.00707 40.6992 0.474487 44.5029 0.474487C48.3066 0.474487 51.7524 2.0107 54.243 4.48986C56.7375 6.97266 58.2774 10.3982 58.2774 14.184C58.2774 17.9697 56.7339 21.3956 54.243 23.878C53.2078 24.9083 52.0045 25.7784 50.6804 26.4409C53.2298 27.0161 55.6438 27.9408 57.875 29.1603C59.3783 28.1592 61.0279 27.3547 62.7909 26.7867C63.0835 26.6921 63.3798 26.6047 63.6797 26.5246C63.0067 26.1132 62.3886 25.6291 61.8326 25.0757C60.033 23.2846 58.9174 20.8092 58.9174 18.0752C58.9174 15.3413 60.0293 12.8659 61.8326 11.0747C63.6322 9.28365 66.1193 8.17333 68.8663 8.17333C71.6132 8.17333 74.1003 9.28365 75.8999 11.0747C77.6995 12.8659 78.8151 15.3413 78.8151 18.0752C78.8151 20.8092 77.6995 23.2846 75.8999 25.0757C75.3476 25.6254 74.7258 26.1133 74.0564 26.5246C76.9167 27.3 79.5173 28.6979 81.7046 30.5618C85.2087 33.5505 87.6484 37.737 88.3835 42.4842H88.3799C88.4274 42.8082 88.3287 43.1467 88.0799 43.3943C85.9658 45.502 83.3177 47.2567 80.2964 48.5236C77.4946 49.6994 74.3718 50.4567 71.0688 50.6897ZM17.1399 48.4799C14.4223 48.196 11.8583 47.5334 9.53927 46.5614C6.96427 45.4802 4.68919 44.0204 2.83847 42.273C3.58464 38.2649 5.70608 34.7337 8.69439 32.1856C11.7705 29.5645 15.7683 27.981 20.1396 27.981C22.0379 27.981 23.8595 28.2758 25.5603 28.8219C26.8002 29.2187 27.978 29.7538 29.0826 30.4018C28.1572 31.0171 27.2684 31.6869 26.4271 32.4077C21.6649 36.4631 18.3031 42.0877 17.1399 48.4799ZM44.4995 25.7563H44.5032C47.711 25.7563 50.6151 24.4604 52.7183 22.3671C54.8214 20.2739 56.1235 17.3797 56.1235 14.1872C56.1235 10.9909 54.8214 8.10045 52.7183 6.00721C50.6151 3.91397 47.7072 2.61801 44.4995 2.61801C41.2881 2.61801 38.384 3.91397 36.2808 6.00721C34.1776 8.10045 32.8755 10.9946 32.8755 14.1872C32.8755 17.3835 34.1776 20.2739 36.2808 22.3671C38.384 24.4604 41.2882 25.7563 44.4959 25.7563H44.4995ZM68.8637 25.8364C71.0181 25.8364 72.9676 24.9664 74.3758 23.5648C75.7877 22.1596 76.6582 20.2193 76.6582 18.0787C76.6582 15.9345 75.784 13.9942 74.3758 12.5926C72.964 11.1875 71.0144 10.321 68.8637 10.321C66.7093 10.321 64.7598 11.1911 63.3516 12.5926C61.9398 13.9978 61.0692 15.9381 61.0692 18.0787C61.0692 20.2229 61.9434 22.1632 63.3516 23.5648C64.7598 24.97 66.7093 25.8364 68.8637 25.8364Z" stroke="#E6AF2E" stroke-width="0.2" mask="url(#path-1-outside-1_1126_2631)"/>
</svg>
