<svg width="73" height="92" viewBox="0 0 73 92" fill="none" xmlns="http://www.w3.org/2000/svg">
<g clip-path="url(#clip0_1126_2646)">
<path d="M36.8026 92.05C36.4492 92.05 36.0924 91.8727 35.9158 91.5146C35.5624 90.9791 35.7391 90.2698 36.2691 90.0021L56.3987 76.741C62.6063 72.645 66.33 65.7053 66.33 58.2256L66.3334 27.7842C66.3334 27.1618 66.8669 26.7168 67.3969 26.7168C67.9303 26.7168 68.4603 27.2523 68.4603 27.7842V58.1392C68.4603 66.4181 64.3796 73.9843 57.4657 78.5213L37.3362 91.7859C37.1595 91.9632 36.9827 92.05 36.8026 92.05Z" fill="#E6AF2E"/>
<path d="M33.2555 86.6229C33.0789 86.6229 32.8121 86.5325 32.6355 86.4456L12.5059 73.181C7.45183 69.8882 4.43457 64.1889 4.43457 58.1397V27.7847C4.43457 27.1623 4.96804 26.7172 5.49802 26.7172C18.0897 26.7172 27.6681 23.3341 32.3691 17.103C32.8125 16.5676 33.6993 16.5676 34.1427 17.103C38.8434 23.3339 48.422 26.7172 61.0137 26.7172C61.6338 26.7172 62.0772 27.2527 62.0772 27.7847V58.1397C62.0772 64.1932 59.0634 69.8021 54.0058 73.181L33.8798 86.4456C33.6997 86.6229 33.4356 86.6229 33.2555 86.6229ZM6.65142 28.942V58.2253C6.65142 63.566 9.31183 68.4617 13.7458 71.4L33.2555 84.3068L52.7652 71.4C57.1992 68.4619 59.8596 63.5662 59.8596 58.2253V28.942C50.9916 28.7647 39.7301 26.9845 33.2555 19.5049C26.7846 26.8937 15.5195 28.764 6.65142 28.942Z" fill="#E6AF2E"/>
<path d="M25.2739 47.1896L33.2552 57.9619L25.2739 47.1896Z" fill="#E6AF2E"/>
<path d="M33.2552 59.1155C32.9019 59.1155 32.5451 58.9382 32.3684 58.6704L24.3872 47.8982C24.0339 47.3627 24.1205 46.7403 24.6539 46.3857C25.1874 46.031 25.8075 46.1179 26.1608 46.6534L34.142 57.4257C34.4954 57.9611 34.4087 58.5835 33.8753 58.9382C33.6986 59.0286 33.522 59.1155 33.2552 59.1155Z" fill="#E6AF2E"/>
<path d="M48.0686 38.7334L33.2563 57.9618L48.0686 38.7334Z" fill="#E6AF2E"/>
<path d="M33.2553 59.1156C32.9885 59.1156 32.8119 59.0252 32.5451 58.8478C32.1017 58.4932 32.0117 57.7804 32.3685 57.2449L47.1772 38.0165C47.5305 37.5714 48.2406 37.481 48.7741 37.8391C49.2175 38.1938 49.3076 38.9066 48.9508 39.4421L34.1421 58.6705C33.8788 58.9382 33.6121 59.1156 33.2553 59.1156Z" fill="#E6AF2E"/>
<path d="M33.2553 68.1983C23.5909 68.1983 15.7861 60.3646 15.7861 50.6638C15.7861 40.9632 23.5907 33.1293 33.2553 33.1293C36.9791 33.1293 40.5264 34.2871 43.544 36.5125C44.0774 36.8671 44.164 37.5799 43.8107 38.025C43.4574 38.5604 42.7472 38.6473 42.3038 38.2927C39.7335 36.422 36.6297 35.3546 33.3454 35.3546C24.9207 35.3546 18.0932 42.2078 18.0932 50.6638C18.0932 59.1198 24.9209 65.973 33.3454 65.973C41.7698 65.973 48.5975 59.1198 48.5975 50.6638C48.5975 49.0609 48.3308 47.5484 47.8874 46.0359C47.7107 45.4135 48.064 44.7911 48.5975 44.6102C49.2176 44.4329 49.8376 44.7876 50.0178 45.323C50.5513 47.0128 50.8145 48.7931 50.8145 50.5733C50.7279 60.3647 42.9237 68.1983 33.2553 68.1983Z" fill="#E6AF2E"/>
</g>
<defs>
<clipPath id="clip0_1126_2646">
<rect width="72" height="91" fill="white" transform="translate(0.355469 0.903198)"/>
</clipPath>
</defs>
</svg>
