<svg width="90" height="93" viewBox="0 0 90 93" fill="none" xmlns="http://www.w3.org/2000/svg">
<path d="M17.7656 50.5419C19.6895 50.5419 21.2581 52.0669 21.3213 53.9696L25.9316 52.6766L26.5361 52.5214C29.5723 51.8115 32.7853 52.1001 35.6475 53.3485L46.7178 58.1805H46.7168C48.1223 58.793 49.1891 59.9199 49.7207 61.3524L49.8135 61.6219C50.2125 62.8871 50.1491 64.2269 49.6338 65.4481L49.5166 65.7079C49.164 66.4385 48.673 67.057 48.0889 67.5487C48.5625 67.5066 49.0361 67.4253 49.4971 67.3016L72.2939 61.1522L72.291 61.1434L72.3926 61.1151C75.6546 60.2364 79.0417 62.0579 80.0898 65.2645L80.1807 65.5663C81.0088 68.5964 79.4847 71.7681 76.5967 73.0233L76.3037 73.1415L47.7666 83.9286C46.3558 84.4625 44.8747 84.7303 43.3877 84.7303C42.4558 84.7303 41.5239 84.6265 40.6016 84.4149H40.6006L29.3359 81.826C28.2584 81.5771 27.149 81.453 26.04 81.453H21.3252V81.6659C21.3252 83.6237 19.7295 85.2128 17.7656 85.2128H12.7344C10.7705 85.2128 9.1748 83.6237 9.1748 81.6659V54.0887C9.1748 52.131 10.7705 50.5419 12.7344 50.5419H17.7656ZM12.7363 52.6249C11.9232 52.6249 11.2637 53.2823 11.2637 54.0917V81.6688C11.2637 82.4782 11.9232 83.1356 12.7363 83.1356H17.7686C18.5815 83.1354 19.2402 82.478 19.2402 81.6688V54.0917C19.2402 53.2825 18.5815 52.6251 17.7686 52.6249H12.7363ZM34.8086 55.2577C32.3608 54.1882 29.6109 53.9411 27.0146 54.5497L26.498 54.6825L21.3281 56.1307V79.3749H26.043C27.3085 79.3749 28.5739 79.5199 29.8076 79.8036L41.0732 82.3925L41.4463 82.4716C43.3168 82.8317 45.2381 82.6633 47.0283 81.9882L75.5654 71.202L75.6592 71.1669L75.6602 71.1708C77.7294 70.3339 78.8054 68.0483 78.1094 65.9218L78.0391 65.7225C77.2861 63.7594 75.1979 62.6364 73.1455 63.0878L72.9404 63.1376L50.042 69.3134L50.043 69.3143C47.9796 69.8721 45.7682 69.7706 43.7676 69.036L43.3701 68.8807L31.2061 63.83C30.6739 63.6116 30.4197 63.0005 30.6426 62.4696C30.8625 61.9353 31.4814 61.6911 32.0059 61.9091L43.1211 66.5214H43.1201C44.8451 67.2345 46.8267 66.4817 47.6338 64.8094L47.708 64.6464C48.0314 63.8808 48.0706 63.0425 47.8203 62.2489L47.7627 62.08C47.4262 61.1806 46.7596 60.4747 45.8789 60.0907V60.0897L34.8086 55.2577Z" fill="#E6AF2E" stroke="#E6AF2E" stroke-width="0.2"/>
<path d="M69.5122 12.9459C72.617 12.8439 75.5067 14.1069 78.103 16.694L78.3188 16.9156C80.4487 19.1644 81.6709 22.39 81.7114 25.8571V26.2047C81.6654 30.422 79.9075 34.4536 76.7563 37.6061L76.4468 37.9088C71.8968 42.2515 63.6484 49.2231 60.312 52.0182H60.311C59.6479 52.5725 58.836 52.8502 58.0239 52.8502C57.2117 52.8502 56.399 52.5727 55.7358 52.0182L55.7368 52.0153C52.6054 49.3919 45.1669 43.1067 40.5024 38.7526L39.6079 37.9088C36.3638 34.8166 34.5098 30.8169 34.354 26.6119L34.3442 26.2047C34.3031 22.4897 35.6163 19.022 37.9526 16.694L38.4585 16.2096C41.0062 13.8716 43.8171 12.7765 46.8442 12.9606L47.3335 13.0026C49.7652 13.2654 51.9844 14.3327 53.8091 15.5641C55.7005 16.8406 57.173 18.2982 58.0269 19.2311C58.8806 18.2982 60.3538 16.8408 62.2456 15.5641C64.1919 14.2506 66.5871 13.1235 69.2104 12.9606L69.5122 12.9459ZM69.3394 15.0348C66.5081 15.2084 63.9353 16.747 62.0405 18.2828C60.6206 19.4339 59.5881 20.5781 59.1206 21.1295L58.8481 21.4615C58.6483 21.7187 58.3333 21.8434 58.0249 21.8434C57.7167 21.8433 57.4024 21.7185 57.2026 21.4615V21.4606C57.0972 21.3286 55.8935 19.8133 54.0083 18.2848C52.114 16.749 49.5426 15.21 46.7114 15.0348V15.0338C46.5399 15.0245 46.3691 15.0192 46.1987 15.0192C43.7999 15.0192 41.5247 16.0698 39.4224 18.1647L39.354 18.2321L39.353 18.2311C37.461 20.1615 36.3895 23.0469 36.4233 26.1774V26.1783L36.4312 26.5328C36.5626 30.0742 38.0911 33.4596 40.772 36.1383L41.0435 36.4039L41.9302 37.2399C46.5577 41.5575 53.9634 47.8169 57.0776 50.4264L57.1831 50.5074C57.7241 50.8835 58.455 50.8581 58.9683 50.4264L62.2417 47.6666C66.1621 44.3404 71.6231 39.6329 75.0034 36.4078L75.2749 36.1422C78.0454 33.3741 79.5842 29.8509 79.6235 26.1813L79.6167 25.5905C79.5212 22.7505 78.5147 20.153 76.8071 18.3483L76.6274 18.1647C74.516 16.0608 72.2349 15.0097 69.8228 15.0192L69.3394 15.0348Z" fill="#E6AF2E" stroke="#E6AF2E" stroke-width="0.2"/>
</svg>
