<svg width="67" height="76" viewBox="0 0 67 76" fill="none" xmlns="http://www.w3.org/2000/svg">
<path fill-rule="evenodd" clip-rule="evenodd" d="M60.2082 9.37488L61.5548 12.5761L65.0375 12.8588C65.3254 12.8803 65.5886 12.9878 65.8084 13.1599C66.0282 13.3319 66.1923 13.5623 66.2789 13.8296C66.3687 14.103 66.3718 14.3857 66.2975 14.6468C66.2232 14.9111 66.0715 15.1476 65.8517 15.3381L63.2017 17.5962L64.0097 20.9757C64.0778 21.2522 64.0561 21.5348 63.9602 21.7899V21.7929C63.8642 22.0479 63.6939 22.2753 63.4586 22.4442C63.2265 22.6101 62.9571 22.6992 62.6785 22.7115C62.403 22.7207 62.1275 22.6531 61.8798 22.5057L58.8924 20.7023L55.9051 22.5057C55.6574 22.6562 55.3819 22.7238 55.1095 22.7115C54.8308 22.6992 54.5615 22.6101 54.3293 22.4442C54.094 22.2753 53.9238 22.0479 53.8278 21.7929C53.8185 21.7653 53.8092 21.7407 53.803 21.7131C53.7318 21.4796 53.7195 21.2246 53.7814 20.9757L54.5893 17.5962L51.9393 15.3381C51.7195 15.1507 51.5678 14.9111 51.4935 14.6469C51.4193 14.3827 51.4223 14.1 51.5121 13.8296C51.6019 13.5593 51.766 13.3319 51.9827 13.1599C52.2025 12.9879 52.4656 12.8834 52.7535 12.8588L56.2362 12.5762L57.5829 9.37492C57.6943 9.1107 57.877 8.89258 58.1091 8.73897C58.3351 8.58842 58.6076 8.50855 58.8955 8.50855V8.5024C59.1834 8.5024 59.4527 8.58535 59.6818 8.73896C59.914 8.89257 60.0968 9.1076 60.2082 9.37488ZM2.45379 62.0975C2.45379 62.6321 2.01839 61.6614 1.47971 61.6614C0.666485 61.6614 0.50452 62.6321 0.50452 62.0975L0.503418 46.2386C0.503418 45.704 0.939919 45.2708 1.47861 45.2708C1.50647 45.2708 1.53743 45.2708 1.56529 45.2738H13.1962C13.2829 44.8775 13.4841 44.5242 13.7627 44.2446C14.1404 43.8668 14.6698 43.6271 15.2518 43.6148L21.0501 43.5042H21.0842C21.6631 43.5012 22.1863 43.7347 22.5671 44.1125C22.9354 44.4781 23.1707 44.979 23.1924 45.5319C28.1642 44.9666 31.4797 43.5565 33.5759 41.068C35.8389 38.3828 36.7676 34.3705 36.8915 28.7609C36.941 26.469 38.0617 24.9882 39.5507 24.2663C40.2256 23.9376 40.9748 23.7747 41.7302 23.7655C42.4731 23.7594 43.2254 23.9038 43.925 24.1956C45.6029 24.8992 46.9681 26.4323 47.1353 28.7118C47.3613 31.7441 47.3985 34.2664 47.2096 36.5337C47.0579 38.3464 46.7639 39.9992 46.3057 41.6152L54.6089 41.609C60.4227 41.6029 61.2059 49.4401 56.519 51.1854C58.3362 53.2868 58.0916 56.8075 55.841 58.5188C59.0049 60.9243 58.0792 66.5001 53.9309 67.3487C54.1971 67.699 54.4138 68.083 54.5779 68.4916C54.8348 69.1245 54.9618 69.8065 54.9618 70.4823C54.9618 71.1582 54.8348 71.8372 54.5779 72.4731C53.9061 74.1352 52.3769 75.4347 50.0024 75.4347L37.3468 75.4409V75.4439C34.0343 75.4439 31.8332 74.4424 29.5021 73.3794C27.6664 72.5438 25.7377 71.6651 23.0846 71.2903C22.9794 71.5207 22.8339 71.7296 22.6543 71.9078C22.2766 72.2857 21.7473 72.5254 21.1652 72.5376L15.3669 72.6482H15.3328C14.7539 72.6513 14.2308 72.4178 13.85 72.0399C13.5404 71.7358 13.3268 71.3333 13.2525 70.8879L1.47971 70.8848C0.941044 70.8848 0.50452 70.4516 0.50452 69.917V62.6292C0.50452 62.0947 0.941021 61.6614 1.47971 61.6614C2.45379 62.0975 2.45379 62.3788 2.45379 62.9134L2.45489 68.9463H13.2188L13.1538 47.2037H2.45487L2.45379 62.0975ZM15.1649 69.827C15.168 69.8547 15.168 69.8854 15.168 69.9161C15.168 69.9438 15.168 69.9714 15.1649 69.9991L15.168 70.5337V70.5459C15.168 70.592 15.1897 70.635 15.2237 70.6688C15.2547 70.6965 15.2918 70.7149 15.3321 70.718H15.3414L21.1397 70.6074C21.1923 70.6074 21.2419 70.5828 21.279 70.5459C21.31 70.5152 21.3317 70.4722 21.3317 70.4261V70.2479V70.2141L21.2605 46.6965V46.6934C21.2543 46.6381 21.2543 46.5828 21.2605 46.5275L21.2574 45.6243V45.612C21.2574 45.5659 21.2357 45.5229 21.2016 45.4891C21.1707 45.4614 21.1335 45.4399 21.0964 45.4399H21.0902L15.2918 45.5505C15.2392 45.5505 15.1897 45.5751 15.1525 45.612C15.1216 45.6427 15.0999 45.6857 15.103 45.7318V46.2387L15.1649 69.827ZM23.2668 69.3662C26.2418 69.7687 28.3252 70.7211 30.3096 71.6243C32.4364 72.5921 34.4424 73.5076 37.3463 73.5076V73.5106H49.9956C51.4444 73.5106 52.3669 72.7426 52.7663 71.7594C52.9272 71.3631 53.0077 70.9299 53.0077 70.4875C53.0077 70.0482 52.9272 69.6119 52.7663 69.2156C52.3948 68.297 51.562 67.5658 50.2711 67.4737H42.6401C42.1014 67.4737 41.6649 67.0405 41.6649 66.5059C41.6649 65.9713 42.1014 65.5381 42.6401 65.5381C46.0145 65.5381 49.3888 65.535 52.7629 65.535V65.532C56.9081 65.532 56.4839 59.5626 53.2055 59.5626L42.6398 59.5596C42.1011 59.5596 41.6646 59.1264 41.6646 58.5918C41.6646 58.0572 42.1011 57.624 42.6398 57.624L52.7625 57.5626C56.6817 57.5626 56.7746 51.8328 53.0814 51.5317H42.6392C42.1006 51.5317 41.664 51.0986 41.664 50.564C41.664 50.0294 42.1005 49.5962 42.6392 49.5962C46.6297 49.5962 50.6198 49.59 54.6046 49.59C58.626 49.59 58.6291 43.5408 54.6046 43.547L45.0263 43.5562C44.9086 43.5623 44.791 43.547 44.6734 43.507C44.1626 43.338 43.8901 42.7912 44.0604 42.2843C44.695 40.4163 45.0851 38.5269 45.2615 36.3825C45.4411 34.2135 45.4039 31.7833 45.1872 28.8555C45.0789 27.3993 44.2213 26.4223 43.1657 25.983C42.7137 25.7925 42.2246 25.6973 41.7416 25.7034C41.2711 25.7065 40.8098 25.8079 40.4012 26.0045C39.5251 26.4316 38.8657 27.3471 38.8347 28.8064C38.7016 34.8648 37.6459 39.2581 35.0672 42.3152C32.5967 45.2461 28.8107 46.8806 23.1977 47.4858L23.2668 69.3662ZM39.2251 1.89696L41.3396 6.92618L46.8128 7.36859C47.1441 7.39623 47.4475 7.51913 47.7013 7.71575C47.9521 7.91237 48.1409 8.17659 48.2431 8.48996C48.3452 8.80639 48.3514 9.13206 48.2647 9.43312C48.1781 9.73727 48.0047 10.0138 47.7477 10.2288L43.584 13.7772L44.8502 19.083C44.9276 19.4056 44.9059 19.7282 44.7944 20.0231C44.683 20.3211 44.4849 20.5822 44.2155 20.7789C43.9462 20.9724 43.6366 21.0769 43.3178 21.0891C43.002 21.1014 42.6831 21.0216 42.3983 20.8495L37.7082 18.0138L33.015 20.8495C32.7302 21.0216 32.4113 21.1014 32.0955 21.0891C31.7767 21.0738 31.464 20.9724 31.1947 20.7789C30.9254 20.5853 30.7272 20.3211 30.6158 20.0231C30.5043 19.7281 30.4827 19.4025 30.5601 19.083L31.8263 13.7772L27.6625 10.2288C27.4086 10.0107 27.2322 9.73418 27.1455 9.43312C27.0588 9.12897 27.065 8.80331 27.1672 8.48996C27.2693 8.17659 27.4582 7.91237 27.7089 7.71575C27.9597 7.51913 28.2661 7.39624 28.5974 7.36859L34.0707 6.92311L36.1851 1.89388C36.3151 1.58973 36.5256 1.33781 36.7888 1.16269V1.15962C37.0488 0.98757 37.3646 0.892334 37.702 0.892334H37.7051C38.0363 0.892334 38.349 0.98757 38.6152 1.16269C38.8845 1.33781 39.0951 1.58974 39.2251 1.89696ZM39.6152 7.83867L37.7114 3.31021L35.8075 7.83867C35.6868 8.12439 35.4979 8.36095 35.2565 8.53299C35.0181 8.70812 34.7333 8.81257 34.4206 8.83715L29.4921 9.23654L33.2411 12.4347C33.4795 12.6375 33.6466 12.8894 33.7364 13.1659C33.8293 13.4486 33.8417 13.7496 33.7705 14.0477L32.6312 18.825L36.8538 16.2719C37.1232 16.1091 37.4142 16.0292 37.7082 16.0292C38.0023 16.0292 38.2933 16.1091 38.5626 16.2719L42.7852 18.825L41.646 14.0477C41.5748 13.7496 41.5903 13.4486 41.68 13.1659C41.7729 12.8863 41.9401 12.6344 42.1754 12.4347L45.9244 9.23654L40.9959 8.83715C40.6863 8.81257 40.4015 8.70504 40.16 8.53299C39.9247 8.36095 39.7359 8.12439 39.6152 7.83867ZM17.8369 9.37477L19.1836 12.576L22.6663 12.8587C22.9542 12.8802 23.2173 12.9877 23.4371 13.1597C23.6569 13.3318 23.821 13.5622 23.9077 13.8295C23.9975 14.1029 24.0006 14.3856 23.9263 14.6467C23.852 14.911 23.7003 15.1475 23.4805 15.338L20.8305 17.5961L21.6384 20.9756C21.7065 21.2521 21.6849 21.5347 21.5889 21.7897V21.7928C21.4929 22.0478 21.3227 22.2752 21.0874 22.4441C20.8552 22.61 20.5859 22.6991 20.3073 22.7114C20.0317 22.7206 19.7562 22.653 19.5117 22.5056L16.5243 20.7021L13.5369 22.5056C13.2892 22.6561 13.0137 22.7237 12.7382 22.7114C12.4596 22.6991 12.1902 22.61 11.9581 22.4441C11.7228 22.2752 11.5525 22.0478 11.4566 21.7928C11.4473 21.7652 11.438 21.7406 11.4318 21.7129C11.3606 21.4795 11.3482 21.2245 11.4101 20.9756L12.2181 17.5961L9.56808 15.338C9.34828 15.1506 9.19659 14.911 9.12229 14.6468C9.04799 14.3826 9.05109 14.0999 9.14086 13.8295C9.23064 13.5591 9.39471 13.3318 9.61142 13.1598C9.83121 12.9877 10.0944 12.8833 10.3823 12.8587L13.865 12.5761L15.2116 9.37481C15.323 9.11059 15.5057 8.89247 15.7379 8.73886C15.9639 8.58831 16.2363 8.50844 16.5242 8.50844V8.50229C16.8121 8.50229 17.0814 8.58525 17.3105 8.73886C17.5427 8.89246 17.7255 9.10749 17.8369 9.37477ZM17.5088 13.6114L16.5243 11.2703L15.5399 13.6114C15.4346 13.8602 15.2705 14.063 15.0631 14.2135C14.8557 14.3641 14.6081 14.4562 14.3387 14.4777L11.791 14.6836L13.7289 16.3365C13.9332 16.5116 14.0787 16.7297 14.1592 16.9694C14.2397 17.2151 14.2521 17.4763 14.1902 17.7343L13.602 20.2044L15.7845 18.8864C16.0166 18.7451 16.2705 18.6744 16.5243 18.6744C16.7782 18.6744 17.032 18.7451 17.2642 18.8864L19.4467 20.2075L18.8585 17.7374V17.7343C18.7966 17.4793 18.809 17.2182 18.8895 16.9755C18.97 16.7328 19.1155 16.5147 19.3198 16.3395L21.2577 14.6867L18.71 14.4808C18.4406 14.4593 18.193 14.3671 17.9856 14.2166C17.7781 14.063 17.6141 13.8571 17.5088 13.6114ZM59.8805 13.6114L58.8961 11.2703L57.9116 13.6114C57.8063 13.8602 57.6423 14.063 57.4349 14.2135C57.2274 14.3641 56.9798 14.4562 56.7105 14.4777L54.1627 14.6836L56.1006 16.3365C56.3049 16.5116 56.4504 16.7297 56.5309 16.9694C56.6114 17.2151 56.6238 17.4763 56.5619 17.7343L55.9706 20.2044L58.1562 18.8864C58.3884 18.7451 58.6422 18.6744 58.8961 18.6744C59.1499 18.6744 59.4038 18.7451 59.636 18.8864L61.8185 20.2075L61.2303 17.7374C61.1683 17.4793 61.1807 17.2182 61.2612 16.9724C61.3417 16.7297 61.4872 16.5116 61.6915 16.3365L63.6295 14.6836L61.0817 14.4777C60.8124 14.4562 60.5647 14.3641 60.3573 14.2135C60.1499 14.063 59.9858 13.8571 59.8805 13.6114Z" fill="#E6AF2E"/>
</svg>
