<svg width="79" height="83" viewBox="0 0 79 83" fill="none" xmlns="http://www.w3.org/2000/svg">
<mask id="path-1-outside-1_1126_2643" maskUnits="userSpaceOnUse" x="-0.356445" y="-0.682007" width="79" height="83" fill="black">
<rect fill="white" x="-0.356445" y="-0.682007" width="79" height="83"/>
<path fill-rule="evenodd" clip-rule="evenodd" d="M67.48 53.2182L77.3628 70.2994C79.0196 73.1605 77.2094 75.7051 75.3071 74.7118L65.9933 69.8639L65.5467 80.3349C65.4581 82.4884 62.3388 82.764 60.6888 79.9097L51.5863 64.1793L47.8226 62.0088C46.9227 61.4917 45.7533 61.8013 45.2317 62.7028L43.1965 66.2205C41.8464 68.5509 38.901 69.238 36.7226 67.9589C36.0237 67.5575 35.4339 66.9689 35.0009 66.2171H34.9975L32.8532 62.5089C32.3998 61.6992 31.2407 61.3489 30.3374 61.8319L27.1021 63.6928L17.9725 79.4816C16.3226 82.3324 13.2033 82.0602 13.1146 79.9068L12.6646 69.4358L3.35086 74.2837C1.44177 75.2804 -0.361634 72.7221 1.29515 69.8713L11.0994 52.926C10.4994 52.5313 9.98804 51.9904 9.60282 51.3237H9.59941C8.73691 49.8336 8.71987 48.0135 9.62668 46.554L11.7198 42.9344C12.238 42.0363 11.9278 40.8727 11.0244 40.3523L7.49934 38.3179C4.22321 36.4298 4.44479 31.7759 7.54706 30.1089L11.1505 28.0337V28.0303C11.6209 27.7377 11.9141 27.3907 12.0539 26.8702C12.1766 26.4109 12.1289 25.904 11.8835 25.4618H11.8801C11.863 25.4346 11.8494 25.4107 11.8357 25.3835L9.83117 21.9169C8.96867 20.4268 8.95844 18.6781 9.83458 17.1949H9.83117C10.6971 15.7014 12.2039 14.8305 13.9289 14.8305V14.8339H18.1698V14.8305C19.2096 14.8305 20.0619 13.98 20.0619 12.9424V8.88037C20.0619 7.15893 20.9312 5.6553 22.4312 4.79118V4.78778C23.9277 3.92707 25.7482 3.91007 27.2107 4.81499L30.8415 6.90718C31.738 7.42088 32.904 7.11131 33.4255 6.20978L35.4607 2.69208C36.8107 0.361694 39.7562 -0.325455 41.9346 0.953653C42.6267 1.35169 43.2812 1.99126 43.6835 2.73972L45.7766 6.3594C46.2948 7.25409 47.4641 7.56709 48.3641 7.05001L51.8891 5.01904C55.0562 3.19553 58.9936 5.4647 58.9936 9.10823L58.9902 9.11163V13.3437H58.9936C58.9936 14.3813 59.8459 15.2319 60.8857 15.2319H64.9562C68.58 15.2319 70.8949 19.1408 69.0539 22.3216L66.9096 26.023C66.4221 26.8633 66.7255 28.0506 67.6221 28.5677L71.1472 30.5987C71.8972 31.0307 72.487 31.6193 72.8926 32.3201C74.1642 34.5178 73.4858 37.4333 71.1438 38.7805L67.4722 40.8966V40.9C66.5687 41.4205 66.2586 42.584 66.7767 43.4821H66.7801L68.8153 46.9998C69.6778 48.4864 69.6881 50.2453 68.8119 51.7252H68.8153C68.4744 52.3273 68.0176 52.8308 67.479 53.2186L67.48 53.2182ZM27.4742 37.4504L33.0515 42.9684C33.9344 43.8461 35.0935 44.2815 36.2492 44.2815C37.4083 44.2781 38.564 43.8359 39.4436 42.9514L51.0212 32.4804C51.9451 31.6435 52.4462 30.5141 52.5007 29.3642C52.7019 25.3805 47.9393 23.1113 44.9632 25.8024L36.3826 33.5624L33.8531 31.0585L33.8565 31.0551C33.8326 31.0551 32.694 29.7385 30.6553 29.7419C29.4962 29.7453 28.3406 30.1876 27.461 31.0687L27.4576 31.0653C27.4576 31.0891 26.1382 32.2253 26.1417 34.2598C26.1451 35.4164 26.5882 36.5697 27.4712 37.4475L27.4742 37.4504ZM28.681 36.2495L28.6776 36.2529L34.2481 41.7709C35.3458 42.8595 37.064 42.8799 38.2367 41.7607L49.8789 31.2314C51.73 29.5609 50.6323 26.4651 48.1334 26.3427C47.4107 26.3052 46.6777 26.5434 46.1016 27.0639L36.3279 35.9019L32.6496 32.2617L32.653 32.2583C32.1007 31.7106 31.378 31.4385 30.6552 31.4385C29.9359 31.4419 29.2166 31.7174 28.6678 32.2685V32.2719H28.6643C28.1155 32.8231 27.8428 33.5443 27.8428 34.2655C27.8462 34.9834 28.1223 35.7012 28.6746 36.2523L28.681 36.2495ZM39.3274 14.8338C28.4663 14.8338 19.6605 23.6213 19.6605 34.4597C19.6605 45.2982 28.4663 54.0857 39.3274 54.0857C50.1885 54.0857 58.9943 45.2982 58.9943 34.4597C58.9943 23.6213 50.1885 14.8338 39.3274 14.8338ZM52.03 21.7841C45.014 14.7827 33.6416 14.7827 26.6292 21.7841C19.6133 28.7854 19.6133 40.1342 26.6292 47.1319C33.6452 54.1333 45.0176 54.1333 52.03 47.1319C59.0425 40.134 59.0425 28.7853 52.03 21.7841ZM52.5379 62.7613C53.1345 63.0199 53.6016 63.1389 54.2458 63.0505C55.7254 62.8532 56.8913 61.6251 56.8913 60.0363V55.9743C56.8913 53.9978 58.5072 52.3852 60.4879 52.3852H64.7833C65.2947 52.3818 65.8129 52.2457 66.2527 51.994V51.9974C66.7027 51.732 67.0674 51.3714 67.3572 50.8747C67.9061 49.9221 67.9197 48.7893 67.3572 47.8469L65.322 44.3292H65.3254C64.3334 42.6452 64.9163 40.4203 66.6379 39.4303L70.3129 37.3143C71.8367 36.4366 72.2288 34.545 71.4345 33.174H71.4379C71.172 32.725 70.8106 32.3576 70.3163 32.0718L66.8595 30.0782C65.1072 29.1766 64.4425 26.7851 65.5026 25.0908L67.5958 21.4746C68.7481 19.481 67.3572 16.9363 64.9674 16.9363H60.8969C58.9163 16.9363 57.3003 15.3237 57.3003 13.3472H57.3037V9.1151H57.3003C57.3003 6.76094 54.7742 5.32864 52.7526 6.49218L49.2276 8.52315V8.51974C47.5401 9.50971 45.3173 8.93139 44.3185 7.20658L42.1844 3.54606C41.9049 3.05957 41.5265 2.68195 41.0799 2.42336V2.41996C39.7061 1.6307 37.814 2.01172 36.9276 3.54265L34.8924 7.06035C33.9038 8.77152 31.705 9.36008 29.9867 8.37012L26.3118 6.25406C25.347 5.69614 24.2459 5.69954 23.2811 6.25406C22.3095 6.8256 21.7674 7.7441 21.7674 8.87699V12.939C21.7674 14.9155 20.1515 16.5281 18.1708 16.5281V16.5247H13.9299V16.5281C12.8048 16.5281 11.864 17.069 11.3015 18.042H11.2981C10.7424 19.0048 10.7424 20.107 11.3015 21.0698L13.3061 24.5331L13.3231 24.5603C14.3321 26.2987 13.7526 28.4692 12.0242 29.483L8.35265 31.599C6.32086 32.7727 6.32086 35.6712 8.35265 36.8449V36.8483L11.8811 38.8792C13.5993 39.8726 14.1856 42.0669 13.1936 43.7815H13.1902L11.0697 47.4488C10.5106 48.4116 10.514 49.5104 11.0697 50.4732C11.6493 51.4598 12.5834 51.9837 13.6981 51.9837H17.7686C19.7492 51.9837 21.3652 53.5963 21.3652 55.5729V59.805C21.3652 60.3663 21.5015 60.8834 21.7572 61.3257H21.7538C22.572 62.7137 24.3992 63.2988 25.9095 62.4279L29.3868 60.4207H29.3902C30.2799 59.907 31.2345 59.7879 32.1618 60.0363C33.0311 60.2676 33.8152 60.8221 34.3095 61.6489L34.3163 61.6591C35.0424 62.8872 35.7481 64.1323 36.464 65.3706C36.7538 65.8605 37.1117 66.2279 37.5719 66.4933V66.4967C38.9458 67.286 40.8344 66.9084 41.7242 65.374L43.7594 61.8563C44.748 60.1452 46.9469 59.5566 48.6651 60.5466L52.34 62.6626C52.4082 62.6966 52.4732 62.7307 52.5379 62.7613ZM65.936 53.9364C65.544 54.035 65.1451 54.0861 64.7292 54.0861H60.4883C59.4485 54.0861 58.5962 54.9366 58.5962 55.9742V60.0362C58.5962 62.5435 56.6837 64.5166 54.311 64.7514L53.8951 64.7718L62.1552 79.053C62.4893 79.6348 63.1848 80.3866 63.8393 80.288L63.8428 80.2608L64.2723 69.9048C64.3302 68.5031 65.6393 67.7411 66.8905 68.3942L76.1187 73.2149C76.5278 72.7012 76.221 71.7146 75.8903 71.1363L65.936 53.9364ZM24.6552 64.5406C22.8961 64.6256 21.1711 63.7003 20.2881 62.1762C19.8824 61.472 19.6643 60.6657 19.6643 59.805L19.6608 55.5729C19.6608 54.5353 18.8086 53.6848 17.7688 53.6848H13.6301C13.3063 53.6814 12.9892 53.6473 12.6824 53.5793L2.76564 70.7223C2.42473 71.2905 2.13155 72.2873 2.53723 72.7975L11.7654 67.9769C13.0132 67.3271 14.3257 68.0857 14.3836 69.4874L14.8132 79.8434L14.8166 79.8706C15.4745 79.9692 16.1666 79.214 16.5007 78.6356L24.6552 64.5406Z"/>
</mask>
<path fill-rule="evenodd" clip-rule="evenodd" d="M67.48 53.2182L77.3628 70.2994C79.0196 73.1605 77.2094 75.7051 75.3071 74.7118L65.9933 69.8639L65.5467 80.3349C65.4581 82.4884 62.3388 82.764 60.6888 79.9097L51.5863 64.1793L47.8226 62.0088C46.9227 61.4917 45.7533 61.8013 45.2317 62.7028L43.1965 66.2205C41.8464 68.5509 38.901 69.238 36.7226 67.9589C36.0237 67.5575 35.4339 66.9689 35.0009 66.2171H34.9975L32.8532 62.5089C32.3998 61.6992 31.2407 61.3489 30.3374 61.8319L27.1021 63.6928L17.9725 79.4816C16.3226 82.3324 13.2033 82.0602 13.1146 79.9068L12.6646 69.4358L3.35086 74.2837C1.44177 75.2804 -0.361634 72.7221 1.29515 69.8713L11.0994 52.926C10.4994 52.5313 9.98804 51.9904 9.60282 51.3237H9.59941C8.73691 49.8336 8.71987 48.0135 9.62668 46.554L11.7198 42.9344C12.238 42.0363 11.9278 40.8727 11.0244 40.3523L7.49934 38.3179C4.22321 36.4298 4.44479 31.7759 7.54706 30.1089L11.1505 28.0337V28.0303C11.6209 27.7377 11.9141 27.3907 12.0539 26.8702C12.1766 26.4109 12.1289 25.904 11.8835 25.4618H11.8801C11.863 25.4346 11.8494 25.4107 11.8357 25.3835L9.83117 21.9169C8.96867 20.4268 8.95844 18.6781 9.83458 17.1949H9.83117C10.6971 15.7014 12.2039 14.8305 13.9289 14.8305V14.8339H18.1698V14.8305C19.2096 14.8305 20.0619 13.98 20.0619 12.9424V8.88037C20.0619 7.15893 20.9312 5.6553 22.4312 4.79118V4.78778C23.9277 3.92707 25.7482 3.91007 27.2107 4.81499L30.8415 6.90718C31.738 7.42088 32.904 7.11131 33.4255 6.20978L35.4607 2.69208C36.8107 0.361694 39.7562 -0.325455 41.9346 0.953653C42.6267 1.35169 43.2812 1.99126 43.6835 2.73972L45.7766 6.3594C46.2948 7.25409 47.4641 7.56709 48.3641 7.05001L51.8891 5.01904C55.0562 3.19553 58.9936 5.4647 58.9936 9.10823L58.9902 9.11163V13.3437H58.9936C58.9936 14.3813 59.8459 15.2319 60.8857 15.2319H64.9562C68.58 15.2319 70.8949 19.1408 69.0539 22.3216L66.9096 26.023C66.4221 26.8633 66.7255 28.0506 67.6221 28.5677L71.1472 30.5987C71.8972 31.0307 72.487 31.6193 72.8926 32.3201C74.1642 34.5178 73.4858 37.4333 71.1438 38.7805L67.4722 40.8966V40.9C66.5687 41.4205 66.2586 42.584 66.7767 43.4821H66.7801L68.8153 46.9998C69.6778 48.4864 69.6881 50.2453 68.8119 51.7252H68.8153C68.4744 52.3273 68.0176 52.8308 67.479 53.2186L67.48 53.2182ZM27.4742 37.4504L33.0515 42.9684C33.9344 43.8461 35.0935 44.2815 36.2492 44.2815C37.4083 44.2781 38.564 43.8359 39.4436 42.9514L51.0212 32.4804C51.9451 31.6435 52.4462 30.5141 52.5007 29.3642C52.7019 25.3805 47.9393 23.1113 44.9632 25.8024L36.3826 33.5624L33.8531 31.0585L33.8565 31.0551C33.8326 31.0551 32.694 29.7385 30.6553 29.7419C29.4962 29.7453 28.3406 30.1876 27.461 31.0687L27.4576 31.0653C27.4576 31.0891 26.1382 32.2253 26.1417 34.2598C26.1451 35.4164 26.5882 36.5697 27.4712 37.4475L27.4742 37.4504ZM28.681 36.2495L28.6776 36.2529L34.2481 41.7709C35.3458 42.8595 37.064 42.8799 38.2367 41.7607L49.8789 31.2314C51.73 29.5609 50.6323 26.4651 48.1334 26.3427C47.4107 26.3052 46.6777 26.5434 46.1016 27.0639L36.3279 35.9019L32.6496 32.2617L32.653 32.2583C32.1007 31.7106 31.378 31.4385 30.6552 31.4385C29.9359 31.4419 29.2166 31.7174 28.6678 32.2685V32.2719H28.6643C28.1155 32.8231 27.8428 33.5443 27.8428 34.2655C27.8462 34.9834 28.1223 35.7012 28.6746 36.2523L28.681 36.2495ZM39.3274 14.8338C28.4663 14.8338 19.6605 23.6213 19.6605 34.4597C19.6605 45.2982 28.4663 54.0857 39.3274 54.0857C50.1885 54.0857 58.9943 45.2982 58.9943 34.4597C58.9943 23.6213 50.1885 14.8338 39.3274 14.8338ZM52.03 21.7841C45.014 14.7827 33.6416 14.7827 26.6292 21.7841C19.6133 28.7854 19.6133 40.1342 26.6292 47.1319C33.6452 54.1333 45.0176 54.1333 52.03 47.1319C59.0425 40.134 59.0425 28.7853 52.03 21.7841ZM52.5379 62.7613C53.1345 63.0199 53.6016 63.1389 54.2458 63.0505C55.7254 62.8532 56.8913 61.6251 56.8913 60.0363V55.9743C56.8913 53.9978 58.5072 52.3852 60.4879 52.3852H64.7833C65.2947 52.3818 65.8129 52.2457 66.2527 51.994V51.9974C66.7027 51.732 67.0674 51.3714 67.3572 50.8747C67.9061 49.9221 67.9197 48.7893 67.3572 47.8469L65.322 44.3292H65.3254C64.3334 42.6452 64.9163 40.4203 66.6379 39.4303L70.3129 37.3143C71.8367 36.4366 72.2288 34.545 71.4345 33.174H71.4379C71.172 32.725 70.8106 32.3576 70.3163 32.0718L66.8595 30.0782C65.1072 29.1766 64.4425 26.7851 65.5026 25.0908L67.5958 21.4746C68.7481 19.481 67.3572 16.9363 64.9674 16.9363H60.8969C58.9163 16.9363 57.3003 15.3237 57.3003 13.3472H57.3037V9.1151H57.3003C57.3003 6.76094 54.7742 5.32864 52.7526 6.49218L49.2276 8.52315V8.51974C47.5401 9.50971 45.3173 8.93139 44.3185 7.20658L42.1844 3.54606C41.9049 3.05957 41.5265 2.68195 41.0799 2.42336V2.41996C39.7061 1.6307 37.814 2.01172 36.9276 3.54265L34.8924 7.06035C33.9038 8.77152 31.705 9.36008 29.9867 8.37012L26.3118 6.25406C25.347 5.69614 24.2459 5.69954 23.2811 6.25406C22.3095 6.8256 21.7674 7.7441 21.7674 8.87699V12.939C21.7674 14.9155 20.1515 16.5281 18.1708 16.5281V16.5247H13.9299V16.5281C12.8048 16.5281 11.864 17.069 11.3015 18.042H11.2981C10.7424 19.0048 10.7424 20.107 11.3015 21.0698L13.3061 24.5331L13.3231 24.5603C14.3321 26.2987 13.7526 28.4692 12.0242 29.483L8.35265 31.599C6.32086 32.7727 6.32086 35.6712 8.35265 36.8449V36.8483L11.8811 38.8792C13.5993 39.8726 14.1856 42.0669 13.1936 43.7815H13.1902L11.0697 47.4488C10.5106 48.4116 10.514 49.5104 11.0697 50.4732C11.6493 51.4598 12.5834 51.9837 13.6981 51.9837H17.7686C19.7492 51.9837 21.3652 53.5963 21.3652 55.5729V59.805C21.3652 60.3663 21.5015 60.8834 21.7572 61.3257H21.7538C22.572 62.7137 24.3992 63.2988 25.9095 62.4279L29.3868 60.4207H29.3902C30.2799 59.907 31.2345 59.7879 32.1618 60.0363C33.0311 60.2676 33.8152 60.8221 34.3095 61.6489L34.3163 61.6591C35.0424 62.8872 35.7481 64.1323 36.464 65.3706C36.7538 65.8605 37.1117 66.2279 37.5719 66.4933V66.4967C38.9458 67.286 40.8344 66.9084 41.7242 65.374L43.7594 61.8563C44.748 60.1452 46.9469 59.5566 48.6651 60.5466L52.34 62.6626C52.4082 62.6966 52.4732 62.7307 52.5379 62.7613ZM65.936 53.9364C65.544 54.035 65.1451 54.0861 64.7292 54.0861H60.4883C59.4485 54.0861 58.5962 54.9366 58.5962 55.9742V60.0362C58.5962 62.5435 56.6837 64.5166 54.311 64.7514L53.8951 64.7718L62.1552 79.053C62.4893 79.6348 63.1848 80.3866 63.8393 80.288L63.8428 80.2608L64.2723 69.9048C64.3302 68.5031 65.6393 67.7411 66.8905 68.3942L76.1187 73.2149C76.5278 72.7012 76.221 71.7146 75.8903 71.1363L65.936 53.9364ZM24.6552 64.5406C22.8961 64.6256 21.1711 63.7003 20.2881 62.1762C19.8824 61.472 19.6643 60.6657 19.6643 59.805L19.6608 55.5729C19.6608 54.5353 18.8086 53.6848 17.7688 53.6848H13.6301C13.3063 53.6814 12.9892 53.6473 12.6824 53.5793L2.76564 70.7223C2.42473 71.2905 2.13155 72.2873 2.53723 72.7975L11.7654 67.9769C13.0132 67.3271 14.3257 68.0857 14.3836 69.4874L14.8132 79.8434L14.8166 79.8706C15.4745 79.9692 16.1666 79.214 16.5007 78.6356L24.6552 64.5406Z" fill="#E6AF2E"/>
<path d="M12.6726 69.4293V69.3293H12.6692V69.4293V69.5293H12.6726V69.4293ZM67.48 53.2182L67.6532 53.1181L67.5684 52.9716L67.4099 53.0309L67.48 53.2182ZM77.3628 70.2994L77.1897 70.3996L77.1897 70.3996L77.3628 70.2994ZM75.3071 74.7118L75.3997 74.5345L75.3994 74.5344L75.3071 74.7118ZM65.9933 69.8639L66.0857 69.6865L65.8069 69.5414L65.7935 69.8554L65.9933 69.8639ZM65.5467 80.3349L65.3469 80.3264L65.3469 80.3267L65.5467 80.3349ZM60.6888 79.9097L60.862 79.8096L60.8619 79.8095L60.6888 79.9097ZM51.5863 64.1793L51.7594 64.0791L51.7325 64.0328L51.6862 64.006L51.5863 64.1793ZM47.8226 62.0088L47.9225 61.8355L47.9223 61.8354L47.8226 62.0088ZM45.2317 62.7028L45.0586 62.6026L45.0586 62.6026L45.2317 62.7028ZM43.1965 66.2205L43.3695 66.3207L43.3696 66.3206L43.1965 66.2205ZM36.7226 67.9589L36.8238 67.7864L36.8222 67.7855L36.7226 67.9589ZM35.0009 66.2171L35.1743 66.1173L35.1166 66.0171H35.0009V66.2171ZM34.9975 66.2171L34.8244 66.3172L34.8822 66.4171H34.9975V66.2171ZM32.8532 62.5089L32.6787 62.6067L32.6801 62.609L32.8532 62.5089ZM30.3374 61.8319L30.243 61.6555L30.2376 61.6586L30.3374 61.8319ZM27.1021 63.6928L27.0024 63.5194L26.9559 63.5462L26.929 63.5927L27.1021 63.6928ZM17.9725 79.4816L18.1456 79.5817L18.1457 79.5817L17.9725 79.4816ZM13.1146 79.9068L13.3144 79.8986L13.3144 79.8982L13.1146 79.9068ZM12.6646 69.4358L12.8644 69.4272L12.8509 69.1134L12.5723 69.2584L12.6646 69.4358ZM3.35086 74.2837L3.25852 74.1063L3.2583 74.1064L3.35086 74.2837ZM1.29515 69.8713L1.46807 69.9718L1.46826 69.9715L1.29515 69.8713ZM11.0994 52.926L11.2725 53.0261L11.3671 52.8627L11.2093 52.7589L11.0994 52.926ZM9.60282 51.3237L9.77599 51.2236L9.71825 51.1237H9.60282V51.3237ZM9.59941 51.3237L9.42631 51.4239L9.48409 51.5237H9.59941V51.3237ZM9.62668 46.554L9.79665 46.6596L9.79982 46.6542L9.62668 46.554ZM11.7198 42.9344L11.893 43.0345L11.8931 43.0343L11.7198 42.9344ZM11.0244 40.3523L10.9244 40.5255L10.9245 40.5256L11.0244 40.3523ZM7.49934 38.3179L7.59931 38.1447L7.59921 38.1446L7.49934 38.3179ZM7.54706 30.1089L7.64177 30.2851L7.64688 30.2822L7.54706 30.1089ZM11.1505 28.0337L11.2503 28.207L11.3505 28.1493V28.0337H11.1505ZM11.1505 28.0303L11.0448 27.8604L10.9505 27.9191V28.0303H11.1505ZM12.0539 26.8702L12.2471 26.9221L12.2471 26.9218L12.0539 26.8702ZM11.8835 25.4618L12.0583 25.3647L12.0012 25.2618H11.8835V25.4618ZM11.8801 25.4618L11.7106 25.5679L11.7693 25.6618H11.8801V25.4618ZM11.8357 25.3835L12.0149 25.2938L12.0089 25.2834L11.8357 25.3835ZM9.83117 21.9169L10.0043 21.8168L10.0043 21.8167L9.83117 21.9169ZM9.83458 17.1949L10.0068 17.2966L10.185 16.9949H9.83458V17.1949ZM9.83117 17.1949L9.65815 17.0946L9.48402 17.3949H9.83117V17.1949ZM13.9289 14.8305H14.1289V14.6305H13.9289V14.8305ZM13.9289 14.8339H13.7289V15.0339H13.9289V14.8339ZM18.1698 14.8339V15.0339H18.3698V14.8339H18.1698ZM18.1698 14.8305V14.6305H17.9698V14.8305H18.1698ZM22.4312 4.79118L22.531 4.96448L22.6312 4.90678V4.79118H22.4312ZM22.4312 4.78778L22.3315 4.61441L22.2312 4.67209V4.78778H22.4312ZM27.2107 4.81499L27.1055 4.98515L27.1109 4.98828L27.2107 4.81499ZM30.8415 6.90718L30.7416 7.08047L30.742 7.08072L30.8415 6.90718ZM33.4255 6.20978L33.2524 6.10962L33.2524 6.10963L33.4255 6.20978ZM35.4607 2.69208L35.2877 2.59182L35.2876 2.59192L35.4607 2.69208ZM41.9346 0.953653L41.8333 1.12613L41.8349 1.12702L41.9346 0.953653ZM43.6835 2.73972L43.5072 2.83444L43.5103 2.83984L43.6835 2.73972ZM45.7766 6.3594L45.6035 6.45952L45.6036 6.45964L45.7766 6.3594ZM48.3641 7.05001L48.4637 7.22342L48.4639 7.2233L48.3641 7.05001ZM51.8891 5.01904L51.7893 4.84572L51.7893 4.84575L51.8891 5.01904ZM58.9936 9.10823L59.1349 9.2498L59.1936 9.19119V9.10823H58.9936ZM58.9902 9.11163L58.849 8.97006L58.7902 9.02867V9.11163H58.9902ZM58.9902 13.3437H58.7902V13.5437H58.9902V13.3437ZM58.9936 13.3437H59.1936V13.1437H58.9936V13.3437ZM69.0539 22.3216L69.227 22.4219L69.227 22.4218L69.0539 22.3216ZM66.9096 26.023L67.0826 26.1234L67.0827 26.1232L66.9096 26.023ZM67.6221 28.5677L67.5222 28.7409L67.5223 28.741L67.6221 28.5677ZM71.1472 30.5987L71.0473 30.772L71.0473 30.772L71.1472 30.5987ZM72.8926 32.3201L73.0657 32.22L73.0657 32.2199L72.8926 32.3201ZM71.1438 38.7805L71.044 38.6072L71.0439 38.6073L71.1438 38.7805ZM67.4722 40.8966L67.3723 40.7233L67.2722 40.781V40.8966H67.4722ZM67.4722 40.9L67.572 41.0733L67.6722 41.0156V40.9H67.4722ZM66.7767 43.4821L66.6035 43.582L66.6612 43.6821H66.7767V43.4821ZM66.7801 43.4821L66.9533 43.3819L66.8955 43.2821H66.7801V43.4821ZM68.8153 46.9998L68.6422 47.0999L68.6423 47.1001L68.8153 46.9998ZM68.8119 51.7252L68.6398 51.6233L68.4611 51.9252H68.8119V51.7252ZM68.8153 51.7252L68.9894 51.8237L69.1584 51.5252H68.8153V51.7252ZM67.479 53.2186L67.3622 53.0563L67.5491 53.4059L67.479 53.2186ZM27.4742 37.4504L27.6149 37.3082L27.6116 37.305L27.4742 37.4504ZM33.0515 42.9684L33.1925 42.8265L33.1921 42.8262L33.0515 42.9684ZM36.2492 44.2815V44.4815H36.2498L36.2492 44.2815ZM39.4436 42.9514L39.3092 42.8028L39.3018 42.8104L39.4436 42.9514ZM51.0212 32.4804L51.1553 32.6288L51.1555 32.6286L51.0212 32.4804ZM52.5007 29.3642L52.301 29.3541L52.3009 29.3547L52.5007 29.3642ZM44.9632 25.8024L44.8291 25.654L44.8291 25.654L44.9632 25.8024ZM36.3826 33.5624L36.2419 33.7045L36.3764 33.8376L36.5167 33.7107L36.3826 33.5624ZM33.8531 31.0585L33.7118 30.9169L33.5694 31.0591L33.7124 31.2006L33.8531 31.0585ZM33.8565 31.0551L33.9978 31.1967L34.34 30.8551H33.8565V31.0551ZM30.6553 29.7419L30.655 29.5419L30.6547 29.5419L30.6553 29.7419ZM27.461 31.0687L27.3196 31.2102L27.4612 31.3516L27.6025 31.21L27.461 31.0687ZM27.4576 31.0653L27.5989 30.9238L27.2575 30.5828V31.0653H27.4576ZM26.1417 34.2598L25.9417 34.2601V34.2604L26.1417 34.2598ZM27.4712 37.4475L27.3301 37.5894L27.3338 37.5929L27.4712 37.4475ZM28.681 36.2495L28.8223 36.391L28.6014 36.066L28.681 36.2495ZM28.6776 36.2529L28.5363 36.1113L28.394 36.2534L28.5369 36.395L28.6776 36.2529ZM34.2481 41.7709L34.3889 41.6289L34.3888 41.6288L34.2481 41.7709ZM38.2367 41.7607L38.1025 41.6123L38.0986 41.616L38.2367 41.7607ZM49.8789 31.2314L49.7449 31.0829L49.7447 31.083L49.8789 31.2314ZM48.1334 26.3427L48.1231 26.5424L48.1236 26.5424L48.1334 26.3427ZM46.1016 27.0639L45.9675 26.9155L45.9675 26.9155L46.1016 27.0639ZM36.3279 35.9019L36.1873 36.044L36.3217 36.1771L36.4621 36.0502L36.3279 35.9019ZM32.6496 32.2617L32.5083 32.1202L32.3658 32.2623L32.5089 32.4039L32.6496 32.2617ZM32.653 32.2583L32.7943 32.3999L32.9366 32.2579L32.7938 32.1163L32.653 32.2583ZM30.6552 31.4385V31.2385L30.6543 31.2385L30.6552 31.4385ZM28.6678 32.2685L28.526 32.1274L28.4678 32.1859V32.2685H28.6678ZM28.6678 32.2719V32.4719H28.8678V32.2719H28.6678ZM28.6643 32.2719V32.0719H28.5813L28.5226 32.1308L28.6643 32.2719ZM27.8428 34.2655H27.6428L27.6428 34.2665L27.8428 34.2655ZM28.6746 36.2523L28.5333 36.3938L28.6295 36.4898L28.7542 36.4357L28.6746 36.2523ZM52.03 21.7841L52.1713 21.6425L52.1712 21.6425L52.03 21.7841ZM26.6292 21.7841L26.7705 21.9256L26.7705 21.9256L26.6292 21.7841ZM26.6292 47.1319L26.7705 46.9904L26.7705 46.9903L26.6292 47.1319ZM52.03 47.1319L51.8887 46.9904L51.8887 46.9904L52.03 47.1319ZM52.5379 62.7613L52.4524 62.9422L52.4584 62.9448L52.5379 62.7613ZM54.2458 63.0505L54.2194 62.8522L54.2186 62.8523L54.2458 63.0505ZM64.7833 52.3852V52.5852L64.7847 52.5852L64.7833 52.3852ZM66.2527 51.994H66.4527V51.649L66.1533 51.8204L66.2527 51.994ZM66.2527 51.9974H66.0527V52.3475L66.3542 52.1697L66.2527 51.9974ZM67.3572 50.8747L67.5299 50.9755L67.5305 50.9745L67.3572 50.8747ZM67.3572 47.8469L67.1841 47.947L67.1854 47.9494L67.3572 47.8469ZM65.322 44.3292V44.1292H64.9752L65.1489 44.4293L65.322 44.3292ZM65.3254 44.3292V44.5292H65.6753L65.4977 44.2277L65.3254 44.3292ZM66.6379 39.4303L66.7376 39.6037L66.7377 39.6036L66.6379 39.4303ZM70.3129 37.3143L70.4127 37.4876L70.4127 37.4876L70.3129 37.3143ZM71.4345 33.174V32.974H71.0875L71.2614 33.2743L71.4345 33.174ZM71.4379 33.174V33.374H71.7888L71.61 33.0721L71.4379 33.174ZM70.3163 32.0718L70.4163 31.8986L70.4162 31.8986L70.3163 32.0718ZM66.8595 30.0782L66.9595 29.9047L66.951 29.9004L66.8595 30.0782ZM65.5026 25.0908L65.6723 25.197L65.6757 25.191L65.5026 25.0908ZM67.5958 21.4746L67.7689 21.5747L67.769 21.5746L67.5958 21.4746ZM57.3003 13.3472V13.1472H57.1003V13.3472H57.3003ZM57.3037 13.3472V13.5472H57.5037V13.3472H57.3037ZM57.3037 9.1151H57.5037V8.9151H57.3037V9.1151ZM57.3003 9.1151H57.1003V9.3151H57.3003V9.1151ZM52.7526 6.49218L52.6529 6.31884L52.6528 6.31889L52.7526 6.49218ZM49.2276 8.52315H49.0276V8.8692L49.3274 8.69644L49.2276 8.52315ZM49.2276 8.51974H49.4276V8.17054L49.1264 8.34724L49.2276 8.51974ZM44.3185 7.20658L44.4916 7.10636L44.4913 7.10585L44.3185 7.20658ZM42.1844 3.54606L42.011 3.6457L42.0116 3.64679L42.1844 3.54606ZM41.0799 2.42336H40.8799V2.53867L40.9797 2.59644L41.0799 2.42336ZM41.0799 2.41996H41.2799V2.30421L41.1795 2.24654L41.0799 2.41996ZM36.9276 3.54265L36.7546 3.44245L36.7545 3.4425L36.9276 3.54265ZM34.8924 7.06035L34.7193 6.96019L34.7193 6.9603L34.8924 7.06035ZM29.9867 8.37012L30.0866 8.19682L30.0865 8.19679L29.9867 8.37012ZM26.3118 6.25406L26.2117 6.4272L26.212 6.42738L26.3118 6.25406ZM23.2811 6.25406L23.1814 6.08065L23.1797 6.08168L23.2811 6.25406ZM18.1708 16.5281H17.9708V16.7281H18.1708V16.5281ZM18.1708 16.5247H18.3708V16.3247H18.1708V16.5247ZM13.9299 16.5247V16.3247H13.7299V16.5247H13.9299ZM13.9299 16.5281V16.7281H14.1299V16.5281H13.9299ZM11.3015 18.042V18.242H11.4169L11.4746 18.1421L11.3015 18.042ZM11.2981 18.042V17.842H11.1826L11.1249 17.942L11.2981 18.042ZM11.3015 21.0698L11.4746 20.9696L11.4744 20.9694L11.3015 21.0698ZM13.3061 24.5331L13.1329 24.6333L13.1366 24.6393L13.3061 24.5331ZM13.3231 24.5603L13.4962 24.4599L13.4926 24.4542L13.3231 24.5603ZM12.0242 29.483L12.1241 29.6563L12.1254 29.6555L12.0242 29.483ZM8.35265 31.599L8.25278 31.4257L8.25261 31.4258L8.35265 31.599ZM8.35265 36.8449H8.55265V36.7294L8.45269 36.6717L8.35265 36.8449ZM8.35265 36.8483H8.15265V36.9639L8.25288 37.0216L8.35265 36.8483ZM11.8811 38.8792L11.9812 38.7061L11.9809 38.7059L11.8811 38.8792ZM13.1936 43.7815V43.9815H13.3089L13.3667 43.8817L13.1936 43.7815ZM13.1902 43.7815V43.5815H13.0748L13.017 43.6814L13.1902 43.7815ZM11.0697 47.4488L11.2427 47.5493L11.2428 47.5489L11.0697 47.4488ZM11.0697 50.4732L10.8965 50.5732L10.8973 50.5745L11.0697 50.4732ZM21.7572 61.3257V61.5257H22.1039L21.9304 61.2256L21.7572 61.3257ZM21.7538 61.3257V61.1257H21.4038L21.5815 61.4272L21.7538 61.3257ZM25.9095 62.4279L26.0094 62.6011L26.0095 62.6011L25.9095 62.4279ZM29.3868 60.4207V60.2207H29.3332L29.2868 60.2475L29.3868 60.4207ZM29.3902 60.4207V60.6207H29.4438L29.4902 60.5939L29.3902 60.4207ZM32.1618 60.0363L32.1101 60.2295L32.1104 60.2295L32.1618 60.0363ZM34.3095 61.6489L34.1376 61.7516L34.1432 61.7599L34.3095 61.6489ZM34.3163 61.6591L34.4887 61.5571L34.4826 61.548L34.3163 61.6591ZM36.464 65.3706L36.2908 65.4707L36.2919 65.4724L36.464 65.3706ZM37.5719 66.4933H37.7719V66.3778L37.6718 66.3201L37.5719 66.4933ZM37.5719 66.4967H37.3719V66.6125L37.4723 66.6701L37.5719 66.4967ZM41.7242 65.374L41.8972 65.4743L41.8973 65.4742L41.7242 65.374ZM43.7594 61.8563L43.9325 61.9565L43.9326 61.9564L43.7594 61.8563ZM48.6651 60.5466L48.5652 60.7199L48.5653 60.7199L48.6651 60.5466ZM52.34 62.6626L52.2401 62.8362L52.2508 62.8416L52.34 62.6626ZM65.936 53.9364L66.1091 53.8362L66.0336 53.7056L65.8872 53.7424L65.936 53.9364ZM54.311 64.7514L54.3208 64.9514L54.3306 64.9504L54.311 64.7514ZM53.8951 64.7718L53.8852 64.5721L53.5578 64.5881L53.7219 64.872L53.8951 64.7718ZM62.1552 79.053L62.3287 78.9534L62.3284 78.9529L62.1552 79.053ZM63.8393 80.288L63.8691 80.4857L64.019 80.4632L64.0378 80.3128L63.8393 80.288ZM63.8428 80.2608L64.0412 80.2856L64.0422 80.2774L64.0426 80.2691L63.8428 80.2608ZM64.2723 69.9048L64.4721 69.913V69.913L64.2723 69.9048ZM66.8905 68.3942L66.9831 68.217L66.983 68.217L66.8905 68.3942ZM76.1187 73.2149L76.0261 73.3922L76.1723 73.4686L76.2751 73.3395L76.1187 73.2149ZM75.8903 71.1363L76.0639 71.037L76.0634 71.0361L75.8903 71.1363ZM24.6552 64.5406L24.8283 64.6407L25.012 64.3231L24.6455 64.3408L24.6552 64.5406ZM20.2881 62.1762L20.1148 62.2761L20.1151 62.2765L20.2881 62.1762ZM19.6643 59.805H19.8643V59.8048L19.6643 59.805ZM19.6608 55.5729H19.4608V55.5731L19.6608 55.5729ZM13.6301 53.6848L13.628 53.8848H13.6301V53.6848ZM12.6824 53.5793L12.7257 53.384L12.5827 53.3523L12.5093 53.4792L12.6824 53.5793ZM2.76564 70.7223L2.93715 70.8252L2.93876 70.8225L2.76564 70.7223ZM2.53723 72.7975L2.38067 72.922L2.48345 73.0513L2.62983 72.9748L2.53723 72.7975ZM11.7654 67.9769L11.6731 67.7995L11.6728 67.7996L11.7654 67.9769ZM14.3836 69.4874L14.1838 69.4956L14.1838 69.4957L14.3836 69.4874ZM14.8132 79.8434L14.6133 79.8517L14.6137 79.86L14.6147 79.8682L14.8132 79.8434ZM14.8166 79.8706L14.6181 79.8954L14.637 80.0459L14.7869 80.0684L14.8166 79.8706ZM16.5007 78.6356L16.3276 78.5355L16.3275 78.5356L16.5007 78.6356ZM67.48 53.2182L67.3069 53.3184L77.1897 70.3996L77.3628 70.2994L77.5359 70.1992L67.6532 53.1181L67.48 53.2182ZM77.3628 70.2994L77.1897 70.3996C77.99 71.7816 77.9374 73.0573 77.4948 73.8539C77.2732 74.2527 76.956 74.53 76.5979 74.6549C76.2426 74.779 75.83 74.7592 75.3997 74.5345L75.3071 74.7118L75.2145 74.8891C75.7353 75.161 76.2624 75.1957 76.7297 75.0326C77.1943 74.8704 77.5828 74.519 77.8444 74.0482C78.3682 73.1055 78.3924 71.6783 77.5359 70.1992L77.3628 70.2994ZM75.3071 74.7118L75.3994 74.5344L66.0857 69.6865L65.9933 69.8639L65.901 70.0413L75.2147 74.8892L75.3071 74.7118ZM65.9933 69.8639L65.7935 69.8554L65.3469 80.3264L65.5467 80.3349L65.7466 80.3434L66.1932 69.8725L65.9933 69.8639ZM65.5467 80.3349L65.3469 80.3267C65.3269 80.814 65.1374 81.1815 64.852 81.4267C64.5643 81.6738 64.1646 81.8088 63.707 81.8002C62.7928 81.7831 61.6588 81.1881 60.862 79.8096L60.6888 79.9097L60.5156 80.0098C61.3687 81.4855 62.6194 82.1799 63.6995 82.2002C64.2391 82.2103 64.739 82.0511 65.1127 81.7301C65.4886 81.4071 65.7223 80.9325 65.7466 80.3431L65.5467 80.3349ZM60.6888 79.9097L60.8619 79.8095L51.7594 64.0791L51.5863 64.1793L51.4132 64.2794L60.5157 80.0098L60.6888 79.9097ZM51.5863 64.1793L51.6862 64.006L47.9225 61.8355L47.8226 62.0088L47.7227 62.182L51.4863 64.3525L51.5863 64.1793ZM47.8226 62.0088L47.9223 61.8354C46.9272 61.2636 45.6357 61.6052 45.0586 62.6026L45.2317 62.7028L45.4048 62.803C45.8709 61.9973 46.9181 61.7197 47.723 62.1822L47.8226 62.0088ZM45.2317 62.7028L45.0586 62.6026L43.0234 66.1203L43.1965 66.2205L43.3696 66.3206L45.4048 62.8029L45.2317 62.7028ZM43.1965 66.2205L43.0234 66.1202C41.73 68.3529 38.9084 69.0104 36.8238 67.7864L36.7226 67.9589L36.6213 68.1314C38.8936 69.4656 41.9629 68.7488 43.3695 66.3207L43.1965 66.2205ZM36.7226 67.9589L36.8222 67.7855C36.1551 67.4023 35.5902 66.8396 35.1743 66.1173L35.0009 66.2171L34.8276 66.3169C35.2776 67.0983 35.8924 67.7127 36.623 68.1323L36.7226 67.9589ZM35.0009 66.2171V66.0171H34.9975V66.2171V66.4171H35.0009V66.2171ZM34.9975 66.2171L35.1707 66.117L33.0264 62.4088L32.8532 62.5089L32.6801 62.609L34.8244 66.3172L34.9975 66.2171ZM32.8532 62.5089L33.0278 62.4112C32.5189 61.5026 31.2385 61.1233 30.243 61.6556L30.3374 61.8319L30.4317 62.0083C31.2429 61.5745 32.2808 61.8959 32.6787 62.6066L32.8532 62.5089ZM30.3374 61.8319L30.2376 61.6586L27.0024 63.5194L27.1021 63.6928L27.2019 63.8662L30.4371 62.0053L30.3374 61.8319ZM27.1021 63.6928L26.929 63.5927L17.7994 79.3814L17.9725 79.4816L18.1457 79.5817L27.2753 63.7929L27.1021 63.6928ZM17.9725 79.4816L17.7994 79.3814C17.0026 80.7582 15.8686 81.3533 14.9542 81.3708C14.4966 81.3796 14.0969 81.2448 13.8093 80.998C13.5239 80.7531 13.3345 80.3859 13.3144 79.8986L13.1146 79.9068L12.9148 79.915C12.939 80.5044 13.1728 80.9788 13.5488 81.3015C13.9225 81.6222 14.4224 81.7811 14.9619 81.7707C16.0419 81.75 17.2925 81.0557 18.1456 79.5817L17.9725 79.4816ZM13.1146 79.9068L13.3144 79.8982L12.8644 69.4272L12.6646 69.4358L12.4648 69.4444L12.9148 79.9154L13.1146 79.9068ZM12.6646 69.4358L12.5723 69.2584L3.25852 74.1063L3.35086 74.2837L3.4432 74.4611L12.7569 69.6132L12.6646 69.4358ZM3.35086 74.2837L3.2583 74.1064C2.82625 74.332 2.41292 74.3514 2.0574 74.2269C1.6991 74.1014 1.38206 73.8232 1.16078 73.4235C0.718759 72.625 0.66799 71.3485 1.46807 69.9718L1.29515 69.8713L1.12223 69.7708C0.265527 71.2449 0.288067 72.6729 0.810827 73.6172C1.07193 74.0888 1.46015 74.4415 1.92515 74.6044C2.39292 74.7683 2.92093 74.7338 3.44343 74.461L3.35086 74.2837ZM1.29515 69.8713L1.46826 69.9715L11.2725 53.0261L11.0994 52.926L10.9263 52.8258L1.12204 69.7711L1.29515 69.8713ZM11.0994 52.926L11.2093 52.7589C10.6361 52.3819 10.1461 51.8643 9.77599 51.2236L9.60282 51.3237L9.42964 51.4237C9.82994 52.1166 10.3626 52.6808 10.9895 53.0931L11.0994 52.926ZM9.60282 51.3237V51.1237H9.59941V51.3237V51.5237H9.60282V51.3237ZM9.59941 51.3237L9.7725 51.2235C8.94478 49.7935 8.93101 48.0527 9.79656 46.6596L9.62668 46.554L9.4568 46.4485C8.50874 47.9744 8.52904 49.8737 9.42631 51.4239L9.59941 51.3237ZM9.62668 46.554L9.79982 46.6542L11.893 43.0345L11.7198 42.9344L11.5467 42.8342L9.45354 46.4539L9.62668 46.554ZM11.7198 42.9344L11.8931 43.0343C12.4665 42.0405 12.1234 40.7546 11.1242 40.179L11.0244 40.3523L10.9245 40.5256C11.7322 40.9908 12.0096 42.032 11.5466 42.8344L11.7198 42.9344ZM11.0244 40.3523L11.1243 40.1791L7.59931 38.1447L7.49934 38.3179L7.39937 38.4911L10.9244 40.5255L11.0244 40.3523ZM7.49934 38.3179L7.59921 38.1446C4.46176 36.3364 4.67461 31.8794 7.64173 30.2851L7.54706 30.1089L7.4524 29.9327C4.21497 31.6723 3.98465 36.5231 7.39947 38.4912L7.49934 38.3179ZM7.54706 30.1089L7.64688 30.2822L11.2503 28.207L11.1505 28.0337L11.0507 27.8604L7.44725 29.9356L7.54706 30.1089ZM11.1505 28.0337H11.3505V28.0303H11.1505H10.9505V28.0337H11.1505ZM11.1505 28.0303L11.2561 28.2001C11.7613 27.8859 12.0918 27.5002 12.2471 26.9221L12.0539 26.8702L11.8608 26.8183C11.7364 27.2811 11.4805 27.5895 11.0448 27.8604L11.1505 28.0303ZM12.0539 26.8702L12.2471 26.9218C12.3825 26.4151 12.3302 25.8546 12.0583 25.3647L11.8835 25.4618L11.7086 25.5588C11.9276 25.9534 11.9707 26.4067 11.8607 26.8186L12.0539 26.8702ZM11.8835 25.4618V25.2618H11.8801V25.4618V25.6618H11.8835V25.4618ZM11.8801 25.4618L12.0496 25.3556C12.0352 25.3327 12.0248 25.3145 12.0145 25.2939L11.8357 25.3835L11.6569 25.4731C11.6739 25.507 11.6908 25.5364 11.7106 25.5679L11.8801 25.4618ZM11.8357 25.3835L12.0089 25.2834L10.0043 21.8168L9.83117 21.9169L9.65803 22.017L11.6626 25.4836L11.8357 25.3835ZM9.83117 21.9169L10.0043 21.8167C9.1771 20.3877 9.16824 18.7162 10.0068 17.2966L9.83458 17.1949L9.66238 17.0932C8.74864 18.6401 8.76023 20.466 9.65808 22.0171L9.83117 21.9169ZM9.83458 17.1949V16.9949H9.83117V17.1949V17.3949H9.83458V17.1949ZM9.83117 17.1949L10.0042 17.2952C10.8345 15.8632 12.2755 15.0305 13.9289 15.0305V14.8305V14.6305C12.1324 14.6305 10.5597 15.5396 9.65815 17.0946L9.83117 17.1949ZM13.9289 14.8305H13.7289V14.8339H13.9289H14.1289V14.8305H13.9289ZM13.9289 14.8339V15.0339H18.1698V14.8339V14.6339H13.9289V14.8339ZM18.1698 14.8339H18.3698V14.8305H18.1698H17.9698V14.8339H18.1698ZM18.1698 14.8305V15.0305C19.3196 15.0305 20.2619 14.0909 20.2619 12.9424H20.0619H19.8619C19.8619 13.8692 19.0995 14.6305 18.1698 14.6305V14.8305ZM20.0619 12.9424H20.2619V8.88037H20.0619H19.8619V12.9424H20.0619ZM20.0619 8.88037H20.2619C20.2619 7.2307 21.0928 5.79302 22.531 4.96448L22.4312 4.79118L22.3313 4.61788C20.7696 5.51758 19.8619 7.08716 19.8619 8.88037H20.0619ZM22.4312 4.79118H22.6312V4.78778H22.4312H22.2312V4.79118H22.4312ZM22.4312 4.78778L22.5309 4.96115C23.9677 4.13482 25.7093 4.12118 27.1055 4.98507L27.2107 4.81499L27.316 4.64492C25.7872 3.69897 23.8878 3.71933 22.3315 4.61441L22.4312 4.78778ZM27.2107 4.81499L27.1109 4.98828L30.7416 7.08047L30.8415 6.90718L30.9413 6.7339L27.3106 4.64171L27.2107 4.81499ZM30.8415 6.90718L30.742 7.08072C31.7339 7.64904 33.0218 7.30701 33.5986 6.30993L33.4255 6.20978L33.2524 6.10963C32.7861 6.91561 31.7421 7.19272 30.9409 6.73365L30.8415 6.90718ZM33.4255 6.20978L33.5986 6.30993L35.6338 2.79224L35.4607 2.69208L35.2876 2.59192L33.2524 6.10962L33.4255 6.20978ZM35.4607 2.69208L35.6338 2.79233C36.9272 0.559673 39.7488 -0.0978569 41.8333 1.12612L41.9346 0.953653L42.0359 0.781186C39.7636 -0.553053 36.6943 0.163716 35.2877 2.59182L35.4607 2.69208ZM41.9346 0.953653L41.8349 1.12702C42.497 1.50784 43.124 2.12113 43.5073 2.8344L43.6835 2.73972L43.8596 2.64504C43.4385 1.86138 42.7563 1.19553 42.0343 0.780283L41.9346 0.953653ZM43.6835 2.73972L43.5103 2.83984L45.6035 6.45952L45.7766 6.3594L45.9498 6.25928L43.8566 2.6396L43.6835 2.73972ZM45.7766 6.3594L45.6036 6.45964C46.1772 7.45003 47.4686 7.79519 48.4637 7.22342L48.3641 7.05001L48.2644 6.87659C47.4597 7.33899 46.4124 7.05814 45.9497 6.25916L45.7766 6.3594ZM48.3641 7.05001L48.4639 7.2233L51.989 5.19234L51.8891 5.01904L51.7893 4.84575L48.2642 6.87671L48.3641 7.05001ZM51.8891 5.01904L51.9889 5.19236C55.0234 3.44516 58.7936 5.61948 58.7936 9.10823H58.9936H59.1936C59.1936 5.30993 55.0889 2.94589 51.7893 4.84572L51.8891 5.01904ZM58.9936 9.10823L58.8524 8.96666L58.849 8.97006L58.9902 9.11163L59.1315 9.2532L59.1349 9.2498L58.9936 9.10823ZM58.9902 9.11163H58.7902V13.3437H58.9902H59.1902V9.11163H58.9902ZM58.9902 13.3437V13.5437H58.9936V13.3437V13.1437H58.9902V13.3437ZM58.9936 13.3437H58.7936C58.7936 14.4922 59.7358 15.4319 60.8857 15.4319V15.2319V15.0319C59.956 15.0319 59.1936 14.2705 59.1936 13.3437H58.9936ZM60.8857 15.2319V15.4319H64.9562V15.2319V15.0319H60.8857V15.2319ZM64.9562 15.2319V15.4319C68.4285 15.4319 70.6433 19.1761 68.8808 22.2214L69.0539 22.3216L69.227 22.4218C71.1464 19.1054 68.7315 15.0319 64.9562 15.0319V15.2319ZM69.0539 22.3216L68.8809 22.2214L66.7366 25.9227L66.9096 26.023L67.0827 26.1232L69.227 22.4219L69.0539 22.3216ZM66.9096 26.023L66.7366 25.9226C66.1927 26.8602 66.5313 28.1694 67.5222 28.7409L67.6221 28.5677L67.7221 28.3945C66.9197 27.9317 66.6516 26.8664 67.0826 26.1234L66.9096 26.023ZM67.6221 28.5677L67.5223 28.741L71.0473 30.772L71.1472 30.5987L71.247 30.4254L67.722 28.3944L67.6221 28.5677ZM71.1472 30.5987L71.0473 30.772C71.768 31.1871 72.3321 31.7509 72.7195 32.4203L72.8926 32.3201L73.0657 32.2199C72.6419 31.4877 72.0263 30.8743 71.247 30.4254L71.1472 30.5987ZM72.8926 32.3201L72.7195 32.4203C73.9373 34.525 73.2873 37.3168 71.044 38.6072L71.1438 38.7805L71.2435 38.9539C73.6843 37.5499 74.391 34.5105 73.0657 32.22L72.8926 32.3201ZM71.1438 38.7805L71.0439 38.6073L67.3723 40.7233L67.4722 40.8966L67.5721 41.0699L71.2436 38.9538L71.1438 38.7805ZM67.4722 40.8966H67.2722V40.9H67.4722H67.6722V40.8966H67.4722ZM67.4722 40.9L67.3724 40.7267C66.3731 41.3024 66.0301 42.5882 66.6035 43.582L66.7767 43.4821L66.95 43.3821C66.487 42.5797 66.7644 41.5386 67.572 41.0733L67.4722 40.9ZM66.7767 43.4821V43.6821H66.7801V43.4821V43.2821H66.7767V43.4821ZM66.7801 43.4821L66.607 43.5822L68.6422 47.0999L68.8153 46.9998L68.9885 46.8996L66.9533 43.3819L66.7801 43.4821ZM68.8153 46.9998L68.6423 47.1001C69.4694 48.5256 69.4782 50.2071 68.6398 51.6233L68.8119 51.7252L68.984 51.827C69.8979 50.2835 69.8863 48.4472 68.9883 46.8994L68.8153 46.9998ZM68.8119 51.7252V51.9252H68.8153V51.7252V51.5252H68.8119V51.7252ZM68.8153 51.7252L68.6413 51.6266C68.3147 52.2035 67.8775 52.6852 67.3622 53.0563L67.479 53.2186L67.5959 53.3809C68.1578 52.9763 68.6341 52.4512 68.9894 51.8237L68.8153 51.7252ZM67.479 53.2186L67.5491 53.4059L67.5501 53.4055L67.48 53.2182L67.4099 53.0309L67.4089 53.0313L67.479 53.2186ZM27.4742 37.4504L27.3336 37.5925L32.9108 43.1105L33.0515 42.9684L33.1921 42.8262L27.6149 37.3082L27.4742 37.4504ZM33.0515 42.9684L32.9105 43.1102C33.8328 44.0271 35.0434 44.4815 36.2492 44.4815V44.2815V44.0815C35.1435 44.0815 34.036 43.6651 33.1925 42.8265L33.0515 42.9684ZM36.2492 44.2815L36.2498 44.4815C37.4594 44.478 38.6666 44.0163 39.5854 43.0924L39.4436 42.9514L39.3018 42.8104C38.4613 43.6555 37.3572 44.0783 36.2486 44.0815L36.2492 44.2815ZM39.4436 42.9514L39.5777 43.0997L51.1553 32.6288L51.0212 32.4804L50.887 32.3321L39.3094 42.8031L39.4436 42.9514ZM51.0212 32.4804L51.1555 32.6286C52.1197 31.7552 52.6435 30.5753 52.7005 29.3737L52.5007 29.3642L52.3009 29.3547C52.2489 30.4528 51.7704 31.5319 50.8869 32.3322L51.0212 32.4804ZM52.5007 29.3642L52.7005 29.3743C52.9106 25.2124 47.9372 22.8436 44.8291 25.654L44.9632 25.8024L45.0974 25.9507C47.9415 23.379 52.4931 25.5486 52.301 29.3541L52.5007 29.3642ZM44.9632 25.8024L44.8291 25.654L36.2484 33.414L36.3826 33.5624L36.5167 33.7107L45.0974 25.9507L44.9632 25.8024ZM36.3826 33.5624L36.5233 33.4202L33.9938 30.9163L33.8531 31.0585L33.7124 31.2006L36.2419 33.7045L36.3826 33.5624ZM33.8531 31.0585L33.9943 31.2001L33.9978 31.1967L33.8565 31.0551L33.7152 30.9135L33.7118 30.9169L33.8531 31.0585ZM33.8565 31.0551V30.8551C33.9043 30.8551 33.9385 30.8727 33.9444 30.8756C33.9562 30.8814 33.9646 30.8871 33.9682 30.8896C33.9757 30.8947 33.9806 30.899 33.9809 30.8992C33.9823 30.9005 33.9816 30.9 33.9768 30.8953C33.9669 30.886 33.9552 30.8744 33.9344 30.8544C33.8955 30.817 33.8385 30.7631 33.7641 30.6985C33.6155 30.5693 33.398 30.3976 33.1151 30.2262C32.549 29.8832 31.7191 29.5402 30.655 29.5419L30.6553 29.7419L30.6556 29.9419C31.6302 29.9403 32.3889 30.2539 32.9078 30.5683C33.1674 30.7256 33.3664 30.8828 33.5017 31.0004C33.5693 31.0591 33.6211 31.108 33.657 31.1426C33.6736 31.1586 33.6908 31.1753 33.7012 31.1853C33.7065 31.1903 33.7138 31.1972 33.7211 31.2034C33.7243 31.2061 33.7316 31.2123 33.7409 31.2187C33.7454 31.2218 33.7546 31.228 33.7671 31.2341C33.7736 31.2373 33.8083 31.2551 33.8565 31.2551V31.0551ZM30.6553 29.7419L30.6547 29.5419C29.4452 29.5455 28.2381 30.0072 27.3194 30.9274L27.461 31.0687L27.6025 31.21C28.4431 30.368 29.5473 29.9452 30.6559 29.9419L30.6553 29.7419ZM27.461 31.0687L27.6023 30.9272L27.5989 30.9238L27.4576 31.0653L27.3162 31.2068L27.3196 31.2102L27.461 31.0687ZM27.4576 31.0653H27.2575C27.2575 31.0173 27.2753 30.9829 27.2782 30.9771C27.284 30.9653 27.2898 30.9568 27.2922 30.9532C27.2974 30.9457 27.3017 30.9408 27.302 30.9405C27.3032 30.9391 27.3027 30.9398 27.298 30.9447C27.2887 30.9545 27.2771 30.9662 27.2571 30.9869C27.2196 31.0257 27.1656 31.0826 27.1008 31.1569C26.9713 31.3052 26.7993 31.5222 26.6275 31.8046C26.2837 32.3695 25.9399 33.1979 25.9417 34.2601L26.1417 34.2598L26.3417 34.2594C26.34 33.2872 26.6541 32.5302 26.9692 32.0125C27.1268 31.7535 27.2843 31.5549 27.4021 31.4199C27.461 31.3524 27.51 31.3008 27.5447 31.2649C27.5607 31.2483 27.5775 31.2312 27.5874 31.2208C27.5924 31.2155 27.5993 31.2082 27.6056 31.201C27.6083 31.1978 27.6145 31.1905 27.6209 31.1812C27.624 31.1767 27.6302 31.1674 27.6364 31.155C27.6397 31.1485 27.6575 31.1137 27.6575 31.0653H27.4576ZM26.1417 34.2598L25.9417 34.2604C25.9452 35.4677 26.408 36.6725 27.3302 37.5893L27.4712 37.4475L27.6122 37.3056C26.7685 36.4669 26.3449 35.3651 26.3417 34.2592L26.1417 34.2598ZM27.4712 37.4475L27.3338 37.5929L27.3369 37.5958L27.4742 37.4504L27.6116 37.305L27.6085 37.3021L27.4712 37.4475ZM28.681 36.2495L28.5398 36.1079L28.5363 36.1113L28.6776 36.2529L28.8189 36.3944L28.8223 36.391L28.681 36.2495ZM28.6776 36.2529L28.5369 36.395L34.1073 41.913L34.2481 41.7709L34.3888 41.6288L28.8184 36.1108L28.6776 36.2529ZM34.2481 41.7709L34.1072 41.9129C35.2839 43.0798 37.1258 43.0973 38.3748 41.9053L38.2367 41.7607L38.0986 41.616C37.0022 42.6624 35.4076 42.6392 34.3889 41.6289L34.2481 41.7709ZM38.2367 41.7607L38.3708 41.909L50.013 31.3797L49.8789 31.2314L49.7447 31.083L38.1025 41.6123L38.2367 41.7607ZM49.8789 31.2314L50.0129 31.3798C51.9962 29.5901 50.8206 26.2741 48.1432 26.1429L48.1334 26.3427L48.1236 26.5424C50.444 26.6561 51.4638 29.5317 49.7449 31.0829L49.8789 31.2314ZM48.1334 26.3427L48.1438 26.1429C47.3702 26.1029 46.5846 26.3579 45.9675 26.9155L46.1016 27.0639L46.2357 27.2123C46.7708 26.7288 47.4512 26.5076 48.1231 26.5424L48.1334 26.3427ZM46.1016 27.0639L45.9675 26.9155L36.1938 35.7535L36.3279 35.9019L36.4621 36.0502L46.2358 27.2122L46.1016 27.0639ZM36.3279 35.9019L36.4686 35.7597L32.7903 32.1196L32.6496 32.2617L32.5089 32.4039L36.1873 36.044L36.3279 35.9019ZM32.6496 32.2617L32.7908 32.4033L32.7943 32.3999L32.653 32.2583L32.5117 32.1168L32.5083 32.1202L32.6496 32.2617ZM32.653 32.2583L32.7938 32.1163C32.2023 31.5297 31.4282 31.2385 30.6552 31.2385V31.4385V31.6385C31.3279 31.6385 31.9991 31.8916 32.5121 32.4003L32.653 32.2583ZM30.6552 31.4385L30.6543 31.2385C29.8845 31.2421 29.1139 31.5372 28.526 32.1274L28.6678 32.2685L28.8095 32.4097C29.3194 31.8977 29.9873 31.6416 30.6562 31.6385L30.6552 31.4385ZM28.6678 32.2685H28.4678V32.2719H28.6678H28.8678V32.2685H28.6678ZM28.6678 32.2719V32.0719H28.6643V32.2719V32.4719H28.6678V32.2719ZM28.6643 32.2719L28.5226 32.1308C27.9347 32.7211 27.6428 33.4938 27.6428 34.2655H27.8428H28.0428C28.0428 33.5947 28.2962 32.925 28.8061 32.4131L28.6643 32.2719ZM27.8428 34.2655L27.6428 34.2665C27.6464 35.0351 27.9423 35.8041 28.5333 36.3938L28.6746 36.2523L28.8158 36.1107C28.3023 35.5982 28.0459 34.9316 28.0428 34.2646L27.8428 34.2655ZM28.6746 36.2523L28.7542 36.4357L28.7606 36.4329L28.681 36.2495L28.6014 36.066L28.595 36.0688L28.6746 36.2523ZM39.3274 14.8338V14.6338C28.3563 14.6338 19.4605 23.5104 19.4605 34.4597H19.6605H19.8605C19.8605 23.7321 28.5764 15.0338 39.3274 15.0338V14.8338ZM19.6605 34.4597H19.4605C19.4605 45.4091 28.3563 54.2857 39.3274 54.2857V54.0857V53.8857C28.5764 53.8857 19.8605 45.1874 19.8605 34.4597H19.6605ZM39.3274 54.0857V54.2857C50.2986 54.2857 59.1943 45.4091 59.1943 34.4597H58.9943H58.7943C58.7943 45.1874 50.0785 53.8857 39.3274 53.8857V54.0857ZM58.9943 34.4597H59.1943C59.1943 23.5104 50.2986 14.6338 39.3274 14.6338V14.8338V15.0338C50.0785 15.0338 58.7943 23.7321 58.7943 34.4597H58.9943ZM52.03 21.7841L52.1712 21.6425C45.0773 14.5633 33.5784 14.5632 26.4879 21.6425L26.6292 21.7841L26.7705 21.9256C33.7048 15.0022 44.9508 15.0022 51.8887 21.9256L52.03 21.7841ZM26.6292 21.7841L26.488 21.6425C19.3937 28.722 19.3937 40.1976 26.488 47.2735L26.6292 47.1319L26.7705 46.9903C19.8329 40.0707 19.8329 28.8489 26.7705 21.9256L26.6292 21.7841ZM26.6292 47.1319L26.488 47.2735C33.582 54.3527 45.0808 54.3528 52.1713 47.2735L52.03 47.1319L51.8887 46.9904C44.9544 53.9138 33.7084 53.9138 26.7705 46.9904L26.6292 47.1319ZM52.03 47.1319L52.1712 47.2735C59.2621 40.1974 59.2621 28.7219 52.1713 21.6425L52.03 21.7841L51.8887 21.9256C58.823 28.8487 58.8229 40.0706 51.8887 46.9904L52.03 47.1319ZM52.5379 62.7613L52.4584 62.9448C53.0749 63.212 53.5802 63.3437 54.273 63.2486L54.2458 63.0505L54.2186 62.8523C53.623 62.9341 53.1941 62.8277 52.6175 62.5778L52.5379 62.7613ZM54.2458 63.0505L54.2723 63.2487C55.8466 63.0388 57.0913 61.7298 57.0913 60.0363H56.8913H56.6913C56.6913 61.5203 55.6041 62.6676 54.2194 62.8522L54.2458 63.0505ZM56.8913 60.0363H57.0913V55.9743H56.8913H56.6913V60.0363H56.8913ZM56.8913 55.9743H57.0913C57.0913 54.1086 58.6173 52.5852 60.4879 52.5852V52.3852V52.1852C58.3971 52.1852 56.6913 53.8869 56.6913 55.9743H56.8913ZM60.4879 52.3852V52.5852H64.7833V52.3852V52.1852H60.4879V52.3852ZM64.7833 52.3852L64.7847 52.5852C65.3293 52.5816 65.8815 52.4369 66.352 52.1676L66.2527 51.994L66.1533 51.8204C65.7443 52.0545 65.2601 52.182 64.782 52.1852L64.7833 52.3852ZM66.2527 51.994H66.0527V51.9974H66.2527H66.4527V51.994H66.2527ZM66.2527 51.9974L66.3542 52.1697C66.8343 51.8866 67.2233 51.5011 67.5299 50.9755L67.3572 50.8747L67.1844 50.7739C66.9116 51.2417 66.5711 51.5774 66.1511 51.8251L66.2527 51.9974ZM67.3572 50.8747L67.5305 50.9745C68.1138 49.9621 68.1303 48.7519 67.5289 47.7444L67.3572 47.8469L67.1854 47.9494C67.7091 48.8267 67.6983 49.882 67.1839 50.7748L67.3572 50.8747ZM67.3572 47.8469L67.5303 47.7467L65.4951 44.229L65.322 44.3292L65.1489 44.4293L67.1841 47.947L67.3572 47.8469ZM65.322 44.3292V44.5292H65.3254V44.3292V44.1292H65.322V44.3292ZM65.3254 44.3292L65.4977 44.2277C64.5625 42.6401 65.1119 40.5385 66.7376 39.6037L66.6379 39.4303L66.5382 39.2569C64.7207 40.302 64.1042 42.6502 65.1531 44.4307L65.3254 44.3292ZM66.6379 39.4303L66.7377 39.6036L70.4127 37.4876L70.3129 37.3143L70.2131 37.1409L66.5381 39.257L66.6379 39.4303ZM70.3129 37.3143L70.4127 37.4876C72.0375 36.5517 72.4543 34.5353 71.6075 33.0738L71.4345 33.174L71.2614 33.2743C72.0032 34.5547 71.6359 36.3214 70.213 37.1409L70.3129 37.3143ZM71.4345 33.174V33.374H71.4379V33.174V32.974H71.4345V33.174ZM71.4379 33.174L71.61 33.0721C71.3267 32.5937 70.9406 32.2017 70.4163 31.8986L70.3163 32.0718L70.2162 32.245C70.6806 32.5134 71.0173 32.8562 71.2658 33.2759L71.4379 33.174ZM70.3163 32.0718L70.4162 31.8986L66.9594 29.9049L66.8595 30.0782L66.7596 30.2515L70.2163 32.2451L70.3163 32.0718ZM66.8595 30.0782L66.951 29.9004C65.3031 29.0525 64.6739 26.7922 65.6722 25.1969L65.5026 25.0908L65.3331 24.9847C64.211 26.778 64.9113 29.3008 66.768 30.256L66.8595 30.0782ZM65.5026 25.0908L65.6757 25.191L67.7689 21.5747L67.5958 21.4746L67.4227 21.3744L65.3296 24.9907L65.5026 25.0908ZM67.5958 21.4746L67.769 21.5746C68.9963 19.451 67.515 16.7363 64.9674 16.7363V16.9363V17.1363C67.1993 17.1363 68.4998 19.5109 67.4226 21.3745L67.5958 21.4746ZM64.9674 16.9363V16.7363H60.8969V16.9363V17.1363H64.9674V16.9363ZM60.8969 16.9363V16.7363C59.0263 16.7363 57.5003 15.2129 57.5003 13.3472H57.3003H57.1003C57.1003 15.4346 58.8062 17.1363 60.8969 17.1363V16.9363ZM57.3003 13.3472V13.5472H57.3037V13.3472V13.1472H57.3003V13.3472ZM57.3037 13.3472H57.5037V9.1151H57.3037H57.1037V13.3472H57.3037ZM57.3037 9.1151V8.9151H57.3003V9.1151V9.3151H57.3037V9.1151ZM57.3003 9.1151H57.5003C57.5003 6.60512 54.806 5.07956 52.6529 6.31884L52.7526 6.49218L52.8524 6.66552C54.7424 5.57773 57.1003 6.91677 57.1003 9.1151H57.3003ZM52.7526 6.49218L52.6528 6.31889L49.1277 8.34985L49.2276 8.52315L49.3274 8.69644L52.8525 6.66548L52.7526 6.49218ZM49.2276 8.52315H49.4276V8.51974H49.2276H49.0276V8.52315H49.2276ZM49.2276 8.51974L49.1264 8.34724C47.5351 9.28079 45.4351 8.73571 44.4916 7.10636L44.3185 7.20658L44.1454 7.30681C45.1995 9.12707 47.5451 9.73863 49.3288 8.69225L49.2276 8.51974ZM44.3185 7.20658L44.4913 7.10585L42.3572 3.44533L42.1844 3.54606L42.0116 3.64679L44.1457 7.30731L44.3185 7.20658ZM42.1844 3.54606L42.3578 3.44641C42.0613 2.93045 41.6581 2.52706 41.1801 2.25029L41.0799 2.42336L40.9797 2.59644C41.3948 2.83683 41.7484 3.1887 42.011 3.6457L42.1844 3.54606ZM41.0799 2.42336H41.2799V2.41996H41.0799H40.8799V2.42336H41.0799ZM41.0799 2.41996L41.1795 2.24654C39.7162 1.40588 37.6996 1.8102 36.7546 3.44245L36.9276 3.54265L37.1007 3.64286C37.9284 2.21325 39.6959 1.85552 40.9803 2.59338L41.0799 2.41996ZM36.9276 3.54265L36.7545 3.4425L34.7193 6.96019L34.8924 7.06035L35.0655 7.16051L37.1007 3.64281L36.9276 3.54265ZM34.8924 7.06035L34.7193 6.9603C33.786 8.57558 31.7095 9.13188 30.0866 8.19682L29.9867 8.37012L29.8869 8.54341C31.7004 9.58828 34.0216 8.96746 35.0656 7.1604L34.8924 7.06035ZM29.9867 8.37012L30.0865 8.19679L26.4116 6.08074L26.3118 6.25406L26.212 6.42738L29.887 8.54344L29.9867 8.37012ZM26.3118 6.25406L26.4119 6.08093C25.3848 5.48695 24.2075 5.4909 23.1814 6.08066L23.2811 6.25406L23.3807 6.42746C24.2842 5.90817 25.3092 5.90533 26.2117 6.4272L26.3118 6.25406ZM23.2811 6.25406L23.1797 6.08168C22.1487 6.68814 21.5674 7.67128 21.5674 8.87699H21.7674H21.9674C21.9674 7.81693 22.4702 6.96305 23.3825 6.42645L23.2811 6.25406ZM21.7674 8.87699H21.5674V12.939H21.7674H21.9674V8.87699H21.7674ZM21.7674 12.939H21.5674C21.5674 14.8047 20.0414 16.3281 18.1708 16.3281V16.5281V16.7281C20.2615 16.7281 21.9674 15.0264 21.9674 12.939H21.7674ZM18.1708 16.5281H18.3708V16.5247H18.1708H17.9708V16.5281H18.1708ZM18.1708 16.5247V16.3247H13.9299V16.5247V16.7247H18.1708V16.5247ZM13.9299 16.5247H13.7299V16.5281H13.9299H14.1299V16.5247H13.9299ZM13.9299 16.5281V16.3281C12.7337 16.3281 11.7267 16.9069 11.1283 17.9419L11.3015 18.042L11.4746 18.1421C12.0012 17.2312 12.876 16.7281 13.9299 16.7281V16.5281ZM11.3015 18.042V17.842H11.2981V18.042V18.242H11.3015V18.042ZM11.2981 18.042L11.1249 17.942C10.5334 18.9667 10.5334 20.1454 11.1285 21.1703L11.3015 21.0698L11.4744 20.9694C10.9514 20.0687 10.9513 19.0429 11.4713 18.142L11.2981 18.042ZM11.3015 21.0698L11.1284 21.17L13.133 24.6333L13.3061 24.5331L13.4791 24.4329L11.4746 20.9696L11.3015 21.0698ZM13.3061 24.5331L13.1366 24.6393L13.1536 24.6665L13.3231 24.5603L13.4926 24.4542L13.4756 24.4269L13.3061 24.5331ZM13.3231 24.5603L13.1501 24.6607C14.1036 26.3034 13.557 28.3521 11.923 29.3104L12.0242 29.483L12.1254 29.6555C13.9483 28.5864 14.5607 26.2941 13.4961 24.4599L13.3231 24.5603ZM12.0242 29.483L11.9243 29.3097L8.25278 31.4257L8.35265 31.599L8.45252 31.7723L12.1241 29.6562L12.0242 29.483ZM8.35265 31.599L8.25261 31.4258C6.08754 32.6766 6.08753 35.7674 8.25261 37.0181L8.35265 36.8449L8.45269 36.6717C6.55418 35.575 6.55417 32.8689 8.45269 31.7722L8.35265 31.599ZM8.35265 36.8449H8.15265V36.8483H8.35265H8.55265V36.8449H8.35265ZM8.35265 36.8483L8.25288 37.0216L11.7813 39.0526L11.8811 38.8792L11.9809 38.7059L8.45242 36.6749L8.35265 36.8483ZM11.8811 38.8792L11.781 39.0524C13.4037 39.9905 13.9571 42.0625 13.0205 43.6813L13.1936 43.7815L13.3667 43.8817C14.4141 42.0713 13.7949 39.7547 11.9812 38.7061L11.8811 38.8792ZM13.1936 43.7815V43.5815H13.1902V43.7815V43.9815H13.1936V43.7815ZM13.1902 43.7815L13.017 43.6814L10.8966 47.3487L11.0697 47.4488L11.2428 47.5489L13.3633 43.8816L13.1902 43.7815ZM11.0697 47.4488L10.8968 47.3484C10.3014 48.3737 10.3053 49.549 10.8965 50.5732L11.0697 50.4732L11.2429 50.3733C10.7227 49.4719 10.7199 48.4495 11.2427 47.5493L11.0697 47.4488ZM11.0697 50.4732L10.8973 50.5745C11.5129 51.6225 12.5127 52.1837 13.6981 52.1837V51.9837V51.7837C12.654 51.7837 11.7856 51.2971 11.2422 50.3719L11.0697 50.4732ZM13.6981 51.9837V52.1837H17.7686V51.9837V51.7837H13.6981V51.9837ZM17.7686 51.9837V52.1837C19.6392 52.1837 21.1652 53.7072 21.1652 55.5729H21.3652H21.5652C21.5652 53.4855 19.8593 51.7837 17.7686 51.7837V51.9837ZM21.3652 55.5729H21.1652V59.805H21.3652H21.5652V55.5729H21.3652ZM21.3652 59.805H21.1652C21.1652 60.3991 21.3097 60.9511 21.5841 61.4258L21.7572 61.3257L21.9304 61.2256C21.6934 60.8157 21.5652 60.3335 21.5652 59.805H21.3652ZM21.7572 61.3257V61.1257H21.7538V61.3257V61.5257H21.7572V61.3257ZM21.7538 61.3257L21.5815 61.4272C22.4521 62.9041 24.3985 63.5301 26.0094 62.6011L25.9095 62.4279L25.8096 62.2546C24.4 63.0675 22.6919 62.5233 21.9261 61.2241L21.7538 61.3257ZM25.9095 62.4279L26.0095 62.6011L29.4868 60.5939L29.3868 60.4207L29.2868 60.2475L25.8095 62.2547L25.9095 62.4279ZM29.3868 60.4207V60.6207H29.3902V60.4207V60.2207H29.3868V60.4207ZM29.3902 60.4207L29.4902 60.5939C30.3348 60.1062 31.2349 59.9951 32.1101 60.2295L32.1618 60.0363L32.2135 59.8431C31.2341 59.5808 30.225 59.7078 29.2902 60.2475L29.3902 60.4207ZM32.1618 60.0363L32.1104 60.2295C32.932 60.4482 33.6716 60.9718 34.1378 61.7515L34.3095 61.6489L34.4812 61.5462C33.9587 60.6725 33.1302 60.087 32.2132 59.843L32.1618 60.0363ZM34.3095 61.6489L34.1432 61.7599L34.15 61.7701L34.3163 61.6591L34.4826 61.548L34.4758 61.5378L34.3095 61.6489ZM34.3163 61.6591L34.1441 61.7608C34.8697 62.988 35.5738 64.2303 36.2909 65.4707L36.464 65.3706L36.6372 65.2705C35.9224 64.0342 35.2152 62.7865 34.4885 61.5573L34.3163 61.6591ZM36.464 65.3706L36.2919 65.4724C36.5972 65.9886 36.9788 66.3821 37.472 66.6666L37.5719 66.4933L37.6718 66.3201C37.2447 66.0737 36.9104 65.7324 36.6361 65.2688L36.464 65.3706ZM37.5719 66.4933H37.3719V66.4967H37.5719H37.7719V66.4933H37.5719ZM37.5719 66.4967L37.4723 66.6701C38.9356 67.5108 40.9488 67.1099 41.8972 65.4743L41.7242 65.374L41.5512 65.2737C40.7201 66.7068 38.956 67.0612 37.6716 66.3233L37.5719 66.4967ZM41.7242 65.374L41.8973 65.4742L43.9325 61.9565L43.7594 61.8563L43.5863 61.7562L41.5511 65.2739L41.7242 65.374ZM43.7594 61.8563L43.9326 61.9564C44.8658 60.3411 46.9423 59.7848 48.5652 60.7199L48.6651 60.5466L48.7649 60.3733C46.9514 59.3284 44.6302 59.9492 43.5862 61.7563L43.7594 61.8563ZM48.6651 60.5466L48.5653 60.7199L52.2402 62.8359L52.34 62.6626L52.4398 62.4893L48.7649 60.3732L48.6651 60.5466ZM52.34 62.6626L52.2508 62.8416C52.3138 62.873 52.3854 62.9104 52.4525 62.9421L52.5379 62.7613L52.6234 62.5805C52.5609 62.551 52.5027 62.5203 52.4293 62.4837L52.34 62.6626ZM65.936 53.9364L65.8872 53.7424C65.5108 53.8371 65.1284 53.8861 64.7292 53.8861V54.0861V54.2861C65.1619 54.2861 65.5771 54.2329 65.9848 54.1303L65.936 53.9364ZM64.7292 54.0861V53.8861H60.4883V54.0861V54.2861H64.7292V54.0861ZM60.4883 54.0861V53.8861C59.3385 53.8861 58.3962 54.8257 58.3962 55.9742H58.5962H58.7962C58.7962 55.0474 59.5586 54.2861 60.4883 54.2861V54.0861ZM58.5962 55.9742H58.3962V60.0362H58.5962H58.7962V55.9742H58.5962ZM58.5962 60.0362H58.3962C58.3962 62.4366 56.5658 64.3273 54.2913 64.5524L54.311 64.7514L54.3306 64.9504C56.8017 64.7059 58.7962 62.6503 58.7962 60.0362H58.5962ZM54.311 64.7514L54.3011 64.5517L53.8852 64.5721L53.8951 64.7718L53.9049 64.9716L54.3208 64.9512L54.311 64.7514ZM53.8951 64.7718L53.7219 64.872L61.9821 79.1532L62.1552 79.053L62.3284 78.9529L54.0682 64.6717L53.8951 64.7718ZM62.1552 79.053L61.9818 79.1526C62.1583 79.46 62.4301 79.813 62.7489 80.0792C63.0623 80.3408 63.4572 80.5478 63.8691 80.4857L63.8393 80.288L63.8096 80.0902C63.567 80.1267 63.2868 80.0072 63.0053 79.7721C62.7292 79.5416 62.4862 79.2278 62.3287 78.9534L62.1552 79.053ZM63.8393 80.288L64.0378 80.3128L64.0412 80.2856L63.8428 80.2608L63.6443 80.2359L63.6409 80.2631L63.8393 80.288ZM63.8428 80.2608L64.0426 80.2691L64.4721 69.913L64.2723 69.9048L64.0725 69.8965L63.6429 80.2525L63.8428 80.2608ZM64.2723 69.9048L64.4721 69.913C64.4985 69.2755 64.8067 68.7994 65.2341 68.552C65.6614 68.3048 66.2285 68.2743 66.7979 68.5715L66.8905 68.3942L66.983 68.217C66.3013 67.8611 65.5883 67.8849 65.0338 68.2058C64.4794 68.5267 64.1041 69.1324 64.0725 69.8965L64.2723 69.9048ZM66.8905 68.3942L66.7979 68.5715L76.0261 73.3922L76.1187 73.2149L76.2113 73.0377L66.9831 68.217L66.8905 68.3942ZM76.1187 73.2149L76.2751 73.3395C76.5335 73.015 76.5492 72.5677 76.4789 72.1654C76.4073 71.7554 76.2385 71.3424 76.0639 71.037L75.8903 71.1363L75.7167 71.2356C75.8727 71.5085 76.0227 71.878 76.0849 72.2342C76.1484 72.5983 76.1129 72.9011 75.9622 73.0903L76.1187 73.2149ZM75.8903 71.1363L76.0634 71.0361L66.1091 53.8362L65.936 53.9364L65.7629 54.0365L75.7172 71.2365L75.8903 71.1363ZM24.6552 64.5406L24.6455 64.3408C22.96 64.4223 21.3061 63.5343 20.4612 62.076L20.2881 62.1762L20.1151 62.2765C21.0361 63.8662 22.8321 64.829 24.6648 64.7403L24.6552 64.5406ZM20.2881 62.1762L20.4614 62.0764C20.0735 61.4031 19.8643 60.6313 19.8643 59.805H19.6643H19.4643C19.4643 60.7001 19.6913 61.5409 20.1148 62.2761L20.2881 62.1762ZM19.6643 59.805L19.8643 59.8048L19.8608 55.5727L19.6608 55.5729L19.4608 55.5731L19.4643 59.8052L19.6643 59.805ZM19.6608 55.5729H19.8608C19.8608 54.4244 18.9186 53.4848 17.7688 53.4848V53.6848V53.8848C18.6985 53.8848 19.4608 54.6461 19.4608 55.5729H19.6608ZM17.7688 53.6848V53.4848H13.6301V53.6848V53.8848H17.7688V53.6848ZM13.6301 53.6848L13.6322 53.4848C13.321 53.4815 13.0178 53.4488 12.7257 53.384L12.6824 53.5793L12.6391 53.7746C12.9606 53.8459 13.2916 53.8812 13.628 53.8847L13.6301 53.6848ZM12.6824 53.5793L12.5093 53.4792L2.59252 70.6222L2.76564 70.7223L2.93876 70.8225L12.8556 53.6795L12.6824 53.5793ZM2.76564 70.7223L2.59414 70.6194C2.41228 70.9225 2.24408 71.3371 2.17428 71.7481C2.10581 72.1514 2.12451 72.5998 2.38067 72.922L2.53723 72.7975L2.69378 72.6731C2.54426 72.485 2.50672 72.1798 2.56864 71.8151C2.62924 71.4582 2.77809 71.0903 2.93713 70.8252L2.76564 70.7223ZM2.53723 72.7975L2.62983 72.9748L11.858 68.1541L11.7654 67.9769L11.6728 67.7996L2.44462 72.6203L2.53723 72.7975ZM11.7654 67.9769L11.8578 68.1543C12.4255 67.8586 12.9928 67.889 13.4207 68.136C13.8486 68.3831 14.1574 68.8584 14.1838 69.4956L14.3836 69.4874L14.5835 69.4791C14.5519 68.7147 14.1755 68.1099 13.6207 67.7896C13.066 67.4694 12.3531 67.4453 11.6731 67.7995L11.7654 67.9769ZM14.3836 69.4874L14.1838 69.4957L14.6133 79.8517L14.8132 79.8434L15.013 79.8351L14.5835 69.4791L14.3836 69.4874ZM14.8132 79.8434L14.6147 79.8682L14.6181 79.8954L14.8166 79.8706L15.015 79.8457L15.0116 79.8185L14.8132 79.8434ZM14.8166 79.8706L14.7869 80.0684C15.2006 80.1304 15.5955 79.9225 15.9085 79.6603C16.2269 79.3937 16.4976 79.0409 16.6739 78.7357L16.5007 78.6356L16.3275 78.5356C16.1697 78.8088 15.9274 79.1228 15.6517 79.3537C15.3706 79.5891 15.0905 79.7094 14.8462 79.6728L14.8166 79.8706ZM16.5007 78.6356L16.6738 78.7358L24.8283 64.6407L24.6552 64.5406L24.482 64.4404L16.3276 78.5355L16.5007 78.6356Z" fill="#E6AF2E" mask="url(#path-1-outside-1_1126_2643)"/>
</svg>
