<svg width="145" height="60" viewBox="0 0 145 60" fill="none" xmlns="http://www.w3.org/2000/svg">
<rect x="0.429688" y="0.0908203" width="144.57" height="59" fill="#F4F3F3"/>
<path d="M27.6875 44.0908V18.7588H27.6094L20.0508 23.8369V21.1221L27.6484 15.9072H30.2656V44.0908H27.6875ZM37.2383 44.0908V42.2158L47.1992 31.7471C51.2422 27.5479 52.2383 25.8486 52.2383 23.3877V23.3486C52.2188 20.165 49.7188 17.8018 46.2812 17.8018C42.5117 17.8018 39.7773 20.3604 39.6992 23.6611L39.6797 23.8174H37.1016V23.6416C37.1797 18.9346 41.1445 15.458 46.2227 15.458C51.2422 15.458 54.8945 18.8564 54.8945 23.2314V23.2705C54.8945 26.2979 53.4883 28.6025 48.4883 33.7588L40.9492 41.6104V41.708H55.6172V44.0908H37.2383ZM69.2695 44.54C62.9023 44.54 59.0938 38.9346 59.0938 30.0283V29.9697C59.0938 21.0439 62.9023 15.458 69.2695 15.458C75.6367 15.458 79.4648 21.0635 79.4648 29.9697V30.0283C79.4648 38.9541 75.6367 44.54 69.2695 44.54ZM69.2695 42.1963C73.9961 42.1963 76.7891 37.4893 76.7891 30.0283V29.9697C76.7891 22.4697 73.9961 17.8213 69.2695 17.8213C64.543 17.8213 61.7695 22.4893 61.7695 29.9697V30.0283C61.7695 37.5088 64.543 42.1963 69.2695 42.1963ZM83.8594 44.0908V15.9072H86.5156V28.4463H103V15.9072H105.676V44.0908H103V30.8682H86.5156V44.0908H83.8594ZM109.895 44.0908V42.1768L121.984 26.0049V25.9463H109.895V23.7783H124.953V25.7314L112.883 41.8643V41.9229H124.992V44.0908H109.895Z" fill="black"/>
</svg>
