<svg width="145" height="60" viewBox="0 0 145 60" fill="none" xmlns="http://www.w3.org/2000/svg">
<rect y="0.0908203" width="144.57" height="59" fill="#F4F3F3"/>
<path d="M37.5703 44.54C32.1016 44.54 27.0625 40.5752 27.0625 30.79V30.751C27.0625 21.1416 31.0859 15.458 37.7656 15.458C42.5117 15.458 45.9688 18.251 46.8086 22.2354L46.8477 22.4697H44.1523L44.0742 22.2549C43.3125 19.5986 40.9492 17.8408 37.7461 17.8408C32.1406 17.8408 29.7773 23.4072 29.6602 30.126C29.6406 30.3994 29.6406 30.6729 29.6406 30.9463H29.7188C30.7734 27.958 33.957 25.6338 38 25.6338C43.3516 25.6338 47.3555 29.6182 47.3555 34.9502V34.9893C47.3555 40.4971 43.1953 44.54 37.5703 44.54ZM30.4023 34.8135C30.4023 38.876 33.4492 42.1572 37.5508 42.1572C41.5156 42.1572 44.6406 39.0322 44.6406 35.0283V34.9893C44.6406 30.9658 41.6328 27.9971 37.5703 27.9971C33.5859 27.9971 30.4023 30.9854 30.4023 34.7939V34.8135ZM61.2617 44.54C54.8945 44.54 51.0859 38.9346 51.0859 30.0283V29.9697C51.0859 21.0439 54.8945 15.458 61.2617 15.458C67.6289 15.458 71.457 21.0635 71.457 29.9697V30.0283C71.457 38.9541 67.6289 44.54 61.2617 44.54ZM61.2617 42.1963C65.9883 42.1963 68.7812 37.4893 68.7812 30.0283V29.9697C68.7812 22.4697 65.9883 17.8213 61.2617 17.8213C56.5352 17.8213 53.7617 22.4893 53.7617 29.9697V30.0283C53.7617 37.5088 56.5352 42.1963 61.2617 42.1963ZM75.8516 44.0908V15.9072H78.5078V28.4463H94.9922V15.9072H97.668V44.0908H94.9922V30.8682H78.5078V44.0908H75.8516ZM101.887 44.0908V42.1768L113.977 26.0049V25.9463H101.887V23.7783H116.945V25.7314L104.875 41.8643V41.9229H116.984V44.0908H101.887Z" fill="black"/>
</svg>
