<svg width="91" height="62" viewBox="0 0 91 62" fill="none" xmlns="http://www.w3.org/2000/svg">
<path d="M28.4139 36.6916C28.8811 36.6925 29.3454 36.6221 29.7914 36.4831L28.2026 44.9977L28.2025 44.9985L28.4141 36.5916M28.4139 36.6916L28.4141 36.5916M28.4139 36.6916H28.4141V36.5916M28.4139 36.6916H18.975M28.4141 36.5916H18.9748M18.975 36.6916L18.9748 36.5916M18.975 36.6916H18.9748V36.5916M18.975 36.6916L18.9748 36.5916M18.9749 12.3654C18.508 12.3647 18.0439 12.4351 17.598 12.5739L19.1873 4.0593L19.189 4.0502V4.04733C19.2638 3.63815 19.4776 3.2689 19.7927 3.00395C20.1099 2.73718 20.5094 2.59328 20.9206 2.59732V2.59733L18.9748 12.4654M18.9749 12.3654L18.9748 12.4654M18.9749 12.3654H18.9748V12.4654M18.9749 12.3654H28.414M18.9748 12.4654H28.4141M28.414 12.3654L28.4141 12.4654M28.414 12.3654H28.4141V12.4654M28.414 12.3654L28.4141 12.4654M31.8434 17.1302V31.9211C31.8425 32.8464 31.4805 33.7332 30.8373 34.387C30.1943 35.0407 29.3227 35.4079 28.414 35.4087H18.9749C18.0664 35.4077 17.1951 35.0403 16.5522 34.3866C15.9093 33.7329 15.5475 32.8463 15.5465 31.9212C15.5465 31.9211 15.5465 31.9211 15.5465 31.9211M31.8434 17.1302L15.5465 31.9211M31.8434 17.1302C31.8423 16.205 31.4803 15.3182 30.8372 14.6645C30.1941 14.0108 29.3226 13.6435 28.414 13.6426H18.9749C18.0665 13.6438 17.1952 14.0112 16.5524 14.6648C15.9095 15.3185 15.5476 16.2051 15.5465 17.1301C15.5465 17.1302 15.5465 17.1302 15.5465 17.1302V31.9211M31.8434 17.1302L15.5465 31.9211M33.4633 23.286V25.7705H33.1085V23.286H33.4633ZM17.4897 36.4479L17.4686 36.3347C17.5047 36.3475 17.5409 36.3597 17.5772 36.3715L17.598 36.4831C17.5618 36.4718 17.5257 36.4601 17.4897 36.4479ZM29.8122 36.3715C29.8486 36.3597 29.8848 36.3475 29.9208 36.3347L29.8997 36.4479L29.8122 36.3715ZM29.8997 12.6091L29.9208 12.7222C29.8848 12.7095 29.8486 12.6973 29.8122 12.6855L29.7914 12.5739C29.8276 12.5852 29.8637 12.5969 29.8997 12.6091ZM17.5772 12.6855C17.5409 12.6973 17.5047 12.7095 17.4686 12.7222L17.4897 12.6091L17.5772 12.6855ZM33.4744 22.0026H33.4743H33.1085V17.1301V17.1301C33.1082 16.3804 32.9341 15.6413 32.6001 14.9727C32.2721 14.3159 31.7988 13.7453 31.2175 13.3056L29.4463 3.81857C29.4463 3.81841 29.4463 3.81825 29.4462 3.81808C29.321 3.1106 28.9535 2.47064 28.4084 2.01171C27.8632 1.55276 27.1756 1.30455 26.4674 1.3114H20.9221C20.2138 1.30444 19.5261 1.55261 18.9809 2.01159C18.4358 2.47054 18.0683 3.11057 17.9432 3.81812C17.9431 3.81828 17.9431 3.81843 17.9431 3.81859L16.1719 13.3082C15.5907 13.7474 15.1175 14.3175 14.7894 14.9739C14.4553 15.642 14.281 16.3807 14.2804 17.1301V17.1301L14.2804 31.9212L14.2804 31.9212C14.2807 32.6711 14.4549 33.4104 14.7891 34.0791C15.1173 34.736 15.5908 35.3066 16.1724 35.7462L17.9436 45.2358C17.9436 45.2359 17.9437 45.2361 17.9437 45.2363C18.0688 45.9438 18.4363 46.5838 18.9814 47.0428C19.5266 47.5018 20.2143 47.75 20.9227 47.743C20.9228 47.743 20.9229 47.743 20.9231 47.743H26.4669C26.467 47.743 26.4671 47.743 26.4672 47.743C27.1756 47.7499 27.8632 47.5016 28.4084 47.0427C28.9535 46.5837 29.321 45.9438 29.4462 45.2363C29.4463 45.2361 29.4463 45.236 29.4463 45.2358L31.2175 35.7462C31.7988 35.3063 32.272 34.7357 32.6001 34.0788C32.934 33.4102 33.1082 32.671 33.1085 31.9212V31.9212V27.0518H33.4743H33.4744C33.8076 27.0515 34.1267 26.9168 34.3619 26.6779C34.5969 26.439 34.7289 26.1154 34.7294 25.7781V25.778V23.2764V23.2762C34.7289 22.939 34.5969 22.6154 34.3619 22.3765C34.1267 22.1376 33.8076 22.0029 33.4744 22.0026Z" fill="white" stroke="white" stroke-width="0.2"/>
<path fill-rule="evenodd" clip-rule="evenodd" d="M50.756 30.786C50.5971 30.9967 50.451 31.2203 50.3178 31.452C49.4945 32.8909 49.2714 34.602 49.6984 36.2062C49.9487 37.1509 50.2103 38.1377 50.4639 39.0888C50.902 40.7432 51.9741 42.1546 53.4441 43.0101C54.8163 43.8122 56.4308 44.0666 57.9745 43.7361C58.0066 43.7571 58.0403 43.7766 58.0756 43.7976C58.7528 44.193 59.5601 44.2999 60.3176 44.0958C61.0751 43.8916 61.7203 43.3909 62.1134 42.7055C62.505 42.0185 62.6109 41.205 62.4087 40.4402C61.6143 37.4458 60.2181 32.1875 59.4237 29.1917C59.2199 28.4285 58.7256 27.7771 58.0451 27.3801C57.3663 26.9847 56.5606 26.8778 55.8031 27.082V27.0836C55.4902 27.1678 55.1965 27.3023 54.9317 27.4806C55.3281 20.5747 61.0077 15.0896 67.944 15.0896C74.8191 15.0896 80.4587 20.4739 80.9452 27.291C80.7718 27.2035 80.5905 27.1338 80.3995 27.0836V27.082C79.642 26.8778 78.8364 26.9847 78.1575 27.3801C77.4771 27.7771 76.9828 28.4285 76.779 29.1917C75.9845 32.1878 74.5883 37.4457 73.7939 40.4402C73.5917 41.2051 73.6976 42.0185 74.0892 42.7055C74.4824 43.3909 75.1275 43.8916 75.8851 44.0958C76.6426 44.3 77.4498 44.193 78.127 43.7976C78.1623 43.7766 78.196 43.7571 78.2281 43.7361C79.772 44.0666 81.3865 43.8122 82.7585 43.0101C84.2286 42.1546 85.3006 40.7433 85.7388 39.0889C85.9923 38.1377 86.2539 37.1509 86.5043 36.2062C86.9312 34.602 86.7081 32.8909 85.8848 31.452C85.681 31.0939 85.4435 30.7601 85.1771 30.4539C85.1867 30.3648 85.1963 30.2757 85.2059 30.1882C85.2685 29.587 85.3006 28.9761 85.3006 28.3571C85.3006 18.687 77.5233 10.8362 67.9441 10.8362C58.3664 10.8362 50.5908 18.687 50.5908 28.3571C50.5908 29.0166 50.6261 29.6648 50.6967 30.3048C50.7144 30.4652 50.7335 30.6256 50.756 30.786ZM81.2501 30.402L78.2651 41.6489C78.1511 42.0831 77.8703 42.451 77.4851 42.6746C77.1016 42.8982 76.6458 42.9582 76.2189 42.8431H76.2173C75.7888 42.7264 75.4229 42.4445 75.2014 42.0572C74.9799 41.6684 74.9206 41.2082 75.0345 40.7755L78.0195 29.5287C78.1351 29.096 78.4143 28.7266 78.7995 28.503C79.1831 28.2794 79.6388 28.2194 80.0673 28.3344V28.3361C80.4958 28.4511 80.8601 28.7331 81.0832 29.1203C81.3047 29.5092 81.3641 29.9694 81.2501 30.402ZM54.9527 30.402C54.8388 29.9694 54.8982 29.5092 55.1196 29.1203C55.3427 28.733 55.707 28.4511 56.1355 28.3361V28.3344C56.5641 28.2194 57.0198 28.2793 57.4034 28.503C57.7885 28.7266 58.0678 29.096 58.1833 29.5287L61.1684 40.7755C61.2823 41.2082 61.2229 41.6684 61.0014 42.0572C60.78 42.4445 60.4141 42.7265 59.9856 42.8431H59.9839C59.557 42.9582 59.1013 42.8982 58.7177 42.6746C58.3326 42.451 58.0517 42.0831 57.9378 41.6489L54.9527 30.402ZM82.5887 30.0796C82.5806 30.2999 82.5485 30.5203 82.4908 30.7374L79.5057 41.9859C79.4512 42.1901 79.3757 42.3878 79.281 42.5725C80.2648 42.6276 81.2518 42.3943 82.1168 41.8887C83.2916 41.2034 84.1486 40.0756 84.5001 38.7517L85.264 35.8707C85.6026 34.5971 85.4261 33.2409 84.7729 32.1001C84.2641 31.2089 83.4986 30.5073 82.5887 30.0796ZM53.6146 30.0796C52.7047 30.5073 51.9391 31.209 51.4304 32.1002C50.7772 33.2409 50.6007 34.5971 50.9393 35.8707L51.7032 38.7518C52.0547 40.0756 52.9117 41.2034 54.0865 41.8888C54.9515 42.3944 55.9385 42.6277 56.9222 42.5726C56.8276 42.3878 56.7521 42.1902 56.6976 41.986C55.9032 38.9915 54.5085 33.732 53.7125 30.7374C53.6548 30.5203 53.6226 30.2999 53.6146 30.0796ZM83.9851 29.3925C84.006 29.049 84.0172 28.7055 84.0172 28.3571C84.0172 19.4029 76.8163 12.1325 67.9445 12.1325C59.076 12.1325 51.8751 19.4029 51.8751 28.3571C51.8751 28.7784 51.8912 29.1948 51.9217 29.608C52.4368 29.211 53.013 28.8934 53.6341 28.6731C53.6293 28.5321 53.6277 28.3928 53.6277 28.2502C53.6277 20.2716 60.0422 13.7931 67.9448 13.7931C75.8486 13.7931 82.2648 20.2712 82.2648 28.2502C82.2648 28.3587 82.2632 28.4657 82.26 28.5726C82.8795 28.7573 83.4603 29.0344 83.9851 29.3925Z" fill="white"/>
</svg>
