<svg width="37" height="47" viewBox="0 0 37 47" fill="none" xmlns="http://www.w3.org/2000/svg">
<g clip-path="url(#clip0_661_201)">
<path d="M36.1519 30.1013C36.1519 30.9747 35.4593 31.7032 34.605 31.7032H2.99951C2.14521 31.7032 1.45264 30.9747 1.45264 30.1013L5.67139 6.42885C5.67139 5.55556 6.36396 4.85791 7.21826 4.85791H30.0347C30.889 4.85791 31.5815 5.55556 31.5815 6.42885L36.1519 30.1013ZM18.8024 7.08075C13.793 7.08075 9.73207 9.65948 9.73207 12.8405C9.73207 16.0215 13.793 18.6002 18.8024 18.6002C23.8118 18.6002 27.8727 16.0215 27.8727 12.8405C27.8727 9.65945 23.8118 7.08075 18.8024 7.08075ZM30.9352 22.4735L31.9899 28.2235H5.61489L6.66957 22.4735H18.8024H30.9352ZM8.30955 31.7032C8.29302 32.0626 7.98681 32.386 7.61064 32.386H7.46369C7.08752 32.386 6.7813 32.0626 6.76478 31.7032H8.30955ZM30.8095 31.7032C30.793 32.0626 30.4865 32.386 30.1106 32.386H29.9637C29.5879 32.386 29.2813 32.0626 29.2648 31.7032H30.8095Z" stroke="white" stroke-width="1.2" stroke-miterlimit="10"/>
</g>
<defs>
<clipPath id="clip0_661_201">
<rect width="36" height="46" fill="white" transform="translate(0.716797 0.150085)"/>
</clipPath>
</defs>
</svg>
