<svg width="46" height="36" viewBox="0 0 46 36" fill="none" xmlns="http://www.w3.org/2000/svg">
<path d="M39.2748 5.1272H7.6406C7.15273 5.1272 6.76758 5.50522 6.76758 5.98405V25.3893C6.76758 25.8681 7.16557 26.2461 7.6406 26.2461H39.2748C39.7627 26.2461 40.1478 25.8681 40.1478 25.3893V5.98405C40.1478 5.50522 39.7627 5.1272 39.2748 5.1272ZM38.4018 24.5324H8.51362V6.84091H38.4018V24.5324ZM32.2393 29.2703C32.2393 29.7492 31.8541 30.1272 31.3663 30.1272H15.5492C15.0613 30.1272 14.6761 29.7366 14.6761 29.2703C14.6761 28.8041 15.0741 28.4135 15.5492 28.4135H31.3663C31.8541 28.4135 32.2393 28.8041 32.2393 29.2703Z" fill="white"/>
</svg>
