<svg width="51" height="50" viewBox="0 0 51 50" fill="none" xmlns="http://www.w3.org/2000/svg">
<path d="M22.0536 34.6333C22 34.9851 21.669 35.2603 21.2983 35.2603H9.20646C8.81153 35.2603 8.48791 34.8969 8.48791 34.5333V10.0097C8.48791 9.55469 8.81139 9.23788 9.20646 9.23788H21.2519C21.693 9.23788 22.0148 9.60121 22.0148 10.0097L22.0166 34.5333L22.0166 34.6333H22.0536ZM21.2521 8.11918H9.20664C8.19186 8.11918 7.379 8.99536 7.379 10.0096V34.5331C7.379 35.5542 8.24308 36.3786 9.20664 36.3786H12.9703V44.1688H11.7528C10.6508 44.1688 9.7441 45.0864 9.7441 46.1973V47.6218C9.7441 47.7822 9.79708 47.9236 9.89775 48.0254C9.99853 48.1272 10.1391 48.181 10.2986 48.181H20.1177C20.2773 48.181 20.4178 48.1272 20.5186 48.0254C20.6193 47.9236 20.6723 47.7822 20.6723 47.6218V46.1973C20.6723 45.0895 19.813 44.1688 18.7079 44.1688H17.4443V36.3786H21.2079C22.2621 36.3786 23.0799 35.5542 23.0799 34.5331V10.014C23.1735 8.94167 22.349 8.11918 21.2521 8.11918ZM19.6074 46.2445V47.1096H10.8974V46.2445C10.8974 45.748 11.3081 45.3345 11.797 45.3345H18.752C19.1937 45.3345 19.6074 45.745 19.6074 46.2445ZM16.3794 44.2159H14.1255V36.3789H16.3794V44.2159Z" fill="white" stroke="white" stroke-width="0.2"/>
<path d="M18.9697 15.4739L18.9697 15.4761C19.0146 17.5307 17.3348 19.1861 15.2522 19.1861C13.2153 19.1861 11.5348 17.5314 11.5348 15.4739C11.5348 13.4149 13.2186 11.7169 15.2522 11.7169C17.2876 11.7169 18.9697 13.4166 18.9697 15.4739ZM15.2522 10.5984C12.5587 10.5984 10.4259 12.803 10.4259 15.4738C10.4259 18.1467 12.6069 20.3046 15.2522 20.3046C17.8963 20.3046 20.125 18.1499 20.125 15.4738C20.125 12.8015 17.9445 10.5984 15.2522 10.5984Z" fill="white" stroke="white" stroke-width="0.2"/>
<path d="M42.425 34.5333V34.6333H42.4638C42.4101 34.9851 42.0792 35.2603 41.7084 35.2603H29.6166C29.2217 35.2603 28.8981 34.8969 28.8981 34.5333V10.0097C28.8981 9.55469 29.2215 9.23788 29.6166 9.23788H41.6621C42.1032 9.23788 42.425 9.60121 42.425 10.0097V34.5333ZM41.6622 8.11918H29.6168C28.602 8.11918 27.7892 8.99536 27.7892 10.0096V34.5331C27.7892 35.5542 28.6532 36.3786 29.6168 36.3786H33.3804V44.1688H32.163C31.061 44.1688 30.1543 45.0864 30.1543 46.1973V47.6218C30.1543 47.7822 30.2072 47.9236 30.3079 48.0254C30.4087 48.1272 30.5492 48.181 30.7088 48.181H40.5279C40.6875 48.181 40.828 48.1272 40.9288 48.0254C41.0295 47.9236 41.0824 47.7822 41.0824 47.6218V46.1973C41.0824 45.0895 40.2231 44.1688 39.1181 44.1688H37.8544L37.8527 36.3786H41.6163C42.6705 36.3786 43.4883 35.5542 43.4883 34.5331V10.014C43.5838 8.94157 42.7572 8.11918 41.6622 8.11918ZM40.0157 46.2445V47.1096H31.3076V46.2445C31.3076 45.748 31.7183 45.3345 32.2072 45.3345H39.1622C39.6479 45.3345 40.0157 45.6998 40.0157 46.2445ZM36.7895 44.2159H34.5357L34.534 36.3789H36.7878L36.7895 44.2159Z" fill="white" stroke="white" stroke-width="0.2"/>
<path d="M35.7068 10.5984C33.0145 10.5984 30.8341 12.8017 30.8341 15.4738C30.8341 18.1467 33.0151 20.3046 35.6604 20.3046C38.3057 20.3046 40.4864 18.1472 40.4868 15.4746C40.5334 12.8017 38.353 10.5984 35.7068 10.5984ZM35.7068 19.1861C33.6699 19.1861 31.9894 17.5314 31.9894 15.4739C31.9894 13.4149 33.6732 11.7169 35.7068 11.7169C37.7422 11.7169 39.4243 13.4166 39.4243 15.4739C39.4243 17.5314 37.7437 19.1861 35.7068 19.1861Z" fill="white" stroke="white" stroke-width="0.2"/>
<path d="M35.7068 23.297C33.0145 23.297 30.8341 25.5003 30.8341 28.1724C30.8341 30.8453 33.0151 33.0032 35.6604 33.0032C38.3057 33.0032 40.4864 30.8458 40.4868 28.1733C40.5334 25.5003 38.353 23.297 35.7068 23.297ZM35.7068 31.8847C33.6699 31.8847 31.9894 30.2301 31.9894 28.1725C31.9894 26.1135 33.6732 24.4155 35.7068 24.4155C37.7422 24.4155 39.4243 26.1152 39.4243 28.1725C39.4243 30.2301 37.7437 31.8847 35.7068 31.8847Z" fill="white" stroke="white" stroke-width="0.2"/>
<path d="M15.2791 23.297C12.5868 23.297 10.4063 25.5003 10.4063 28.1724C10.4063 30.8453 12.5874 33.0032 15.2327 33.0032C17.878 33.0032 20.0586 30.8458 20.0591 28.1733C20.1057 25.5003 17.9252 23.297 15.2791 23.297ZM15.2791 31.8847C13.2421 31.8847 11.5616 30.2301 11.5616 28.1725C11.5616 26.1135 13.2454 24.4155 15.2791 24.4155C17.3145 24.4155 18.9965 26.1152 18.9965 28.1725C18.9965 30.2301 17.316 31.8847 15.2791 31.8847Z" fill="white" stroke="white" stroke-width="0.2"/>
</svg>
