<svg width="46" height="32" viewBox="0 0 46 32" fill="none" xmlns="http://www.w3.org/2000/svg">
<path d="M42.91 3.88699V3.88699C43.042 4.00448 43.1197 4.17443 43.1195 4.35295M42.91 3.88699L42.5558 20.725L42.5706 20.8491C42.8837 20.8118 43.1195 20.5465 43.1195 20.231V4.35295M42.91 3.88699L42.9092 3.88629M42.91 3.88699L42.9092 3.88629M43.1195 4.35295L42.9945 4.35279H43.1195V4.35295ZM42.9092 3.88629C42.7765 3.77012 42.5979 3.71261 42.4215 3.73478M42.9092 3.88629L42.4215 3.73478M19.3468 26.1591L14.3669 29.3603C14.3669 29.3603 14.3669 29.3603 14.3669 29.3604C14.263 29.4275 14.1457 29.4594 14.0304 29.4594C13.8262 29.4594 13.6259 29.3573 13.5063 29.1727L13.506 29.1722C13.3204 28.8831 13.4043 28.4985 13.6942 28.3118L13.6943 28.3118L19.3468 24.6782V21.8605C13.9361 21.7747 8.73338 21.4777 4.14486 20.983L19.3468 26.1591ZM19.3468 26.1591V27.9406C19.3468 28.2843 19.6264 28.5637 19.97 28.5637H26.6326C26.9762 28.5637 27.2558 28.2842 27.2558 27.9406V26.1468L32.3083 29.362L32.3085 29.3622C32.4115 29.4273 32.5272 29.4593 32.6427 29.4593C32.848 29.4593 33.0487 29.3573 33.1683 29.1709L33.1687 29.1703C33.3525 28.88 33.2675 28.4956 32.9773 28.3103L32.9771 28.3102L27.2557 24.6693L19.3468 26.1591ZM42.4215 3.73478C36.6253 4.43639 29.7673 4.80802 22.5886 4.80802C16.0926 4.80802 9.76142 4.49593 4.27841 3.90528C4.27838 3.90528 4.27835 3.90528 4.27831 3.90527L4.26492 4.02955C4.12031 4.01374 3.98421 4.06057 3.87913 4.15476C3.77405 4.24894 3.71387 4.38319 3.71387 4.52473V20.3641L42.4215 3.73478ZM27.2557 21.8363V21.7139H27.1307L27.1333 21.8389C27.1741 21.8381 27.215 21.8372 27.2557 21.8363ZM26.0095 27.3173H20.5933V21.8776C21.2561 21.8843 21.9207 21.8889 22.5887 21.8889C23.7444 21.8889 24.882 21.8769 26.0095 21.8594V27.3173ZM22.5887 6.05312C29.529 6.05312 36.1774 5.70805 41.8732 5.05318V19.6773C36.3656 20.3099 29.7129 20.6437 22.5887 20.6437C21.7468 20.6437 20.9088 20.6377 20.0745 20.6274C20.0724 20.6268 20.0702 20.6262 20.0675 20.6255C20.0628 20.6242 20.0566 20.6224 20.0471 20.62C20.029 20.6153 20.002 20.609 19.9702 20.609C19.9398 20.609 19.9144 20.6154 19.8996 20.6194C19.8924 20.6213 19.8877 20.6226 19.8844 20.6235C19.8836 20.6238 19.8829 20.624 19.8822 20.6241C14.5406 20.5531 9.39418 20.2741 4.83414 19.8035V5.21605C10.2001 5.76448 16.3202 6.05312 22.5887 6.05312Z" fill="#BCF0BE" stroke="#BCF0BE" stroke-width="0.25"/>
</svg>
