<svg width="30" height="41" viewBox="0 0 30 41" fill="none" xmlns="http://www.w3.org/2000/svg">
<path d="M14.9392 30.8528C19.3004 30.8528 22.8344 27.3188 22.8344 22.9576C22.8344 18.5965 19.3004 15.0625 14.9392 15.0625C10.578 15.0625 7.04404 18.5965 7.04404 22.9576C7.04404 27.3188 10.578 30.8528 14.9392 30.8528ZM21.7173 22.9576C21.7173 26.7015 18.6831 29.7357 14.9392 29.7357C11.1953 29.7357 8.16112 26.7015 8.16112 22.9576C8.16112 19.2138 11.1953 16.1796 14.9392 16.1796C18.6831 16.1796 21.7173 19.2138 21.7173 22.9576Z" fill="white" stroke="white" stroke-width="0.2"/>
<path d="M26.503 3.69897V3.59897H26.403H3.47607H3.37607V3.69897V36.7138V36.8138H3.47607H6.12731V38.548V38.648H6.22731H7.14439H7.24439V38.548V36.8138H23.0933V38.548V38.648H23.1933H24.1103H24.2103V38.548V36.8138H26.403H26.503V36.7138V3.69897ZM4.49315 9.45735H25.386V35.6968H4.49315V9.45735ZM9.79563 4.71615V8.34027H4.49315V4.71615H9.79563ZM19.425 8.34027H10.9127V4.71615H19.425V8.34027ZM25.386 4.71615V8.34027H20.542V4.71615H25.386Z" fill="white" stroke="white" stroke-width="0.2"/>
</svg>
